<mxfile host="Electron" modified="2024-04-15T15:44:37.262Z" agent="Mozilla/5.0 (Windows NT 10.0; Win64; x64) AppleWebKit/537.36 (KHTML, like Gecko) draw.io/21.2.8 Chrome/112.0.5615.165 Electron/24.2.0 Safari/537.36" etag="dknbc0sLTFQTg3gqPb5R" version="21.2.8" type="device">
  <diagram name="Page-1" id="2XWkQP5S-hDbL94sL5Vg">
    <mxGraphModel dx="2058" dy="1180" grid="1" gridSize="10" guides="1" tooltips="1" connect="1" arrows="1" fold="1" page="1" pageScale="1" pageWidth="3300" pageHeight="4681" background="#999999" math="0" shadow="0">
      <root>
        <mxCell id="0" />
        <mxCell id="1" parent="0" />
        <mxCell id="HT3JYzme7oOu0LbbBRVU-1" value="C++" style="rounded=0;whiteSpace=wrap;html=1;fillColor=#dae8fc;strokeColor=#6c8ebf;fontSize=52;" parent="1" vertex="1">
          <mxGeometry x="1210" y="200" width="370" height="400" as="geometry" />
        </mxCell>
        <mxCell id="HT3JYzme7oOu0LbbBRVU-2" value="QML" style="rounded=0;whiteSpace=wrap;html=1;fillColor=#f8cecc;strokeColor=#b85450;fontSize=52;" parent="1" vertex="1">
          <mxGeometry x="1600" y="200" width="370" height="400" as="geometry" />
        </mxCell>
        <mxCell id="E2l1j_wHfJeoJDgqapK--1" value="QML Singleton" style="rounded=0;whiteSpace=wrap;html=1;fontSize=30;" vertex="1" parent="1">
          <mxGeometry x="1220" y="40" width="750" height="130" as="geometry" />
        </mxCell>
        <mxCell id="E2l1j_wHfJeoJDgqapK--2" value="" style="shape=image;verticalLabelPosition=bottom;labelBackgroundColor=default;verticalAlign=top;aspect=fixed;imageAspect=0;image=data:image/png,iVBORw0KGgoAAAANSUhEUgAAAnQAAADsCAYAAAD9wzvIAAAAAXNSR0IArs4c6QAAAARnQU1BAACxjwv8YQUAAAAJcEhZcwAADsMAAA7DAcdvqGQAACqoSURBVHhe7d19bBT3ve/xr8FXsTEtATsBmziYlkMejkICPhSfY+G0EVHEgQbrHIFw/6jcB6RgqaGCIgFqFaJWgJSCmhxdE4mmsc4fsQXqkZ2GoCjcnBu43EKpTULOTRpKZYPBDokfwr0hdlUD9/eb+c16dndmH2bXy479fklbz453dmZ2HPbT7+9hCr75xKrbcgcMDQ6YJQAAAGRimvkJAACAkCLQAQAAhByBDgAAIOQIdAAAACFHoAMAAAg5Ah0AAEDIMW0JJliZNOzdIOvKRfqOHpetRy6Y9XfQgho58PwyqTBPI/q7ZMfO09JjngIAEBZU6JBQVW2NbN/bIG0tTZHHgb2rpW6BeUEyCxbJchXmtIo1X5c6e3EK0wFXfY57a6TKrAEAIFMEOviqWt8g+zYtk+ry2WaNraJ8oTQ9r4LdlsXJQ8mli3K2317sO/oXOWEv3lmXTsvWxmbZGHkcl07zKwAAwohAB2+1q2XfGh3khqXz0GFX+GmWHYe6pFOFtIql1fKPSSt1A9K6094uL5pbAQCYhAh08FT3Dwutn31H35YXTkX3d+w5dVpe2HlYdjzXKq2XzEqkaI7cZ5qgAQDIljwbFGE60IvdOV0WLJb1z1SPN/n1D0vnG/EBw2E1Ea4R6XCChtq+ob5ali+dHekA33fuuLz04oX4ju9er+3vlrNvnJVWn/1pVbWr5dm1C6UiwZd039HDsvXIgNRtaZKmpd3S3HhW5m95UtapfdkVsFZ1Turc49ZZm0cLeJzpso91/NhTMz4Awov/e0Vf9x71vE59FvVR161LXTf/AQvpXId4i2V7yyqpTmdQhM91aH/5mJyIDbnq2A4kObYI9fe5Uf19xtJ9Gdev1c3fZoX6G+k71+n9t5yFzxMAEC75WaFTAW79FhXOnldfsu7+W2q5etMGaduy2Kzwp8Ndm9peByTnS0zTy9FfYjpI+by2fKGsU/vbXmtWxKjTx7gpxS/qiLulXn/Zqn3Z1DmtrVHHELNu0+qYAQTBjzOIE3/stn5WrFme+gCITKnre78KStvV59MUe45Ll8k+n4EEwa5DcL5/W07fwvVlZs244Memw1mT6ctoVlnUvpeukn0tDdLgd30Cfp4AgPDJzwqd+eLSVYT29tOm4lEmdeuflCarX5dI56HmuAqWXaGbLZ3nuqV66UKR/m5pfvms2t7ZV5lULRiQHncFpXa1tKkwYFdXol87vj9dVTsW3aHfbKcrJR2H3o5Ux3Ql5Vn15VvhsY1T9bK2saqI7vONXxd1jkGPMwPjx6uo/XYErAI61yVphS4SWGI/09VWYNPirnuA6xAvjQqda3+dRzvlyJHxCplVJVS/q4hcS/OLKOlVA53PztqfOr9IdVpXCJ9RodL6zGLPMYPPEwAQSnnbh8768n/RCXPagJw40io7jg5bz6r/wb9Kp8Oc3n7jTvUlFwk+WkyY004dkx3PNctWj9fq/TWf08t3y/yYKkhVxd3WT9006g45un/Z1kO6urVQVvhUzHS/NPvLfkB+32Wfj3vd1U+sVdECHmcmTrzYrD7vbunTT0wVsK2lQbavT2F0a1A6hDfGfqbHzPmpw6iIrn5lch3Sp4LSWicItcoLrjCn6eO09zlbln8jvkqXtgUqlJowpwNiVFeDSxekdedh6bBGEC+Ueo+qoCXNzxMAEE55GuiG5ewf3KFlXM8fTMCYN8c/VJzTE9h6b+8lEvIWlEmdnndtS4McMHOv2RWq2XLffdYr0uL3ZdnfF39s7nWX++yQF2uijjORniMqpLhGtlrNwWvspr7ttdkOAyq46D5o5pmb32eSiqyFFmdOvf4uOeJX1Tr1F2sKlIplizIPvfeZZtJznT7VvgFpfcM0jXvub2I+TwBA/gnvKFfdP8gsxurrGzJLqbEnz22Stuc3SJPuq6T7G7n77nno6fvc+mn1dXNXxXSfJdOc5RXcMhHkOLPFHtnaLBufOy4d53QYsPszZrPfXhA5vQ5OwCpfpgLt+ETL0Y9VUm29OHNO9THh3/OVYVNB9f/vAQAw+TFtidWfyHQ47++WzqPHpfk5PSWHPfea0zQVJ9JsZXeEj3yh64EcevW54/5VnCCCHme26aa+F11N32vvcMf6XF8HAADyUPgCnVMl6R+Wy9aKTDhVHN1p3O5zp/tF6T5qPVH91PzYocaqkETozvLHZYfndBJBZXqc2Rdp+s4LOboOTjVMTy2iQnTCR7IBD2lU1Coq5pglD1n97wEAEFZ5G+i8+4KNd0rv67qYvS/q/m75vbvDeUSZzDdLcWpXW/3WOvRAhagv8/jO8lkT5DgD0lOBJOwj5wSJOy2b1yFZyHJuY7a02n+qkJQlH8ASCc2++5ug/x4AAKGTp4FO98+KGU2pp2mITMXQLe1pDHpIqnyZPBs1crPMmtrhgN6fM21HDLt/02y5LxujGVMV4DgDWVBjTUKr+8jZN+KPPkdrn860F2/c2clps3MdhuRKZLRo9N9c9Bx8ziCE2bLuefP3GfV7PYWM+mxaYucQdLsgZ6wmYvUez9TE9PvTg11c53HptLQ7r9X7c/9uIv97AACETt7OQ9en7xVqfVnFsqdw8Br1l3y+s3jj83x50FM+dIk0rVkYP1+XCj0HntfznPmLvYODM6+b+70ic+eluM5TouMMSp3f9mdiJ7ONpu+6sdXjrgaxkl8X57oHuLYBroMX389XN6/GnGPCa6Gp/enRpd4jU5WEx5xsTrlYXp9ZBp8nACCU8rRCNyxnX9ZTZXRbwc6hJxpu9vmCCqpHz20Xsx/rC9n0VTvh11Hs0kVpt0Z7+svmHRwCH2dQl8z9WmP3qeiApAdkpBLmJlyWroP1+Tpz7jn05/vH+BGm+rXOaN/o15t+e+p6JPwbVZ/tVrV9p3q9m/5cOw6djZlmZEBad7qnjXHoW3+pfek55rL43wMAIJzytELnX1nID+Y4I/fK9FImdVv0LZfUFzVVkAnCdQAAQGPakiDMBLOJO6IPMHnrROM6AABgIdBloGLNk1ZH9dh52Kp0h3V9w3irnxUd1ica1wEAMNXR5BpQ1I3r/eg+UYk6xyNjXAcAAESmVy382m6znFMjI1+aJbcZ8siqv5cHvzIqH//P/5L/um5W56FLZ87KHz+bLrMrikS+UixfMes13bn9nba3peXV8/K/8vgcJgOuAwAAeVehAwAAQLroQwcAABByBDoAAICQI9ABAACEHIEOAAAg5Ah0AAAAIUegAwAACDkCHQAAQMgR6AAAAEIuFIGuaPN+mXvwNSndvNKsAbJN33auSdpamuTA+sVmXfZUrW8w711m1gAAkD35H+gqN0rJknJrsXDufCm0llBYr0PuNikyzydKVW2NbN9rhxH70SDbVeCJvRF+PBOQ9tak8NpxwfeXoQWLZLn9ZyYVa74udfYiAAChkP+Brve0/PWaXuiX0fdOy5i1cqqrkqLHVPq4dnVCP4+6LQ2yb9MyqS6fbdZos6V6zSrZt3d11kNPrvcX5dJFOdtvL/Yd/YucsBcBAAiFEDS59sgXu78j1zZvk+vtPWbdVFcp0+eqHxMY6HQTYdNSHayGpfPoYdnR2Cwb9eO549Kpg0/5QmlKs/qWSK73F29AWnfa+9x65IJZBwBAODAoIoxWfMNqah3tOmk/z7rFsn6NXSXrPNQqLxwZULHauHRBXtipQpZeLl8m62uttR7myH2mCTO5bOwPAICpq+CbT6y6bZZzamhwwCzFWLFN5jZWmycu116Xwd1tPhWpKpm5e4+UXDso194Qmbm23u53d61TbryyX76QlfHres2m7m0PnpTCFRulZPXTUqQrYMqYef1o5PUxKqukaO2PrPeO9O/T2xz7rXxxxr+iqPvAlT4lcmPPNvtYKlfKrB/Uq/2aFKTe43pkv+p3u12/S0htt1ltZ54FUrta2jYtFOnvkh07T4+HKzfnNeeOy8YXTUVLrTuwdqFUpHKYMdsF2t+CGjnw/DKp8N1O9+PbIOvKh6XjuVZpvWRWR9abpzH6jh6WrSpUJlYmVbXL5dm1d6vzdZqIh6XvXKe8pI4v9lh0BXKfCq1+762bm60KpTq/HR7bAwCQSN5V6ArLK8xStLGE/edME6R8Q2bt2hwZRCFzq+WutdukNGZdyVrXaNnKGrlLbTsm82WmCkKljeNhTitUr5+1a7/MrDQrXApV+CzdtUdmucOcpvfRuEdK6/0bCAvL9fH0yZgKbNYAB3WMUYFNH4MTIivnq+PwSR+xstAMW1Vxt/Wzr+uif7C4osKL/rk0egBBSmEuRib7uyMWLJbtKhDuUwFzPMxps6Vi6SrZ19IgDQvMqhREmpsJcwCAgPIu0I21b5Nrm3WfOfNosRrbZKw/wdecDjz655JqKTp/UAZd2xWqdYUx66JU2NsWLnlahT6R0ZZd9mv1Y89BGbUGZJRHh0BNh7lG9d5qccx5f+uhtn/L7PupH3kGQV0VLNSBTYcv/T5PldvvsWf8Pa63/Ha8ytbb5np/dUx6na5YRta5Hr5VzNTdX2GHlP6+BFWqS0NijyG4W+Y74eXUMbvfm/UwzaS6ehZZ53o4VTYl8P4CG+8v537sODpsfp+ICnPPr5JqHVz7u6Xj0GHXexyW5qPdKnjOlvvus1+djFO5sz4nwhwAIKC870NnV+z65aZVnvFhQpkVcg6etANNn6lUudcZY/3j7aeRiqAVkLbJ9TM946/tPSnXX3ndfh41ZcpKmWWahUdbvhPz/mr79v0q1Fk9+eWuaq8qnVNRXK7ep8IOkfo9IofVI6N+zbVOeJ2wARFlMn+e/jksV65YK3wMyRU7YWUo1/vLTNX6arGuvNXMe0xaT7lD6ICcOHJMtj53WF44ZVYlEBXm/JqaAQBIQZ4HOmd6jrP+fdgUJ5SNHnNVp0zIc69zXueu9tlNn/1y4xWfylZvfHAqrK+3BiWMvbVLBUB7XayxzrPWdoXlHiU6J5TNLZexFjtEpsw5rwkbEAF/ZfKPy3Q1cVg6Xk4QwC4l63/nDnPd0kyYAwBkKM8DXWrTczihzF3FK1qm6yjR6+zXdcpfIyHMNH2avmypcvb3186AX8MmlCUKhH68ziu7BuTqJ/pnsmbDdEaxJpLr/WXCOYbP5WpkgEX6qmpX22HOMiyXzRIAAEHld6BLaXqOlXLXEv3THcq8gpp5XVQ4NIHx/B/8R4XGNXGmGAKd0OZq3nU4oSz9QBgsgKbrcp/dl6y8IsFtqhbMETtfZRZutFzv745a9qQ1mEI3szbrPnvly2TfluzfagwAMLXkdaBLqf+cE7iiQplHUPPqe2YCo1fochStfdraLr0mziqZudruYxc/mCOTUJZCAM2Cnr7PrZ8Vyxapo/VW9Y2FYjVgn0tyV4Xy2XK/WfST1f3lRPCBGRV6VKzpM3fiSKs0n1Mrl66S7cyvBwDIQJ4HOl2TCVAJ8wpqHq/z6lMXZcU2mWVV/9zNtD0yZo18rZa7Vlgr4hTW/0hKdPC69rrciGtSTa0Z2ZMTSifaqb8kmcjXNRHwH5PdVSGF8BN0f87IV5/QWLX+Sd+55oK5IGd0AJPZsu6ZBHetWFDm/7uYARAnXrRHA1dvSm+qEwAA3PI40DmVrGopcc3nVrhipRS5xhl4D3RIdZ39bV/U+JqU1q90haUqKdq8PzLB8WhL9ES9o132tCRFjftl1grXV3flSnsuu6f0+/oMtPCqFKZrSb3MdO230NrvRivEZscFOWKm8NBBY/t6V0Cx5mBbFRnpecR3NGd0+KlzhxUVeOpq3c2rQffnjHxdKE1bXDfwV+/foO8LG+mnlj0n2rvU/8VQdFPp3tXSEHUeerLh1XLg+Q2+zajxc+1dkBcOdaufSUIiAAAJ5N+dIlzsuynEl1j0VCHOYIKiza/JrCUqPDl3XIisc98xwdwNYq7HOhW8xqTchMd4euDCoMc9ZO19mCdxoo8nirkTht/7Juach3kaw/25ZEPk7gVerNGZxxI3fzp3cjBPo6ntG6O3D7Q/5w4SHvRdGdorNqj3jL1ThLdkd3OISHheWvz+kr13ZNSr+04YAACkKK+bXMfa/02un3dPPtYvo28ddDVjevVHM+u8Bj94rmuXwd27rP24K2Zj51+X63u+4xu6Rg+q37V0muZX45p9fHo+O88wpyRt5k2oR75Qx3oj6jNR76VvE6aONZthTjvxYqvsONQtfVG707e3Om7NwZa0L9ul07LVurm+XX1z9FkT8p6N2z7Q/k4di99Gh7/n9E32ByIDLrJKn5czibDXsTYmD4+xeo68LR36vaz+dAkGhwAA4CGvK3QTqnKjlO56WiRQpWzqyXUFiYoVAACpy+9pSyZQYfVyM0iCMJeKniOd9sCFpavkgLu/2gTJ9f4AAAizKVuh8+p7hyR0h399Q3rz1JZa/7RAcr0/AABCaopW6HIzQe+kc0rfp/S4dJybgH5pXnK9PwAAQmqKVuhWyqyDm6VI35B/t889XAEAAEJi6g6KAAAAmCSm7KAIAACAyYJABwAAEHIEOgAAgJAj0AEAAIQcgQ4AACDkCHQAAAAhR6ADAAAIOQIdAABAyBHoAAAAQo5ABwAAEHIEOgAAgJAj0AEAAIQcgQ4AACDkCHQAAAAhR6ADAAAIOQIdAABAyBHoAAAAQo5ABwAAEHIEOgAAgJAj0AEAAIQcgQ4AACDkCHQAAAAhR6ADAAAIOQIdAABAyBHoAAAAQo5ABwAAEHIEOgAAgJAj0AEAAIQcgQ4AACDkCHQAAAAhR6ADAAAIOQIdAABAyBHoAAAAQo5ABwAAEHIEOgAAgJAj0AEAAIQcgQ4AACDkCHQAAAAhR6ADAAAIuYJvPrHqtlnOqaHBAbOEYMqkbv1yqV+2UCrKzSrplubGY3LCPAMAAFND3gW6svpCWbTIPPF1W67++03p/dQ8jVIgld+fLvPllpz/zS350qydbOq2NEnTUvMkgkAHAMBURJNrKJXJ/Hn2Uuehw7Kxsdk8CHMAAExFeRfoBtrH5PQvncdNuTqk1+qKXPR67+rcFNPfJUdO0XQNAMBUNykrdMVzzAIAAMAUkOeDIkx/uDmJ+swpD0+XR2sKUgtyF2/K6XaPU75X7eufpsmcRep9zKqRIbXfN27KQMx+7X5+t+XiL29Jcf00ma+20VXEoTdvyoUP1fvErbM2yyqrD928Ltmx87T0mHUAAGBqSqlCV1JSIkseecT3oX9/p2VSlZuxcrrUfFcFR1eY04rnFMii7xbKoyt1OIs3X4dNK7hpBTKnZpoKczHr/nm6lJlnWVc+W+43iwAAYOqaXrXwa7vNsq+//e1vMnfuXHnkkb9XP++Nenz66Wdy5coV88rUjYykMv60QGYtnSZfVSnr/71/W/7vDbM61me35cr/vmUet2XGP02T4qFbcv6/35TuyHrz+JPZxvHwdKn+lqmmnbklf267Fdlm6PMC+erfqZB3X4EUXBzf/4wHp8kcFfb+W7FdOfzw7dtSoNZ9Va37qqkmRtYVq/f+/JYMfmZvmy0LapbL8vLP5Wz7Rblk1gEAgKkp5T505z/4QD744P+YZzb9XK8PrwKprLGraVbT6MnbUdOcfPnhTXn/Td08WyBzHnCqbuNGVAC0m4Fvy+Cf7WZc97oRa0BHtpVJ1frVUq+nLOkflsv2SgAAMIWlNSjCHerCH+aUe1VQ0021Q7fkil8/tw9vic5lxX9XIDPsNREjg/F98dzrvvT4fWALauRAS5O0tWyQfWsWSkV/t3S8TP85AAAQYJSrDnHH/8c74Q9zWpnpMzdnmiz5SaHUeD6mSz4Omu1Tj6v2IgAAmOICTVty7RqTwOXcpdOy1Zo8+LA0Hx2WivKF0vRMjVSZXwMAgKkrUKALhTnxTaRxBm7LiP6ppzKJTFrs88ib24gNyIkjrdJ8Ti0yyhUAACiTN9ApxfeaBT+f3pYh3UFu0TSpTPZaAACAPDUJA50KaRf1zwKZv3aalLmD2r0FUvawe7Tqbek9bY9inf/d6bJ4ZYHMiAp26vUrp8ujP5nAueQAAAAylHd3irDvwmCe+Epy54h7p8mj350WNUnwOH2Hh5vi3rueWHjJivhpSSLMHSOc/TnHOPTmWOQuEM57JFuXHWXSsHeDrBPuFAEAACZrk+unt+R9FfiGVBBzs27l9eatqDCnfXnyppxWr7960fSpc6jXD525Ked/kyA8AgAA3GF5fi9XeKNCBwAAxk3qQRGTXvkyWV9L7z4AAKY6KnQhVbW+QfatmW2eObqlufGYnDDPAADA1ECFLqR6jrTKjqPd0tdvVgAAgCmLCh0AAEDIUaEDAAAIOQIdAABAyOVVoLv/fm41DwAAkC4qdAAAACFHoAMAAAg5Ah0AAEDIEegAAABCjkAHAAAQcgQ6AACAkCPQAXdEgVR+v1BqflIoj64sMOsAAAiGQIdJpbB+v8w9uE2KzPO8dW+BzJljLxavmCZl9uIEMMHx+9NkhlkzsebJj5f9TN5f9oQ8ZNbkp/SO86H7m+T9WvV6j0fHsiZ56Z55eX6++Sosfy9A/iPQYRKpkqLHykWuXZUxsyZvfXpbhobsxZEzt4Q7G4dXVXGpPL54k7QRShClTOq2NMiBliZpcx57G2R7bbL/+xZ0O1vVgsXSoLa3ttuy2KzFVECgwyRSKdPnqh9hCHRyW3p/Myanfzkm75+8bdYh3/X0HpJHT/3c9TgkGy+ckh79y+Ja2Xf/POt1mOJUqNq+d4M0LZ0tFWaVpXy2VG/a4B+0gm6n1G2xw9++51fJOrU9ph4CHSaPFd+wmlpHu07az2EpNk27uXGPfK3YLOa1bB3nJ/LRZ+/IuvfsUFdV9jBVurTcgb+XBTUqNNnh58D6CejsoN7/gApV1eXD0nn0uOxobJaN5rHjULf06dcsXSXba61Xjwu6nXG5/bg0HzKPo8NmLaaSgm8+seqOlAeGBuMbmfS9XC9ftv6/7iRWJTN375GSawfl2sGTUrhio5SsflqKdGVJGbvWKTde2S+jvfbzWLqPWOlTIjf2bJMv9GsqV8qsH9Sr7cvtF6jtr3ttX1klRWt/JCVLyqXQrNKvvXHst/LFGa/PPLPj1ApXbJNZq6ul0Gwj0i+jb7XLjfaTvhW09M5P/W6363cJqe02q+2sZXNuc93rPFRulNJdT0vhefszCE73Y5su832C1ciZmz5VOrOd3JLzv7klX6rnZfXTZP6iAnG+A0cu3pI/t+vfuTw8XR6tUa9JJchdvCmn2zP8J+CeDdJR+YBUpfLFPNguj/7pA/PEpeQR+bG61t8qLVVXx9Yz8rH8+uPD8rsbZkWcefLt++vkh2XufQ9Kz+BJ2dH7gXwUu10Gx6n70LVVlloVunWXPzFr3R6Rl2rr5XH5WH56Sh2zWavZ24q8+l6z/Eofk9e5qv3tUPv7yDx3PHTPE7K5slYejz0/j9fa/dE2yffklGzsesfaz+YHVqptS+1fjwzKu73/Ic9+5nX8RoDrkPb5BbwO337wZ/ILdSrvXvi5OgdrlQfzGRTHXweHrmQ1LTVPZFg6nmuV1kvmaZZUrV8t//iHY97vW7ta2jYtFDl3XDa+eMGstAXdLk46r8WkQYUu1ypr5C4VcMbU1/RMFSZKG8dDklY4t1pm7dovM9U/kF4Ky3V46ZMxFWisAQC7NkcHGv1eMSFLB6vSXXtkljvMaWpfJY17pLTe+WfXJaPj1EHrNbWNO8xp5VL01GYp3b0x+jhc0jq/yvnq/VMJc0pUM2yPjL7Xr35WSKHP52yFvh+oMKeDYEZhLgvmFMiMewtksQp3i1xhTiteNE2WeAx4yG1VTn1aqXw5+7AGHDxWL99zBQCtqvgB+cVjP5MOz2ZMFaDUF/cv4oKBeo/Seml7rEle8tguk+PMBt9zVY/ogGYPFmhb7A5zmjm/2ib5cYlZFau4TDY/qEKW2k8kzGmmr9/7Dz5iVkQLdh2ipXp+Qa7D73rtKujjlQn6KpY8LN/S7z34kWeYy5WeIz6hTLsybFfbPATdDtCo0OWaCldzVdCx9ctoy7/JjTM9dtiwqlE6wKhlz6qQqSzJ6zJ4bL4VmMbU666/cdIKQPr3RStERt0VN9f+rNeq97SDTZUKTP8qpU/p3/WPV8QcgY9T/e6g+p1Tjet0jk1R281U25Wo7UZbviPXz5j1EQHOL8Ls95radnebK7z5MOc39tYuGWz3eL9kv8+CGSuny5IVBckrdJFwdluuvnlLej+0XzvjYbX9P9tTngy9OSYXPrQWY6gg+JPpMmfIqfJNNFOpGrGrRPFVpBj3bJD3Fz+gFnT16KQcvDxeeXpI/W6f+l2V+l2k+mPYVSEVVkY+lp9GVY/mqe3qZJ8KejLgV03T0jtOZ3++FTrnPDzez9n23cGP5fFS/Rp9zCfUMTvvo4655JOoimLk/PTncsFVVdPVrwdUYLICUWwVyqlO2c96Bk/Jr3vfMZ+Nrmb+iwrAdsCLq3IFvA5akPMbl951SFals3/vfZwRusn1mWVSrf6/YN/Rw7L1SI6HJJnqWdr7Tmc7KnRTEhW6HCssN11ddfDYvE2FGhOSNPUP6fVXXrefz53vUcUynf5lucxqrFChSIUNHdAiQawnJuyokGNCmQ5Q1mutZ5rab/t+GXxLV6rK5a5q9/+fDn6cRZt1mOuU6yogXtdNq+6QqLb7wmxXWB69P1u65+eiq3X6Z6oDIs78wWpqLSz3KtGZz02d+/UJCnNpG7otF395MxLmtC8/vCkXL9rLxaVhnMtOBRAdvJR3LzTLs64QoX302WFZd+FjtVQq3yr1rg71DOjgYJ5YdJ82tV3XzxOEuWzSAXKDdFhhSB/Ph76hRIcda1BFlw6g7mOLCTslT6hAaoc5HUyimkhvfCC/6jokr47oJw/ID32qZlbw/JMT5rRP5HeXm2Vj76D17PFSd5Uu8+ugpXx+GYhU6aKO3/GIPKk/tpE/yVuJ9nfptLyw0+6blvMwJ2XSsFYFLemW9rT2HXQ7TCUEuhyzmxT75cYrPlWk3gSBxAktc8tlrMUOWYkU1tdbgwR0lSm+GmYb6zxrAlZ0sAl2nCvlriX6p26OfU3mHvR46D5p1ms9pHl+USrsbVMfENErN6+pHx7B2fncRo+lUOnLidty9Y2bnlObfDl4Rwrs2eE0j42ckoN+faI++0jeVT9iBxt8NPgn64u9qvJf5KX7H5GH/Jofs6yqclPMPHSbpM2qXqkQNdieOEQm+71jRpn1fjJ40qfK9In8qlcHrPjPxTYo/znovR/nc5MZ94xvl8F1iJLq+WXixofynzrMlq6Mb3K+5yF5XP1IFKrvtLotG2Sd+qe189AxOWHWpSLodphaCHQ5VWX6lNl9xNJmQkuigObmhLK/dqYRjCwBj9OMMg0szfNzK1pmNx3fTLmTSY+MWYFuuRS5s2zlRpn1lPrcdFNvmseANDnBpbhW2qJCkvuhBxp4uGGPLH13pFQer9R95szr9SS/OQx4mh408OoFXRHzGOzh0vOlb0/+KA8V2yMvE77+ywE7mKnXLrJWpMm9XSbXwSXV88uME2Zjq4VOlfFj+XVOKrPpq1rfYA3G6Dt3XF44ZVamIOh2mHoIdDllmhTP2819nhI0HTqhJbWAlmIoc0JUv/tFwY7TaabVzbvXNid+ePVLS+/83IIF0NGuTvW/5TI9MuFTHg2EQHIq1D3b9XN59L1D8lP1Jf/uyKD06I7/JuB1PKiCnXlptlhNilHz0P1c1nUdll8lGjmK7PrshNXkXFVZJ982q/JlMIQfHcr2rZlt9WnbmkaftqDbYWoi0OWSqWBFh6doRWvtJsn4psMMq3ueVIBZbfexG+t3haiMjlMHO6/+cclkcn4pBFAvfXYYjRzvin+1BmyMvfXb9N4nDPRIWbOYE6lUjpwqk56aIiYkxT0SdZi/ofuHHVbhrlnW6de+167CnfqLKq1PPtFv0ApXDlTNuMcseXCqaiMDYrpRpsZru2xdh0ykdR0+kbcGdF/AB+RJ8xE9VPqgOq9BebU3cZU09+y7PuhQpitsqQ9QCLodpjICXQ45Fayo8OS2YpvMsvqgdcpf45r7TGhJ+S4IpklRquWuFdaKOIX1P7ICjO78f8O1v6DHOdZvt3cWPlZjV+88FK5Qwc0sR0v3/FycamG6ek/LX9VnZB+vCbf5NBAiy4rvNQs5USZfT9bsmag/VBIP3ZOg+nbjA3nW6WOWKBRZUjjOHIv0c/P9XMYHMfj1F/uaZ3r32S6D65A96V2Hjy6ftPr02VOYzJOnykqTD4ZwTPTEwhFl0mDu+mCNTE0jzAXbDlMdgS6H7D5tIkWNr0lp/UpXCKmSos37I9OEjLZ4THaboCnWj92kqPe3X2apIBWhpw/Rc8vpvmIeAx8CH6cZOSpzn7bmmnP3TSt09tm4R0q8AmaA84uzpF5mus7T3qc6DvM8ntOPbr4UmXCbPwMhsuW2DFmlmAKZv3aalLlD3b0FUvZwtkfHfiBvWwMpS+V7Dzwh33Z/SZfMk2/f466YjfeH+p41b1xs3zc91cYG6ajdMN60pulRoIvtudisZlX1vm4PlTwiLzmjTn37daVznDl24x35tXNs+nNxH4uetiQyNYlffzE935z5PM2axNsFvA5ZEfQ6fCAH9Yjd4gflqfvt5tZUB0PU1dtTlmgVa56UhgX2claZW3it03d9OJTG9CRBtwMU5qHLGWeOtX4VGMpN82K8bM+LVrT5NVNN8+Ix/1yWjtNP9Fx4LhnN+2aO2edYvee8s9l3pjD/usfNqTexUp+H7rZc/feb0vupWe2S/D2Ue6fJo9+dFjUh8Th7OpSsfm2owNXxWK26Kl7iZ/Afn3PNhx508PHh6Hno4u6g4CHZ3GZpHGfSeegSCLbtvKg55eJ5zbU2vk2PbnL23NZ/jrYg10HL5LOxpPn3Ms7MYWctJ3pdtAm/U4R1C69l0fdi9RE1p1zQ7ZToc0qA5ttJjQpdzjhNiu0yuHuXXD+vA9O4sfOvy/U93oMFtKTNoD5GD6r3bOk0za/GNT3p70FrfrnoMKdldpxyZr9c23NQRtU+3CLbeYU5Jej52XrkC3WsN9Sxuunbk+l9Jhqt6kzbYt0abLIOhPj0lryvAuHQUHTgG1HP9UTFWa8BWCNQdT82q/QSYY8GPRH3pfvR5War39urg4N2U6PDulVVuwpl8SFC3z9VD4jQN8b33s+h5BPVpnmcufWJ/CpyfmaVRd/6S30mpxJMnKunLflYb/uxFewceqLhnyaYcDfIdciKwNfBqe4paQyGONHeJZ3mn4q+o29nN8xp98XcWD9VQbcDDCp0uWLuCyqBKlA5FJbjzJapdr6YxJwKXZI7JUwiKd0ZApgiqNDlSGH1cquPWLAKVO6E5TizQt/CTE90PIkHQgCTVskT8sNU7gwBTBEEuhxxJvlNfeLbOyMsxxlIpWvAxApdmbPvOet7NwwAeUn3oXT63b3bO0FTqQAhQ6DLiYmYQ24ihOU4g6iSmT/YE7kFWWmjmUevxasfIYC8owdPmDtXtC22w5zuT+h1k35gKiLQ5UQGc6zlVFiOM3OpDJgAkEecSZE1PVAjhdutAVMJgyIAAABCjgodAABAyBHoAAAAQi6vAh3NrQAAAOmjQgcAABByBDoAAICQI9ABAACEHIEOAAAg5Ah0AAAAIZdXEwtrdVuapGmpeSLD0tf/ubS/fExOXDKrAAAAECXPK3SzpaJ8oTQ9v1rqzBoAAABEy7sKXZQFi6XhmVWyrnxYOp5rlVaqdAAAAHHyu0J36YL8vmvYPAEAAICXvB8U0dP3uVkCAACAl7wPdFUVd5slAAAAeAnJtCWfy1X6zwEAAHgKSaADAACAn5AEuoXStLdG6haYpwAAAIjI72lLLGVSt+VJqV86WyrMmr6jh2XrkVS3BwAAmNxC0+TqhDkAAABEy/8KXe1qadu0UKS/W5pfPisnLlGZAwAAcAvJtCXD0mHdz5UwBwAAEItpSwAAAEIuJIHubpnPCFcAAABPoRkUAQAAAG95H+i4lysAAEBiIRkUAQAAAD/5HegWLJb1a2abJwAAAPCSd/PQ1W1pkqal5omjv0t27DwtPeYpAAAAxuV5k+uw9J3rkuaXCXMAAAB+QnAvVwAAACTCtCUAAAAhR6ADAAAIubxpcm1raTJL6dnY2GyWAAAApiYqdAAAACFHoAMAAAg5Ah0AAEDIEegAAABCjkAHAAAQcgQ6AACAkCPQAQAAhByBDgAAIOQIdAAAACFHoAMAAAg5Ah0AAEDIEegAAABCjkAHAAAQcgQ6AACAkCPQAQAAhByBDgAAIOQIdAAAACFHoAMAAAg5Ah0AAEDIEegAAABCjkAHAAAQcgQ6AACAkCPQAQAAhByBDgAAIOQIdAAAACFHoAMAAAg5Ah0AAEDIEegAAABCjkAHAAAQcgQ6AACAkCv45hOrbpvlnBoaHDBLAAAAyAQVOgAAgJAj0AEAAIQcgQ4AACDkCHQAAAAhR6ADAAAIOQIdAABAyBHoAAAAQo5ABwAAEHIEOgAAgJAj0AEAAIQcgQ4AACDkCHQAAAAhR6ADAAAIOQIdAABAyBHoAAAAQo5ABwAAEHIEOgAAgJAj0AEAAISayP8HJSE9DnKCaRUAAAAASUVORK5CYII=;" vertex="1" parent="1">
          <mxGeometry x="520" y="830" width="628" height="236" as="geometry" />
        </mxCell>
        <mxCell id="E2l1j_wHfJeoJDgqapK--3" value="" style="shape=image;verticalLabelPosition=bottom;labelBackgroundColor=default;verticalAlign=top;aspect=fixed;imageAspect=0;image=data:image/png,iVBORw0KGgoAAAANSUhEUgAABQgAAASiCAYAAAD5kARSAAAAAXNSR0IArs4c6QAAAARnQU1BAACxjwv8YQUAAAAJcEhZcwAADsMAAA7DAcdvqGQAAP+lSURBVHhe7P0BbFT3vej7/th1Wk5JagxuiA3EZifHvcl9TWobByorbnZilMMjCd491whX6j1U5yIFSxt6iNgCFAmQKkDlwStsyUTibJWtPtUI39NCE8SOIO2NI14gxnZLzmtuOcm1TcATUsB4U3Jpw955//9a/zWzZmatNTNr1ozHzPcjTWZmzaxZ//Vfa8ZZP37//2/GM8+2fyFFcOP6NfMIAADcq44c7jaPcrN6TY95lG5G/D+ZZPWmokhqSYGb9UVE/yeX1szS6U4PduM8m1jS7c7QvIxtn5qdK51m6Q1ld8Jn3aSI2h7F99C/KR6vRNTusPLafFYrR7+DhW9zlBIbLMV2f5HhhA+/WbNmgdodJLJN5vxBefdWNIrU54nNRLjBArd9RlT/o5VENTrPdnu1Kt+u+CtzDwAAAAAAAKAMESAEAAAAAAAAyhgBQgAAAAAAAKCMESAEAAAAAAAAyhgBQgAohrqlsm/XcmkzT4HppL6zS/ZtaDDPAAAAANxrCBDmqKJjr8w7+HOpXGIW3MNmrrP3de66p82Swir29lAapvNxz/r3oHW57NvRJLX6cZ21BJh2ahvb5QhBQgAAAOCeNOOZZ9sLUbM5zY3r18yj6W3mup9L5RMxub3zFfnTx2bhvWjhapm79SWp0I+v/kqubz8id60XCqTY20NpmNbHvV7u375TZs3L8HugMwet4OCI9Kw5Kf1msa1aunatkpU1IoOHemTPGbM4jfO+CTm+rVd6x8zi1uVyZO0i88Tf+ImjsrEv8RvctqFbuhvNkxTjsQmJvXFK+s5ck1GzLFV961LpfGGRNNdUmSV6vRE59praP6dtLkHbS0jZN5f07U3I4IlB6eu76NHGBtl0uF2a1aPU/XbobLjdK6p8X4e3bPvtyOFu8yg3q9f0mEfpZsT/k0lWbyqKpJYUuFlfRPR/cmnNLJ3u9GA3zrOJJd3uDM3L2Pap2bnSaZbeUHYnfNZNiqjtUXwP/Zvi8UpE7Q4rr81ntXL0O1j4NkcpscFSbPcXGU748Js1axao3UEi22TOH5R3b0WjSH2e2EyEGyxw22dE9T9aSVSj82y3V6vy7QoyCHNSLxXz9P243L2Xg4Pax2flz1f1g5jc+e3Zwgdtir09lIZpfdwXypf078HVAbnj+3tQLV0v6+CgDn6lBge1a/Lu0IT1qKa22rr3VPeotNSo+9iIvOsRQItSbU2VNK9dJbt3LVW/eOmsINHapqTgoFZbs0i6d3Rbw1C91gurbYPX9lQbV7SrNgYP2a5d0VLEId2V8uLjS+T433bI75xb+3Ny4PEF8ph5RyE8VrlAfrj0OXt7SxeYpZk9tvBxOaDaF2/r3z4nx9X6QW0d7euVnmHdr8uki0xYAAAA4J5CBmEunGynCwfl6sF3zEIAZSmL34OsMq6cDMPYkGzectY7a8/JFBw+Lav3XzQLFWd50LoenIy+9KzFaqlvfVTWr7WHQ6e1O56xOKHWPaXWTbxmZ/npQJ5/JqDNJxvSg9N/dsbgKelTbbH2sa5BNr3crralHqfteyKDUPPq+8gzCCsflwMtDfKdB8zzNLfkp79+S34yaZ5G4MWlHfIjvf9usfPy5NnL5omfSvlh+9/ID/zaeismrw6ck9d922r6N+CcI4PQltSSAjeLDMIUJd3uDM3L2Pap2bnSaZbeUHYnfNZNiqjtZBDmIKuVo9/Bwrc5SokNlmK7ySAMkPMH5d1b0ShSnyc2E+EGC9x2MgjhrXa+NRTybuxeTx8EkFHG34MG6dTBrdiQHAgKQo19KAMxdV+zSL7tk5XVttgeRjx43hUcLIhrMnrmrGw8NGI9q62dY907nHaMn0gODmp6vT1bjsrmDEG/7Jn+UwYP9coeJziojV1U2zotg/pxTZN0tlpLkw2PWK8XPouwUn5oBQdvydt/OC+rf31Mnvyluf36vLx9S7/nAfnBY9ln92Xjww/Oy6vnze0P1kay8uJSExy8FZOfnv9Noq2//I39Ofq1wEDmRek7MeHf7wAAAACmpZIKEFYsfFruX7dX5h78uTXxv124YLU9P1kSPfeXel0XNTDrWO/f/orcv1C97LUsTb1VHCF1WzP1e5e8op7vTVuvosYqMSB3Y145E6ZN+nM6vAfYVajPnWveY9/2SmXH0x77F1Ye/WLts9Mu1227V/+7ubZpns/sUPvp+gxdfCLtM0JtL4/909leenm8namc4/eKzDRL8tpenuziF65zUG2rcrvZltmeda56CHee5fh9CNWfSujzzFZK/RL8e6C0PmLPgzf0YYbMPmeYcZW0POU1zLhBlljz943IOd85CiN2eULG9f1Dc1QP5OKajEY1BNr0nw6w9nnu90XZYwKZzS94DYf+yA5kySLp6AwYvp23SfnJwG/k1V+/Jet/f1k+cAfXJi/L+gEzT+L9X4t0qPEH6rNf/9jcbv3JLM1g4RKTdRiTV0+fk598nNRYef33b8mTvzwnr5slfkbfG7HOj+bFFCwBAAAA7hUlEiA0F+Fb18msJ2qSLtgrnnhJXZynBuvM3F/ylFSadSzzmuUrL7wS/xxn2awXUoIYVnBjp1R6bKty616pbLIu69PmGayoscazyb9aV85uOkihixWI3Dm8Va4fSw0H6Nd/LnPXNJs5DB01MvP5dTI3y+BIZuH7xQl2pLqbaV64hUvlK2qbVhaV06/Pq/00L2sVT6yTypSgabjt5XHcM2Z7OfPJXXFtP8/zLA/2uWafg1ZQTG1r5jyzLU23K21XQp5nYb4Pofoz7HFPKJ1+eUVmfUtvd1D+fM5ensrOtpuQgfcyD2F1Ai61TY+mB7qcQNnwRx5zGBZG/VOL7IrLn9xICm72nzeZhTorr8Bz0MWzFYMCrE4gs6ZKHrYWuDw0R6RvsDhZhJOT/kNyv/ZAjkHWwnlxvv1deft85iBgICfrtfGRIs7xCAAAAKCQSiBAqDON7ItwHXyzAmzrvidXrdtWmXxzUO6qC/lZ/9l1Eb/QDk7IE80y88JB+/2HrcFm6uK92ZoTzL0s2dPq4j5RNXVyp7Ot78l19X69rZlP6NeSAxu6nZ4FSqwggg5S2G2fPOcRHHRef1O1y7W9qzsPym1doGHeSzJrif3uvOTRL3ePvZJol+s9vtlRDhMokm/9nVjzsV0dVH261XyO6o8L1rukoiY5rSvU9vLYv4zZXs5nu497XudZPsy5ptuis96er5G7elvxc0f16+H/JnfsNxthz7Nw34dQ/amEPs8spdQv6pxw2qLfk6Za5j+k72/KlWwy6sZuqF8/xSPQVV8727oPHF5c0yS7D3dbc7+l3jblNAy0Wto6l8t6Z2hv6jbPnLSKVOisPF2Q5Miu5dLVWojsPKf/1F+F8SyGZ8tsme8ZsDTDYQueRZjusUpTtGSx/tt2S3468Hv5wH5piiyQZVZ8MCan9N8wd3GTnAuqOFmvfv0OAAAAYLqZ8gBhRcffWZl3+iL8+rpXrABb4oJ7VO4c26su6g/K5D8eSSx3glJ6nYPv2MvHzYW6e5nhznKauW6dPeTxwkG5uv1IUvXRu+fUtpxgT+qFv8mUkwvvJQIQOjhoBRFicnun3fZU9vZ00Ey9fky1yx1c/Pgd+dM//sraTkVNBDkmefRLKjsA5JUtmcwJFFXoLK43t6o+3av61OkHdfzesPcvk6y2l8f++Wd/Gl4ZcRH2Z26czMUWqVxTawfN9bbiH6/6NeVcC3uehf0+hOpPD9meZ7bS6hf7PEj5nYibIwusLpqQS/aCDC7KORN4W5IU0KuWbzfpYF1hhhc3r00NKK6S7hV29uD48OmUAia2/v09svmEnfGo501cuXaVWq9LNnVGW73YNiGXM9XcyGC0WFmEWuXj8SrGR579G/nRN+5X58B5Wf3LaAuU5OXWLflQt/PZxfKDGlelkgcekO98Y7EcyaESsh4WvyDaqRUBAAAATJEpDhA+LbOe11fR6gJeXYR7X2gr6kLefYHuBKXunEwPGrqXOe+LZyctXC2zrGwoO7gT5M5QyuspAQ89n9k8V3DwT+7AQ9zT8hW9PWmWyq3uuc9cNydLKQKh+yVNvczUwyevDiT1uxc7UKQ+33NodUJwoCi77YXfPyfzzP/zZ1rDaJP7JLr+zJGTfTevRu4e9g48Jwt5noX+PoTrz3TZn2eWEusXvV50QeHE8N2ked3qHpUW/RXLNLxYV5Rd02NVgU29eQX5goyrz+rZdlQ2uqslpxjtOykb1WdvPjQkg1YGX5U0r2iX3TpQWJCMwnxMXRahrvhRf/98eX5hpXk+hSq/JnayX43sfrZB6nW1YldBldXnY/ZQ7prFcsBnHk+30fGb5hEAAACAe8HUBgidC353Vl4WvLKX7IBE8jL7fYk5wiqaW+yL+oD5zuxgT3pGkzsIpOc+0/OZWYKCG0uesrOQiiRsv6Tznj8unTPsWn+Wd7Am3ueBgaLsthd6/5zsT9/Pd/bD63Oi6M8cOcHoN/WQdXtRoJDnWejvQ8j+TJfteWaUXL9kOq9zdOYjdRYprnndnLkAC1W9ePBQIpC42QqiqW7+5Ib0j2WeN1GzKxer9bedluPDev0qaV67KsdhzUGiyVArWhbh5O9lpRNw+7WuCqyDbjXyg8V/I8cfL4EgofbAA1KvsxpPn0uaN/GDj8/JyvNWtFe+M5+0QAAAAKDcTG2A0LngzykLx8kKcs8F6AQk3MvM+1zBByfg8+dBv4t6k9GUOs+g4qxbsfzn8bnPJt9UF1MB8wc6QYQ7h13znvncgrLvshO+X9KYwEpaFmWazAEeryBbmqy2l8f+ZTzPnP1wB3sj7M8cOUFI//M0WdjzLPT3IVR/esj6PLOVXr9EGBS2OMOME/O6PVyrhxfnP8w2G04QTRqbpSvXeeXGLkrv/t54kNG7qnAursmVT+xHNbUBWX9OhmXGuR6TswiLkf32gS5c8vtzsvL0b+Snt9RZ843F8sOpjBFO/ovYXRSTV89e9p4P8V9u2VmEWVRcdubGBAAAAHBvKIEiJTnyzDo0AYmk+QHN+3IK3PgFvJxgUY0VINIZTHro4Z1jx6ztzVweXIU4kvkFM4mwXzyzxrw4GVq+n+UVUEuX1fby2D8nUOSX7VXhtR8R9mdususzL9GfZ97fh1D96SHr88xS+v2S7IZc1slYXtV1A9jDjKuk5SkdFGuQJY3qLjYi72ZT6CRvThCtSla+HC7A51RjjkK8YrJXZWcjXm05i7ke41mEAZ9XGJPy5vgtdf+A/M38qYwQ3pL/SzcjUsUJXgMAAAAovKkNEJqCDxXP/0c7oOBl4dN2AMbhlb1kAhJJy3yznGrkS3Z8I0V9ojBB6oW/EwQSPd+gO9voHbkdkEV4N2ZfKld8a2nyPrhULKn3fS0nefdLgp1BlTkQ4wSK/DPAsgmkZLm9PPYvKIvRPVw8Yz+F7M/cZNdnbvmdZ7l/H0L1p4dszzNb6fdLMicDLscqr2aYsRXEan1EdE+OD31oZ3UVwWjfKTluBTabpNNjmHDbhgxzDC6osgN2UXCGXPu0RQdQO51qy2+czaKPTABUf95isygSlfLDpY8HZNxVyvO1djGQsVsBlUoqH5cD7XaBk8IMR3YClTWyzGeOwcfm11jB01H1tzm44rJTPCfLKt0AAAAASt7UBgg/Pit/vqofNEvl9ldk5kJXXod6PHPdXpm3dZ1UdiSWe2UvZbvsbsyeX2nmGr0t66GlYslqtf2dUmllCer3pUQsnCDQm/+QVozkblAW4TmTaTbvJZm7fXXyNhc+Lfer/Zu7ZqfvEOVc5NMvyZxMrWaZ5e73JU8ntV8LChRZnIBawFxu2W4v//2rkVkvuILNqv8rt9vDxe9csM+LMJ/tv72QwmQkhjzPsv0+eAeAc+vPdNmfZ5YS7JdMAdDkbMBsmWHGNVXSuVgP4ZyQgfeymw8wGtek9w1TLCV1mHDdUulotOcY3LdrubTVJe9Xfety2bd2kfU4u4BdJhdlzyHTlrW6SnJ1oj11DbJpV7sVQNUFWvqyLMTiZBE2N9rtjMJjj+tqwA1y5G+fkwMLK5MChY9VLpAftv+N/MCKD8bkVMAp8+JjDfIdU1S4UMORP/j9H+Rtdf+dxaqtjy9wtbVSXnz8OTnyDd2AW/KbKxlKLmdbPAcAAADAtDHjmWfbvzCPC+rGdZ+L3IWrZW5AJd+7F34lkwcTFWNnrvu5ukBPrhxsLxuUSXXBbw/9rJf71YX8rHnuZdrTUnnQZP+kuqre+9taqXxe0qoSW1lROvBx+HuexRGc162hx6lzCepqx05BEw/WXIYH38k+6OEjv35J5uxPquT9z/xZmfrNkc328to/32Ngf96dZr395OMeZX/mxLTV81wKEuo8C/4+3Fbfh1ke34cw/eklu/PMKKF+8fudSNcgmw63S7OuMLwl+4BZfWeX7DaZcVZ14qB1W5fLEROUCzR8Wla7qhK3beiW7ka7SEl6leNq6dq1SlaqQzN+4qhs7HP9dtctlU0vN0lz+mGLG1fbSq2A7Gwv2IQc39YrvSkZaTprsbvR9Eeq2Ij0bDmZEqQK7nd3/6btX0iPPb5Edn/Dzr7zdkvePv+WrA84X15c2iE/ivfrLfnpr9+Sn/jE6ZLfGyB2Xp48mzIGeOESOb7Yr62Z26k5feh9/ogcOdxtHuVGF8vxMyP+n0yyelNRJLWkwM36IqL/k0trZul0pwe7cZ5NLOl2Z2hexrZPzc6VTrP0hrI74bNuUkRtj+J76N8Uj1ciandYeW0+q5Wj38HCtzlKiQ2WYru/yHDCh9+sWbNA7Q4S2SZz/qC8eysaRerzxGYi3GCB2z4jqv/RSqIanWe7vVqVb1dM/RyEHx+R6+u2yuSFWPJFug5QHNZz/SWCgzogkz4PmVmWlFnkNxzxHZnceVBumwwny9WY3NHb2b7XvDd9yGOmTDkni9BzqPS5vXJVbfOO2o6bFfjUw5UjCA7m3y/J7h77B+t4JKg+elP1W1LQJvNnZcwwNDJvL8/9U8fA6/Ovr7MDPOlDXaPtz1yEzkgMdZ4FfR/+m4hPwZ7c+9NbdueZrXT6xf93Il1iSOv6zuyzCN3z+BVzeHFCIoswrervmK5afFQ2H1JtTO5S9XxEerYdTQsO5qtfFz85NCSDMbsAim1CBk+cls1pwcHM4sVYIvSBLkby6/Py05gp8uG4pZ7risG/zhx0e/2Di/K2mSNw9A/nfYODedPVij3aOnorJq9m0c740O4cMjcBAAAAlL6pzyAEUIJMFt3VX8n17e4gPXLjZON5Z8cB042dDRp8PpNBaEtqSYGbRQZhipJud4bmZWz71Oxc6TRLbyi7Ez7rJkXUdjIIc5DVytHvYOHbHKXEBkux3WQQBsj5g/LurWgUqc8Tm4lwgwVuezllEBIgLCF+Qy69RTisFZG4p46fM/T/wkG5etCvCA2yUrdU9u1okloZkZ41uWe8AaXCGVqcaWg2AUJbUksK3CwChClKut0Zmpex7VOzc6XTLL2h7E74rJsUUdsJEOYgq5Wj38HCtzlKiQ2WYrsJEAbI+YPy7q1oFKnPE5uJcIMFbjtDjDEl7KGZmK7uqeMXeXXmMjZ2VjbqIbmySLp1cQ+zGJhO4nM36jkmI5i3EQAAAEBpIYMQQBo7GzKbQhzIms4kfLlKjr12UvoZaoxpRgcI19cOZjXHJBmEtqSWFLhZZBCmKOl2Z2hexrZPzc6VTrP0hrI74bNuUkRtJ4MwB1mtHP0OFr7NUUpssBTbTQZhgJw/KO/eikaR+jyxmQg3WOC2k0EIoIzVy0y/AiUIT2cS6qIaBAcxDY329UZegAYAAABA6SBACCDFqPxp+/fkKnNcAgAAAABQFhhiDAAAIlOIIcYAAAAACosAIQAAAAAAAFDGGGIMAAAAAAAAlDEChAAAAAAAAEAZI0AIAAAAAAAAlDEChAAAAAAAAEAZI0AIAAAAAAAAlDEChAAAAAAAAEAZI0AIAAAAAAAAlDEChAAAAAAAAEAZI0AIAAAAAAAAlDEChAAAAAAAAEAZI0AIAAAAAAAAlDEChAAAAAAAAEAZI0AIAAAAAAAAlDEChAAAAAAAAEAZI0AIAAAAAAAAlDEChAAAAAAAAEAZI0AIAAAAAAAAlDEChAAAAAAAAEAZI0AIAAAAAAAAlDEChAAAAAAAAEAZI0AIAAAAAAAAlDEChAAAAAAAAEAZI0AIAAAAAAAAlDEChAAAAAAAAEAZI0AIAAAAAAAAlDEChAAAAAAAAEAZI0AIAAAAAAAAlDEChAAAAAAAAEAZI0AIAAAAAAAAlDEChAAAAAAAAEAZI0AIAAAAAAAAlDEChAAAAAAAAEAZI0AIAAAAAAAAlDEChAAAAAAAAEAZI0AIAAAAAAAAlDEChAAAAAAAAEAZI0CIzOqWyr5dy6XNPAUAAJju6ju7ZN+GBvMMAACgvM145tn2L8zjgrpx/Zp5dK+pl/u375RZ82Jy5/A/yOS5UbP8HtG6XPatXSS1sRHpee2k9I+Z5SiSaunatUpW1oiMnzgtG/sumuVTSAeMdzRJrXkaFxuSzVvOyj32DQAA3KN0gHD3iiqR4dOyen8J/H0FAACYQgQI87XkFZm3ptl+fOGgXD34jv24RFR07JW5z4/L5Lq9cscsy1o8EDQiPWtOSr9ZXArqW5dK5wuLpLlG/Y+9ZUIGTwxKX9/F9ABV63I5snaR9XDwUI/sOWM9dGmQTYfbxTqKaRcJToBuQo5v65XeHAOk6e0UGY+NyLFsg61JwbgSOQ5TGiA0x0PulWBkIgDsfW46fM5D17kdZPzEUdnYl/gNbtvQLd2N5kmK8diExN44JX1nrvn2b67nddD2Evy/Yzl9313f59T9djhBAb/XkSq/30GL63cjuN+jOH7V0tbZIh1Ni6RWfbdsPueM066A36+szpes988th3ZqIb/vjrz/HoXguc3hITl27GzyNuP95/93zvM4hF3Phd8DAAAAG0OM8zV+Re5aD2Jy+43SCg6q/+2Vmd9SVx1XnTbmQl0Qvqz/p1tfEOYalNIXk91y5LC6FWDoTtsG9T/za5uSLjhEqqR5RbvszjAUunmxR3taH7GDgxGzLjrS2inqQnCRdO/otoY11ZtlvsY+lIGY/XD8xEelEaQdOysb1/TI6vjttAyal5Cra/Lu0IT1qKa22rr3VPeotOgAgrqYf7dAF/KOWnW+Nq9dpb5LSz3Pz0jO6xzk832vXdFS1KkRHlv4uBxo75Df/a1ze04OPL5AHjOvF8JjlQvkh0ufs7e3dIFZWnrqn1pkBc+02qZHszpHQh2/uqWyadcq6V7hDrpp2Z0zYeW8f0VuZ7G/t9b/B3h+d9U2G5vUNrtkU6tZoKm/KwdO6N9C1R6v/29Q/bV+hf6cETnmDuKFXc9ltK9Xeob1+bZMuurMQgAAgDJEgDBfHx+R6+u+J1fXvSJ/+tgsKxkL5Uvz1F2IAGF95zIzrPVUztkibRvsjKhC0Bc53Y36f/Z1lsVR2ewEqbadlkEdSNMXOz6BDUvjI2kXXW2LM2dk5Kx1uZWRYLXz0FFXMK1HNh8astpa29gs3854MXJNerfY65XE8GJEbvS9ERlX94FBhQVVdvDhkxveWX06+8l1jqXe/LJidNZi8nvVd0qdn7o9UtMk6ztTgpYhz+v+/cnbOG4FvfU/PriXp2em5f19l0XSkboPBfLY48/JkcUN8p0HzALLA/KdbyyWI+2PRx4kfHGpHYQ88uxi+UFN0kZLULV8u0kdR3WeHtfBHHXcMv/2abkevwbZtEMHpNRDPS3GNvc5elR6hu1tL2mN+pzIdf/ybGeu3/fI/h5ly2ScOt9dtc1Ee9X+ndC/eVVp/2A32jdo/2OTaktqoK6tw87OHDyU/g+WYddz69+v/6GrSla+HPR7AgAAcG8jQHgvW/KUzFR3d4ZyzWxskE59MaEuQg7kONzGvqDXgUV10WGWRce0Sxk81Ct7VNviwZKxi7Jni8lkq2mSTndmgjE4PKL+qy+67Oe2Blmihz6q16JsrxN01AHWPWeS+3D0zFnVVnXBFHaoXlmbIwsKFHyeMk6WaEBQwTmfBs8XOkisvlPq/Nx4SH9XRGpr51j3juKe1/l9353vdFGyCCsfl93f0EG6W/L2H34jq395TJ7Ut1+fl7dvqcUPNMiRiLP7PvzgvLx63tz+oDdSwkwG7PjQh9JrBcSrpOWpDEG6EMevbYOZKkIH0LaclP4x9zl6Tfr396rz82jauZu3HPev2O0s+t+j1hbzj4Q6+Km+u2qbiX/YUPvXd1I26qBo2px/6ntt/fZUycoOV/Cwbql06L/Tqr/6PKdhCLue20Xps4K7Pr8nAAAAZaAEAoS6yMfPZd66p61nFUtWS6V+ftC+zd3+isxcaL3kSc+xN+/gXrnfec/Cp9X6epn5DL/1F9bLzHV7Za7zPvPe+5f4/9vxzHWu96bc5nZk/jfniiWvqP1xr7dXKjuelgrzup8KtU/3p7R17rrVHuul7LuZG3HmmsR6iZvqF+tVD2bIrb7Y8cxW8uNkKQyflo3vqf/PNosj4wwFzniR4D2UuGZ8wrrgTHrNfOageq241AVT2sWYa2i2x22fbyaNWS+eSVVtDcvc5153Q3BWRL06dvsCtq1v/tsPoa7BGn6W1EY9pM4rQJbUNnNhrS7idrvWjd+8hpgpeh6sTUn7Z1eu9O6T/PszN84wY7+gggliq4vtcxkvciNyecLOInxoTo776XVeh5TL9/0Fr+PxkX3BX4Qswhcfs8+l0T+cl/W/n5QP7MUik5dl/enz8rZ+XPMN+WGltTQSH6jPfv1jc7v1J7O0RJkM2Nj4NZGxG6Lj4ZmH4eZ4/JxgkM5Mfc1/ftLRpGBcRHLZv6lsp68Iv7f69/MF8w8aOmvP73P99u/MgJ1h3NgeH4IczwJ8I2De2bDruTjZ3J5TkQAAAJSBqQ8QLlwqX5knclfm20GwNS/JTD0s1qiY1yyVW10BwBQVNToMNS53PzbBwq3r1Pqu0JT+rJShv1agbutOqXyiJjnIprY1a81On2BfvWqLeejhbizofz914O7nat+aUz6jRmY+v07mbvcK9mkmiKn2aVZKWyueeEnmugOj2sL56vOzDMsFDDu2sw0mZOC9HC5Q1EWPrnZsZQwUqBJgfe1s6z4wcOkENjyGEovckMvWBUTiNfszJ+SyWinKgGb/eZOBpbNfIhu2lUFNlTxc12DPa9VohqQaes4nvznl7DneUufBKhydZXpkR7s1/CypjTVmLiyPYED4ttnBPnseLLPIoratLiR3H+7yn3MqZH+GETjM2AmUDRdvDsr4fGopQ5qLeV7Hs56y+b7rY2UtcHlojogZeljYLMIFssw6t2LyX38/aS1JdlkOWhl+D8hff81eUm7sY+kEuC/KuWF1l2kYbo7HL37ODg8WPTM7l/2binYW9e+RM19q6H/QuCa9b7gC/05Adfi0+Bdx0sKu5+Jkc3v+/wMAAMC9b+oDhLXzrcCXDnjNekLkzuGtZk4/ddt5UO5c1W+qkVkv2BmGyUzQTge7dNDv+Rq5e+GgXN9p1l+3VSYP/7fk6r36fTpQpx5a73W2pd57/U19KaLa8vzfeQQkR+VP2533Jm6TF/RrMflX6yrVy9NSeVAHLWNy501329RN7d9tvX/z1L4vsd+doDMr7SCm/vykftH7pdp6V/fLf3YFF+PzIeqb6ju97OqvXMtct+1HfAKE1TL/IX1/U65kffFiz6dU6GrHD9faww2tLA0/JntDZLbMT7sQumEytZxhxs68USPy7mX9PEJnTlqTnutt6aDXkV3LpSvjvFeJ+QaT5oiysmiyobfVLs260qhrnqnNJsvKc+hU6/L4HG/J65h56Kxjai+LpLqjey6sE6eT5tHS7bSCZKkTxau+dN4TL4iih+a51o3fUoLTzlya1vbcc29tO23mwauSlTv8igGE6M+wnPPWI9DlBMYDhxf7ZVSqW1IhgIx0VdXlZlJ/j22GOq/DcH6HMn3fnSI+Xt93zQwbVO0tWBZh5dfE2nTsirxuLbC55xz8wGT41T0QYQrhtOFM45AIcNsBqyyGGedw/Jy/D+PjN6z74slt/yJpZ67f96J9bxVnvtR8/kHDaa/az/VOsbRjWfzDY9j14pxsbr/fEwAAgHvblAcIK2pMXo4VyHpFJs+NJgJXH78jk//4K/v5PDuQmMwU4ZAWqVxTawfRDr5jZRPaRuWO+ryEp9X7rFwc9d7v2e+1nmlqu8f2yvU39dVmjXylOZvcICer0M5g9DJz3TqZKYMyuVPt2zF32xS1f38y+1dRk7y9io6/k1lW8NOjX/R+6bbuPKj6xyfQp7MJ9X3OBUrMHG+xCblkL8hAZ2jpYZ/qf8SzrnbcIJs8Lmy8bomLHSdgMCGXA4N5JkvQg55PzZnM3BpCZDIdsh1+lCtdmGGzNRm7UrNIVq5dpfapSzZ1Rl0t0kVPeK+LPbjmmRqNXxyqZqRUyo0Hnw6lruPMQ5c6Z2M+3EPP9JxyF5P6XbfT3mY2gYMs1DnVK/W5ac+DFTd2UXq3OMUyAoIPOfZneCbrKK2/TRA7dDZOsOa1qd85U1VVvTbuk3lT3PM60/c9M+c7X7Aswq89YO336L848wAukAO6eIi6HX/cBATVa/pcr1fvLTvONA7uYPOZj+xjkkW131yPX1pAWWe3J53j6hZh9m/Y/St2O4v1vXX+puSr/5j9j1RW9ngO2ZZh10tWJQtKtyA4AABAwZRAgNCKRsltv0DXxwEBLicINq9G7h62g2hBKjo6rHn37r65Vb3XXpbq7uCAtb2KGp8xzUkyVQl+Wr7yhL7Xw6S95gFUt60veQQ+n5ZZz+t+GZRJ30w/5eN35I5PYNLJzMy9QElunIrFVoCpyMO6wjGBmIfmSJs11MsEXpysh4iN6snYrawzu1KkvvBoXmEPbd0UeQbHhBx/zTtIeymPORYjC4I5Q8+CJozPIXCQUTyTxe8iMTEkzXt7helPP84wwKT5r5w+y5SN45dRqW5ZD68zxtVn6aqqGwOmCijueZ2vImQRuqm/S98xD8syIJgiefitI8thxpYiH78c5b9/IYT8vk+n7218KLaWw1yoYddzjI7fNI8AAADKzxQHCDNn4AUyQbCggJ+bE4z882BE+WImQHn3t2e9g3iminDOnMDnhfeSh0fnYGaTzmkIGvqcv0TFYl1t0SzMykXZk3JR43dLfO41ufKJvs/0L/uZq9xagZiaJum2CqoUZ143u1Kk2ic9tHVYX+yqC7O1q7yHgxWRczHUvDalQIiee8+aU1KdRUFDPHPhBOwChsfFi5BEID5nZdBQvqA57IrNBEeT5sg0F7uFql48eCjxXXOGstd+ciOlqqq/wp/X0WTyFDyLUIkHAz/+P+WnVjLhLXn7StRzF0w3ToGdRdKd8l3Xfzv08c0mWziX45f2DxpjZ62gmH2emykKIhN+/4rbzmSF/N7GA2whgnMJpoJ5bES1Tz1VfzOym84h7HoAAADQpjhAaDLwggJhAUNlnSBYdgG/LIORTtAxljliWdHcYt7rvX1n+LQezpw2B2DK7fox12fk0AZveQZes2L+R1ypXaGHKiVfHB2x5iRUGtvNMr953rLnZG0FZrTVzTHFRgLmUHQCMUqhAi++9NDW/b3xYIx39dUiig+XNXNTxY+fCdQNn/bP9kPEnGHGifmv7PnK8h9mmw0nCCONzf6FW/xEfl47/yCQ6fvuFETINGdqchZapFlCZvhwwqT85PQxefKXb8l65/c3bRhymXAK7ATILls48/Fz/j7oqSRCCfOPBCH2L+92RqkQf48i+EeX+s5mq18H3zgpvWbIsPWPWNar/sKu5xbVEGkAAIDpaGoDhCbDLigQNvMFewhu+lDZQgTB6uX+5fb/7gdXJbY5GYmZsvRS5xcsvCwCr77MHH6lkFGVwrkoDLqgTFSIDMoMvCjn1AWRHkpZiHndsuFUrS0N9sVhcntMEZH9yfME5sW5cBw+bbJkAm5bMswLmcP5GXgh7mQ1Zj3nZmElFzcw2Um6iE5Rhu87QZgqWflyuEBBlOe1M+Q6q+97FscvnoWWVUAqB5P/ItbhqZkvL1oL0j32wP3W/dgtryrH9y57+K2eA9TjO77GzAGa5TDcTMcvfu7lGuAOLGxl8yuQFWb/QrezgCL9exQvHBRySLgzd6wzFcXYWTlm/hEr8PPCruepOP8oAwAAUGqmNEDoZNj5BuOWvCKV1hx+g/LntCHEmeb/SzUqd62KyM3ylbSKwTZ3YZDbGYcsZw5Q3o3Z/8td8a2ldhakh4ol6nPM47hxe58qnv+P/kOUFz7t+5nxrMtQnMydTFX8MgwT3maq4MaDQRFUN3Yy/3yHDSWyGjNlBvb39crGLWcLNry4bUOGOZ0KNOdhzqwqxmJd4CaGt+lbehGRjDIF7ZwLx0gujDNXmcx8IZ4omjI+9GF0gdB8mHPcCoKY7KRitm2075QJanh/x4p6Xufyfc+q0JAJgOrPW2wWReKynLICIjXyvzlFSZIskHXf0MOPY3Iq6B+zKh+XA+0d8jt3cZNpLVOA26kYm21RogzHLx6YqpKVHbkU3nAKW/m1wxlGnBo0Crl/odsZXnH/Hjn7rX7HUivSu9U1eFZSbuuwRx+4v9P9++0h10GfF3a9ZE5RqEwZyQAAAPemKQ4Q2oNBZ675ucztcAe86mXmur0yL15xeG96JlzA0GM/d4asy021vb1SucT1v+ULn5b71fbmWoVBAgqmuC1cKl/JFKA8ZzL45r0kc7evlpmuuicVzjbX7JRZqQHLj8/Kn00ws3L7K2o9d1tN32xdJ5UdGS4tnuiQ+137aW9TtcM895OcxVRKnAwnPWxIXfB0VicurvSceVY1ZcXJIJgqdUulo9Ge02nfLj23X3I/1rcul31mfr9CVVDOlj2cqkoW5HWsnQtsnanhuuBVxyRpXkN14WgXBVEXxjv08VPvTXq9Wto6Vd8EDkd3huHaWW7J8yaq9d0XnPEMErM992v64nSXXWBHFxg41hfRPIt5c4obVEnnYn1sJmTgvWK2LVG4JW24YdHP64uyx6pqHd333clCa2602xmV1z+wg+n13/gbOf74AnnMXixSuUAOtC+2i5bErsjr1kJvLz7WIN8x0xjWf2Ox/HC6xwizCHA7QfxsszqDj586d18z/zDV2C67U89R/fuwwR6CmsxVrGiFnocv+XcicZ6lBAJD71/YdoY0BX+P4v/Q4P6tt17R1PdYb3NHu6xcmxK4M/9glf6ddmU3d7iKODnCrpcq26JQAAAA96gZzzzb/oV5XFA3rqde5NbL/dt3yiyJyV2pMdl46XQBkqT5+RxLXrECiL6v+5i57ucmK9FLTG7vfEX+lM2Q5Wy3b97n5+6FgzJ58J30IOPC1TLXs8Kx7e6FX6n1/AKZpm99+lTPiRhc1EVdFOliEep/tjdnGurpR12U7NPzEOoMwoBqqGHobIhudcHjSV3E9WxJyVZUFw9H9AVQUFt831PtCiQFUdt1Z0mq/d/0cpM0B6w3rrYVVCnWoYvB7F5RZRWD2egZyHLaqIe6eVeT9v0M5ziZp17GVZ8OvDEgvWf8A1XO56fx6HPf9zrU9nT1YN+q2IFtTjkOGY+fV5/l0Z8RSOqfTN9B57zNJOU4tG2wiyjoIiXpBYYSfeZ1voQ5r53tBfPu75y/7xl+v9z9G+Xxe+zx5+SIlSno4dZFWX369/KBeerlxaUd8qN4v96Sn/76LfmJz4jk5PcGiJ2XJ89GMVYy99/B4HPMYY5V0rHP8/hl/E2bUG06pdqUvF7wOZp+bobfPyNMO0N+38N+b/OT+bd38FCvq+8y/e769WXY9dI551bwMQUAALh3TWEGoTNE+Jhc375VJi/oQGGCFQDbmVK8wyXj8GQfdw6qzzw8aIYbG1djcufNg3J9XZbBQSXr7Z/bK1d3HpQ7ahtu8f3zCg5qHx9R7UnvF7k6KLcPb1XrBWU5jsqfVJ/eVuu63VXr6m1mrvicGMq1PswcQgXWrydVPzQi40m7N2Fd4GxOCxZMkTFdJfKoRzvVhZgOamxTF7aRXoyFNPahHLOqWPqrrVkkKzNUuBzt0xPdmyG9Dh3oO59eQVi/16memfx+M++hOoZBF3FWtU+1/qB6v5vu1+OHBlKO/zXp3dKjjsOQer9ZZDHny5rgC8ap4J4PbGqGPrszqlKqxk7BeW1/3/Xxcx/vxLmS6/c9XowlYh/8/i1Zff6ivH3LXYjklrz9h/MZg4OazkJ826w6qtbxCw5OD86w3JEM87wmMoKzzVjPePz078Oao9Kjf4+8vvPbdFAqPSjcv1//Tvivk/w7EcH+hWxnKFPy98j925v83R0fHlLbdAcHdXBumR1MHB70+U12Mort7HEnIzHseumcCshTPAIBAABgCk1dBqHJkJMcMwBLg5Ohl0PG4bST6V/lS0M8m0RdUPlmB8KHOcYSlKWmh7utsjJlCpEtBwDAVLMzQkv7/3cAAAAKbcoyCCuaW6zhs7lmAJaE+PyDA3LnngwOas48SXoOoaA54aZWPJuksV32bSjOhO/3DDPfUnCW2jW5NB6cYQgAwHSl/6HR/kewUwQHAQBAWZu6AKFVoCQm/5o0xrDU1Mv963SREPNUqViSmBvw7m/PBgzzvQfoIVB6SJIskm49ublZXFrs4UP6NKrVE74f7pYj1q0ry6qF0BUe9cT8qcHVel3IY4Mz31cpFfIAACB/7lEIZMgDAIByN0VDjJ0huoMyuc6jQnGpCCowcvVXcn17FtWO7wV6MvWXq+TYayelv1T/dV0HszqaZWW8mAFDhbKRVfEIPbdfUNEQAACmIR0gXF87WBpzAgMAAEyxKQoQPi2VB9fJzGkQZNMZg7OWvyQznYrAuqDJb4/J7WM+xUWAaaa+dal0vrBIamqqkipqOtWL3z1zbQoKZQAAAAAAgGKZuiIlAAAAAAAAAKbclM1BCAAAAAAAAGDqESAEAAAAAAAAyhgBQgAAAAAAAKCMESAEAAAAAAAAyhgBQgAAAAAAAKCMESAEAAAAAAAAyhgBQgAAAAAAAKCMESAEAAAAAAAAyhgBQgAAAAAAAKCMESAEAAAAAAAAyhgBQgAAAAAAAKCMESAEAAAAAAAAyhgBQgAAAAAAAKCMESAEAAAAAAAAyhgBQgAAAAAAAKCMESAEAAAAAAAAyhgBQgAAAAAAAKCMESAEAAAAAAAAyhgBQgAAAAAAAKCMESAEAAAAAAAAyhgBQgAAAAAAAKCMESAEAAAAAAAAyhgBQgAAAAAAAKCMESAEAAAAAAAAyhgBQgAAAAAAAKCMESAEAAAAAAAAyhgBQgAAAAAAAKCMESAEAAAAAAAAyhgBQgAAAAAAAKCMESAEAAAAAAAAyhgBQgAAAAAAAKCMESAEAAAAAAAAyhgBQgAAAAAAAKCMESAEAAAAAAAAyhgBQgAAAAAAAKCMESAEAAAAAAAAyhgBQgAAAAAAAKCMESAEAAAAAAAAyhgBwijULZV9u5ZLm3kKoHTUd3bJvg0N5hkAAAAAAEhFgDBfrctl344mqdWP66wlAEpMbWO7HCFICAAAAACApxnPPNv+hXlcUDeuXzOPSktFx16Z+/y4TK7bK3fMsqzpzEErODgiPWtOSr9Z7GfBI7Nl+ZOz5JuV95klIp9euilvDt+UgRtmgfbIg3Kg7avWw/f7R+XQR9ZDl1my9gdfl2/qh5f+KOvfum0tTTNntry6crY8qB5+emFcfjT4F3u5h5bn6uX7D/ttT4m36TP52U8/lQF7aVJbg2TafijZ7p/zvsmb8uNf3JTLZrHbgub58vdP3Of6HFcfZ8mr79KP+efy/oWbcnLwdno7IjjuOW0vRdbnZxQeUz8+T6nbHPNc+eI9dTtjnqSY8V/UTT9Q7/k3r/e0ivyV+jy/13UW4e4VVTJ+4qhs7CvN3yIAAAAAAKZKmWcQ1svMb9WIXL0id82S7FVL18s6ODghx7dlCg5+WV58br78fdvspOCL9uDDs+X7K+fL2kfMghTfrJ9lHrk8MiurwNWCRbOs4Jn2YN1XZYF5nDMdYLMCV5/LqeOu4OAUi2z/CqTF85jfJ9984uvy9999UFrMEi9hjnv47YU/P8OY8ZL64fkPycFBTQcM/+o/mUCgHx1UNA9zMdrXKz3DIrUrlkkXmb4AAAAAACQp8wDhQvnSPHUXIkBY37lMVtaIjJ84Jb1jZqGnL8uL362VZQ/rwMvn8n7/uPz4p6Oy3rqNy88ufCaf6iCOV0BIe3hWWmCnpT5zxp7ebmOd2ubkTTl14XORylnSmBKQyc4sWWuy9N7vvyKv+2WS6ey8+H6l3yLPHoxs//zclkNp+zEupyb1azpQmvpacsafzkj8vnPML7iO+fE/yvv6Myq/Kt//7mz/oGaOxz389vI8P3PVKjLDBBt1xuC//b/N7f+jnutzSx3DGf/Jft3PDPUZYfTvPy2DUiUrX14q9WYZAAAAAAAo9wDhkqdkprq7M/SO/TxrDdK5okokNiQHMg1XfGS2LKvUDz6Tnx2/Ioc++otrqOdfZGDwU/nR8XHP4aLvX/pM/fer8q2k7K1Z8q2H1Z167X17gbc5X5Un1XY/HftMXh+5bQV5nlz0ZfNitnTwyB7Sqofeeg49niqR7F+hzJLlT+iAmx1UPTToOuY3bsuhX/zRPnaVs2W5R2Ze7sc9j+3lcX6GobMEtS/+OWU48R/V839SN/1YBwkfs5YmU+ef9XrILEKRi9J3YkKkpkk6QwYZAQAAAAC4F5VMgLBiyWqp3L5X5h38ubntlbnrVsvMheYNASqWvCJztzvr2etWdjwtFeb1hKeTt7Gm2Vo6c417Xef2ihU89NT6iOg1x4c+lFF7iY8vy4tPOnPKfeo/j9sN7+y6eTf/YgV2krK3zDDT99Vrgaq+bGX9XdXvu/G5XFWPcx2G2/JcrR08uvTHAmQA5imC/SsYZyjw5E056RlUvS2H+nUQUB3bJ9Oz+nI+7qG3l9/5mTM976C+V9v54gNrSRodONScQGIqnXWohc0iHH1vRMbVffNiCpYAAAAAAOAojQChDvCteUlmzqsxC7QaqXjiJanculcql/gNCNQBv5+rdZulQg8VjquRmc+vk7nbVycHCRfOV+9zbyNAwLDjtsWL1H8nZOC9DNmDJstNZ2f9NlT23efyiR4e6hpuumC2PRT0k5siSbucwh6O6mz3tvz2krrLYRiuPWRVPdBDhyPKHotSvvtXSM5QYJ3d6FsYZOIv8qm+r/yyOltT5XbcQ28v7/MzNzP+vXnwobn34nyldBaheRhXpW5n8swiHPtQBmLqvvERabOXAAAAAABQ9kogQFgv9y/X+XgxuXN4q1xd9z1z2yrXDw/KXR3sW/N3cn9aJuHTUnlwncycp9Z786Bc3+msp247D8ptnVI27yWZtcR+t+XjI3I9/vkH7arFV3/lWua6bT/iEyCslvkP6fubciVw7kHFZLnJpdshC3t8LsNjn6t7Z7ipM+/ebRme0M/9OMNRE9sdGNUZZFkOw33kQauir2Xyc/+gk1vlbPn7H9TLAY9blAUubHnuX0F9WR6ygm4mu9HPjc/kd9Z8hvfJQ2lBzVyOex7by/v8zJEO8CnWXIN+9FBj5/Wvm/sU+WURXpN3h3Qnzpb5FCsBAAAAAMBSOnMQXh2Q2+fcA3ZH5e65vXJ93VaZ3PmK/Oljs9iYuW6dzJRB67XJY+/IXffrH78jf/rHX1kBvooan+xDnU2o73MuUDJHFugUrNiE6KS1IHbWV3gPqvUvD95MDDc1GV/v/+5mcNDOGY466sr8++i29TkZh+HOdioWGw/PlhdLICsvST77VzSfyyeBQVx/4Y577tvL9/wMLUPibUb5ZhFaqmRBaZwoAAAAAABMuRIIEI7KXZPtV7nuaalIyxQclTspwUGdPfiVJ/R9s1Ru9Zo/UN22vuQxB6FLrR0gzL1ASbE5w2fvk5ZFs+RBZziok/3lIXn4rSO7YbjffMKpWDwqP9bVgeU+WdaYRQXbgCrGURc3yWf/po/cj3s5ySeLcHT8pnkEAAAAAAC0ksggvHNwq0xeiEnFE+tkrhXw8ysyYpjqw/mY2WQPa/5XXbGgQC7f1AE2pfK+vLLarOGzlbPl+3rYb8bhoGb4rXxVvp8y1NeaUzCLYbhOxeLLg3+UU9ZceF8vwDDhsPLfv+K4Tx4yQ2rDyu245769qM7PnFWb+3xEkkUIAAAAAAC0EhliPCp3Dr4iV3dulck3zbyDusiIFShMHyJcUVNr3d857DF3YMrt+jGvOsP1pqjJePLQ5KgFFqLIgRk+qyUNq/XiVLQNEDgMN6li8V/k9d95Vb+dQvnsX77HISt/sQuMKPNmBwQq4wVCPpdP/Obky+q457G9qM7PbJkh0DOCMjy/7nr9j+beR1IWYdC8hinqa2ebRwAAAAAAQCudOQi1j0flzjE97+D3rEIjd67qQKFXgRKb7/yCGS2UL+kA4YX37EIlObkhl3UV1JoqsRLWgsQLQ3xVnm/OJ6vttvz2wufy6eTNjNVm7eG3n8up417DfcftjMCAYbhpgaiPbpp1ZsvyEsgiDLV/Nz4XPYrdyrLz2e8aMx9fYKGPLNkFU4IDsQusYcPK5F9En07esjvuobcX2fmZnS/+h3nwqLn30mDub5gMwSBOFmHQ5/makMtZVd8BAAAAAODeN8UBwqfteQfNsyQfvyOTJwfVgxr5kp0wGHc3Zo8LrvjWUt9hyBVL6v2HKDsFSkK5Jlc+0ffZVEH9i6lGK/LgE1/3L/YxZ5a8+EhwgGZg8Ir86Bc3sxterKvdemZUOe3JZRiuK4uw7UFpsR5NlbD797nJsvPbb2fYcvjCIkmczD/foOosWW6qRGcqOJPVcQ+9vejOz6x8YAJ6ajszHrOWpJnxlH3vZAdmYr1Pf96/t59nVi3fbtJjsbOoQg4AAAAAQJmY0gBhRUeHzNTzDm7fK5WpAb2FT0vlcj1PoIdzJvNv3ktq3dUy05VhWKHWu3/dXpm7ZqfMWmIW+nmiQ+5X23XY66rPM8/99J8fUf+tkpanMk+mFp/HT+6TZSvny9rmWa4sry/LgkcelFdXfl2WtQUEaLJlht9+OvaZb9Dp8shta1hpTtV+P/pUfmaVbC5Oppmv0PuXCHI++EStrHUHu+bMkrXf/bo9bNk38Jir23Ko3wmq6mOujrP1TEna3k05mSEjNDvht1fU81P54p/t+xn/wQwNduihxf9J3fRjnT34gbU0M5NFOCPb7Na6R6VFj6ce/kj67SUAAAAAAJS9Gc88255xJF8Ubly/Zh4lq+jYK3OfD5gB7cJBuX7wHblrnsYteUXmrfEJICp31XqTXutZ6uX+7TtlljUPYTo9t+HkOfPEU4NsOtwuzbEh2bzlrHjNcpjsy/Lid2tlmTUHnJfP5f3+K4lqv488KAfavmrNB7j+LZ+55zze0/KcXahDVyD2rxw8S9b+QAeM9DDdK/K6CYhlXHfObHl1pa5w/Jn87KefJjLanHZkErQvWcpn/zRnfW/p70/nHMds3qu3N19tz87cSzOp+vEXrn7UQh53R87bi8vx/MzTjJcCAno6OPhPdtDPbcZ/UTf12r+p19K0ivyVyTyU99R7zpjHHuo7u2T3iioZPNQjewLeBwAAAABAOZnyOQjvHtPFSQ7K7QuxpGDe3asxuXN4q3dwUDu318xTmDyD290Lv5LJnd/zX88yKn/avtXaptvdq4PWusHBQe2i9J2YEKlpkvWd2ZRk/Yu8/otR+XH/TXl/0lSOtXwun166KT87HkXwxRkm+1mGeQpvy2+tbMAcq/3euClvmizC7z83y1pUXPnv38Bb+hh8Jp9aGXMOfQz+KD/OIuCXq4G3rnge8/cvqO35BuvCC7+9YpyfCV/8SuTf/lndp/S3Hi6sA4A5/4uFMxdhRg3SuaJKJDYkfQQHAQAAAACIm/IMwumrWrp2rZKVNRNyfFuv9DKfGVDS2jZ0S3cj31cAAAAAAFKVVhXjaeWa9L42JONSJSt3LJc2sxRA6dFDi7sbRcZPnCI4CAAAAABACjII89W6XPatXSS1sRHp2XKSwgdZWNA8X/7eVNXNLGXOQyBHzryDMnxaVu+/aJYCAAAAAAAHGYT5OnNSNm7TmYRKnbUEQIkZJzgIAAAAAIAvMggBAAAAAACAMkYGIQAAAAAAAFDGCBACAAAAAAAAZYwAIQAAAAAAAFDGCBACAAAAAAAAZYwAIQAAAAAAAFDGCBACAAAAAAAAZYwAIQAAAAAAAFDGCBACAAAAAAAAZYwAYRTqlsq+XculzTwFAKAU1Xd2yb4NDeYZAAAAANgIEOardbns29EktfpxnbUEAICSVdvYLkcIEgIAAABwmfHMs+1fmMcFdeP6NfOotFR07JW5z4/L5Lq9cscsy5rOHLSCgyPSs+ak9JvFfhY8MluWPzlLvll5n1ki8umlm/Lm8E0ZuGEWaI88KAfavmo9fL9/VA59ZD10mSVrf/B1+aZ+eOmPsv6t29bSNHNmy6srZ8uD6uGnF8blR4N/sZd7aHmuXr7/sN/2lHibPpOf/fRTGbCXJrU1SKbth5F1f8b7IaXtLgua58vfP3FfcjvDrhcBz32b/Eze/D9UO9z75j4XsuR7jLM+XxLb9Hufd798WV78bq0sqzRP4z5X+/a5/O53N+X1j7LowxDntRe9zau/+6OcVNu8bJbZImpnDsK1U8nz+5d+nn0u71+4KScHb6dvy+n3yZvy41/cTH9d8fs+BO1fwudy6vgVed11fhe3X4p/3OMeU3+Mn1K3Oea58sV76nbGPEkx47+om36g3vNvXu9pFfkr9Xl+r+sswt0rqmT8xFHZ2Feaf5sBAAAAFFeZZxDWy8xv1YhcvSJ3zZLsVUvXyzo4OCHHt2UKDqoLz+fUhXPb7KSAj/bgw7Pl+yvny9pHzIIU36yfZR65PKIu6M3DIAsWzbKCKNqDdV+VBeZxznRgwLrY1hfw3oGy4sqxP2/clMMXPlcPvirff86jP9X+rXlCf85n8qY7iBJ2vTxZQRavfatU7VhZL6+qtoQ+lgHCnC8PPjFbWszj8O6z9m1ZW60c+O7sjNuN6rx+UPXvN9U2/z6Lbdpya2dUcm9ndlo8v0NqW098XW3rwQiOa2EVql/SFfa4z3hJ/SH+D8nBQU0HDP/qP5lAoB8dVDQPczHa1ys9wyK1K5ZJF5nvAAAAAJQyzyB8WioPrpOZFw7K1YPvmGXZyT4Dw52V8rm83+/OePmytDTPluef+Ko86M4ETMp+Sc9eS8qq8c0gNNuVm3JqbJYse0LSsnPcnM9Mzy5LZIt5Zp45bQ3IKopWiP60OPvhn6UUnK2Z63ohxY+9vW+HXBlLdraXDuiktyWZ00eZ3ueWy/mSnLXolZ0WnEGYck7PUcdtkTlu+nnguRTVef1l1Z9flTVtXpmIUbQzN+HaqYT8/jnHxzrPLqjvkPpMa9056tg+o46t/n6lfmYeGYTJsj8/i9svxT/u8Uw/JSlj8Ovqj/P/U9100FD1z7/9k73YEc8g1LyyBDNkENoaZNPhdmmODcnmLWdl1CwFAAAAUJ7KO4NwyVMyU93dGcotOKgvrDpXVImoC6sDmYZnPTJbXXDqB+qiU10M64BP4sLyLzIw+Kn86Pi4Z5Dv/Uufqf9+Vb6VlF04S76lLphFvfa+vcDbnK/Kk2q7n459Jq+P3JZP5T55ctGXzYvZ0hfMdiBIX4BHFgTLR+j+vC2H+nV/3ifLGl3ZgHPUhb/uT3XRf9Jz/8KuF05LvR0Y/vRCcnBQu/zRTTn0i3H5cYagSihhzhdzDuadRXjDOW431XaVytmy3CejNprzWlPnjerPH1nHVu3D7ORsTU+5tDMyIdqZ0SxZbgUHdeBNfYec4KB2Q53vv/ij/dtSlP0LqxD94qOAx11nCWpf/HPKcOI/quf/pG768Rz1vsespcnU7471esgsQpGL0ndiQqSmSTpbzSIAAAAAZatkAoQVS1ZL5fa9Mu/gz81tr8xdt1pmLjRvCFCx5BWZu91Zz163suNpqTCvJzydvI01zdbSmWvc6zq3V6zgoafWR0SvOT70YYasiy/Li0/aAZ/3+z9NmTvORV2Aepl38y/WhXrSMGMzvPh99Vqgqi9b2S5X9ftufC5X1eNch2O2PKezadSDS38MyAYqpvz6Uz66Kacm1f3DX48PQW5ptDOQ3v9dQEZQ2PUK4i9yOergoBbqfLktJ80Q7OebwwTpUsSHdKtz/kmfoZwRnNdJJv5igj73Zf8Z2bQzamHa6ceZoiBjUNxnioNSEmW/ZBL1cdfzDup79X3+4gNrSRodONScQGIqnXWozQgZ4Bt9b0TG1X3z4gZ7AQAAAICyVRoBQh3gW/OSzJxXYxZoNVLxxEtSuXWvVC6pN8tS6YDfz9W6zVIxzyyy1MjM59fJ3O2rk4OEC+er97m3ESBgXsK2xYvUfydk4L0M2YMm20lnu/02VJbZ5/KJFZiaFc/QWmBlyqjlN0WSdjmFnYnmbPe2/PaSuqucJY0p81z50UMF9dA+azid5xDmKZB3f/5FXv+dCXzoC3wnC/CSztazFvsIu17uBkZNRpTOysvyWEUh1Pmi564bvBlNFqFx2coKVCq/rL7F6fI9r1PF5zOc/DynQG+mdkYtbDu92L8hdham72c5gTfXb08pirJfshHlcZ/x782DD829F+dPjM4iNA/jqtTtTJ5ZhGMfykBM3Tc+Im32EgAAAABlqgQChPVy/3KdjxeTO4e3ytV13zO3rXL98KDc1cG+NX8n96dlEpr5A+ep9d48KNd3Ouup286DclunFs17SWYtsd9t+fiIXI9//kG7avHVX7mWuW7bj/gECKtl/kP6/qZcGbMW+DPZTnLpdsjCHp/L8JidoWUPM/6yNNapi/vJ2zI8oZ/7cYYhJ7ZrB56yHI75yINmfjIl2wvvytny9z+olwMeN78CLDnLuz+Vjz6Vn1lBpdmy5hmdBfi5nBrOIgAadr1cOdtRx1wXJDnw3QflxUciyM4LlM/5EnUW4WfyOx0UV9t+KC3ol+d5nUTPV/mgKTIj8v5ojscysJ1RyrKdOXz/akyA0MrC9GOyMwu/f2FF3y9ZifK46wCf8kVQRrAeauy8/nVznyK/LMJr8u6Q/mMyW+ZTrAQAAAAoa6UzB+HVAbl9zj1gd1Tuntsr19dtlcmdr8ifPjaLjZnr1slMGbRemzz2jtx1v/7xO/Knf/yVFeCrqPHJPtTZhPo+5wrGc2SBTh2JTYgVxwngZOqEpefVumwytKyhfiaDLuOwVmcYsvui+aPbdqZXpuGYs52KxcbDs+XFEgkQ5NufjoFhey6xB63h0zezns8v7Hq5GnhrVH584TOTqWSqp/5gvqxtLkz14rzOF8U5R6PKIrTdJw+ZAEpcHu38ZltqgKhWvm+KTnyaVyaoRzvzULh2Or4sD1lZuJ/LJ4H/yGCyl0tE4fslVxEe93zrd+WbRWipkgUF+XEBAAAAMF2UQIBwVO6abL/KdU9LRVqm4KjcSQkO6uzBrzyh75ulcqvX/IHqtvUljzkIXWrtAGHuBUqKzRlGeZ+0WMPpzPBKJ5vOQ/IwTEd2wzG/+YSZW69fB6l0ZlhKcQ4/eijyT0dlvcet+BfvweLDErUc5i4Lu14Yl3VRBNV3P+6/Ke+bjKVvPvF1+XsdKIw4ozCf88UWcRahj/zbmexTdc7+7Pi4/KhUhtD7yKqd0+j7FxX6JSGfLMLR8ZvmEQAAAIByVhIZhHcObpXJCzGpeGKdzLUCfn5FRgxTfTgfM5vsYc3/qmdoL5DLN+0J7fMNJlnDKCtny/f1cLqMw2vNMEw9RDUp46benlNQMg/HdCoWXx78Y1pxjqkUTX+aCq6Tn8kpK7CUbUXSsOvlx65cPCrrj6tjcckO2H6zrTbC45H/+aJFn0WYmuGWXzt1wNsJDNmBb9XWyc9lwK+gTdYyZeLlpnDtdPzFZAZmyoBTr1uZhqWh8P2SqwiPe7W5z0ckWYQAAAAAylmJDDEelTsHX5GrO7fK5Jtm3kFdZMQKFKYPEa6oqbXu7xz2mDsw5Xb9mFed4XpT1GQ8eWhy1OIVNvOc0N4Mo9R859pyOBVKAwQOx7zkrlicUpzDejSFIujPBc2z7WGqv/tUXjdDhr/Z9mDGoFbY9SJz47a8/taVeHAksuOR7/kSl5xFGA/m5ipeiOZz+cQ9hDuydiaCmXkNn/drZ4QiaaeHmDk282YHBH7n3GeKIHnsX5EKs/gpVL9kJcrjbgKMM4L24euu1/9o7n0kZRHm0Lb62tnmEQAAAIByVjpzEGofj8qdY3rewe9ZhUbuXNWBQq8CJTbf+QUzWihf0le/F96zC5Xk5IZc1lUfa6rESlwKEp/QPt+hl7fltxc+t4bUJQ+vTGcPw/xcTh1PZNwkbuN2RmDAcMy0AORHN806xcmYC5Rvf86ZbRc1UP14UvfjjZvyps4GzPR5YdcrgHgV1Yjke764xbMIswzUeYkP407JlI2ynYlg5n2y7JlwgVa/dkYr/3Z6cYK3QcfJc/+yKFySVQGUvBWmX7IR5XH/4n+YB4+aey8N5v6GyRAM4mQRBn2erwm5XIwy0AAAAABK1hQHCJ+25x00z5J8/I5MnhxUD2rkS3bCYNzdmD0uuOJbS32HIVcsqfcfouwUKAnlmlz5RN9nU/XxL6YKsboYf+Lr/tkuc2ZlrFQ7MHhFfvSLm9kNL9ZVjj0zSJz25FL11ZVFWMyMOU/59WdLo5lf0VXkZeCtP9pBrYDPC7teGC3PZZhjMGDuydxFfb6YwI0OJoeJ3TuBWCU5UB39eR0fPh8m8O3bzujl1U4/Tkay72ea4fRK8v59Hh+e7N3PzjBw9b4Ih117KUi/ZBL1cf/ABPTU78eMx6wlaWY8Zd872YGZWO/Tn/fv7eeZVcu3m/RY8yyq8gMAAAC4p01pgLCio0Nm6nkHt++VytSA3sKnpXK5nifQwzmT+TfvJbXuapnpyjCsUOvdv26vzF2zU2YtMQv9PNEh96vtOux11eeZ5376z4+o/1ZJy1OZJ4+KX8jqbJeVqZVovywLHnlQXl35dVnWFkGgyQzD/HTsM98qx04GWk5ZXh99Kj+booy5VKH7Uy235qpzsgDjXNlIXsVYwq4XxpzZ8vzD9hyDr373QWmZk9zX1r6ZCtMZK1lnowDni5NF+M2H7XZmRe1nS7M+bnYgVg9zTyogUZDzOsTw+UztLIhCDPN3zl0d9NffIfW9sZ4pc2bJ2u9+3R7OnXbOJ9ry4BN6HkzX+Zm0nl8gN0pFnP6ggMf9i3+272f8BzM02KGHFv8nddOPdfbgB9bSzEwW4Yxsg6Z1j0qLHi8+/JH020sAAAAAlKkZzzzbnnHkUhRuXL9mHiWr6Ngrc58PmNHqwkG5fvAduWuexi15Reat8QkgKnfVepNe61nq5f7tO2WWPclWGj234eQ588RTg2w63C7NsSHZvOWseM1ymOzL8uJ3a2WZ76T/n8v7/VcSF52PPCgHdCBIXYiu96vQ6fGelufsgg16Qn//C1h1If8DfSGvh2tekdfNhXzGdefMNhfIn8nPfvppIpPRaUcmQfuSsxz7M/7+5H1O8O6T8OvlQfXz2mdmyzd9903kU9WXwZV3M7XbFv58Mcsmb8qPf5EeqFzQPF/+3mRa6YI3iTktMx03vW835fBbyZ9ZuPM60Z4o2pmPcO1U8vj+6WzV7z9sH6c0k+p7/gvX99zFaas373MueB1H+rrF7ZfiH3dtxksBAT3VF1/8kx30c5vxX9RNvfZv6rU0rSJ/ZTIP5T31njPmsYf6zi7ZvaJKBg/1yJ6A9wEAAAC49035HIR3j+niJAfl9oVYUjDv7tWY3Dm81Ts4qJ3ba+Yp1BMCJty98CuZ3Pk9//Uso/Kn7VutbbrdvTporRscHNQuSt+JCZGaJlnfmU0Jyr/I678YlR/335T3J+3MHdvn1gXnz9RFsX/gI1vO8L7PMsxTeFt+a2UD5jLMWHHNu/f95yLKmAstt/5c0Px1+6JfveYdLLsth/p1NlLynGZh18uL6udDvxhX+/aZfGplSiZ8qoM2x8czBAezVbjzJV5EImt6fk1n31KDL4U8r90ZcdlUXw5qZyHl2s7sDOiiN2nnmf4O/VF+7BMc1Abe0t89n/U8goOFU5h+SVfY4/7Fr0T+7Z/VfUq/6eHCOgCY87/gOXMRZtQgnSuqRGJD0kdwEAAAACh7U55BOH1VS9euVbKyZkKOb+uVXuZvAjBNxbM+PTINcW9q29At3Y38/QIAAABgK60qxtPKNel9bUjGpUpW7lgubWYpAEw38azPh78urz7nntcT9yI9tLi7UWT8xCmCgwAAAAAsZBDmq3W57Fu7SGpjI9Kz5SQTvWfBPUddZp8lz3k4Ddzr+wdv0/64P2IXwUmukh08jyWmH2feQRk+Lav3XzRLAQAAAJQ7MgjzdeakbNymMwmVOmsJAEw/H30qPzr+Rzl1yT2vJ+5F4wQHAQAAAKQggxAAAAAAAAAoY2QQAgAAAAAAAGWMACEAAAAAAABQxggQAgAAAAAAAGWMACEAAAAAAABQxggQAgAAAAAAAGWMACEAAAAAAABQxggQAgAAAAAAAGWMACEAAAAAAABQxggQAgAAAAAAAGWMACEAAAAAAABQxggQAgAAAAAAAGWMACEAAAAAAABQxggQAgAAAAAAAGWMACEAAAAAAABQxggQAgAAAAAAAGWMACEAAAAAAABQxggQAgAAAAAAAGWMACEAAAAAAABQxggQAgAAAAAAAGWMACEAAAAAAABQxggQAgAAAAAAAGWMACEAAAAAAABQxggQAgAAAAAAAGWMACEAAAAAAABQxggQAgAAAAAAAGWMACEAAAAAAABQxggQAgAAAAAAAGWMACEAAAAAAABQxggQAgAAAAAAAGWMACEAAAAAAABQxggQAgAAAAAAAGWMACEAAAAAAABQxggQAgAAAAAAAGWMACEAAAAAAABQxggQAgAAAAAAAGWMACEAAAAAAABQxggQAgAAAAAAAGWMACEAAAAAAABQxggQAgAAAAAAAGWMACEQVt1S2bdrubSZpwAAILz6zi7Zt6HBPAMAAEAxlW6AcOHTcv+6vTL34M9lnrnNXbdaKszLXmaq99vve9osKb6KDrsNlUvMgjJRdvvdulz27WiSWv24zloCANNMtXTt6pYjh7tlX2f0QRkd7LE/u9osATKrbWyXIwQJAQAAim7GM8+2f2EeF9SN69fMoywsXC1zt77kHQy8OiiT2/fKHfM0zr3O1V/J9e1H5K71QjHVy/3bd8qseTG5vfMV+dPHZnEZmLnu51L5RJnst84ctIKDI9Kz5qT0m8Ve6luXSucLi6S5psosmZDBE4PS13dRRs0Sb/rCfZWslCHZvOVshveikNKPocj48JAcO3ZW+sfMghQ5HffW5XJk7SLr4eChHtlzxnro0iCbDrdLs344fFpW779oLdV0AGb3ikS73MZjExJ745T0nbnme/7kdn4m2jF+4qhs7Ev/TXfak/a6ax+DJK8XZnuuvsqSV597HvPYiBx7TX3ffY55PsL/TuQp/lumZf49y5Xv+VAgbRu6pbvRPEkR+H0IdX4m5HT8nD6P+f+2+/Vb0P4lTMjxbb3S6zpPi9sv5m9XjXkaN6G2dVMG3hiQXrWtIMU+bwAAAGArwQzCern/P9uBvrsXDsr1dd+Tq+Z2/fCg3Pntf0sPDmofn5U/X9UPYuo9Z6cgOKgtlC/NU3dXB+ROGQUH9TGr0Pst43L3nt9vdfHzsr6g1hdhwRfTbRvURc7apqQgg0iVNK9ol90FHJqsL1Y37bIzd+ybPWSr3rwetccWPi4H2p+T3/1th7k9J8eXLpDHzOvRqZQXl6rPjm9H3dR2DyysNK9HTR1rz2OoM1yapHtHl2xqNQtc8jnuzYs9smZaH8kp4OWoVdtvXrtKbXOp57HPp521K1qKOrS+mNuzghNex7xmkTrm3ZF/l6bqd8Iy9qEMxOyH4yc+ijQ4WGoyfR/CmtLjF4FC9Uu6Kus7tFJt60iGbY329UrPsP7eL5MuMvQBAACKpvQyCJ1MwAsH5erBd8zCaWI6tz0fZbTf2WY2OO+zM0lOSZ96r5WdUdcgm15uVxeT6nFABkm4DEK/zA0jNiI9kWZAVcoP2/9GfvCAeZrqVkxeHTgnr0+a5/moXCAHWhbLd/y2FTsvT569bJ5Ewd2X6hgecmfYVEtbZ4t0rFgktb4ZfTkc96QsnfQsrqTsH5/tpZ+P1VLf+qisX2tnh6W+Hu78TM7O8/oO+LbH2cfAcz5VHttL4hzL9MyqNPFjYR/zPa5MJztLTAeCsvicLIU7DtNHdscnOs53JT0rNPj7EO78DHn88sggTJb9eV3cfnHalfJbVqd+N58yv5v6ecbPNN//HI8JAAAAwiu5DMKK5hYre/DO0DQMNNXOtzMfY2WVPlhG+90gnfpiUF2wHAi82DXvUwYP9coe56JRG7soe7aclkH9uKZJOj0y0GxzZIEVnMpe2wYT0IqNyPFDR2X1mh5zOyo9JybU9tRrkQUHRV5caoKDt2Ly0/O/kSd/eczcfiOv/uGWiH4tkuDg43L8WR0cvCVv/+G8rI5v55isPh+z+7ZmsRxYaL07Gq0tJjioLnLVxbcOFCUuUK9Jf99J2bhN9bErWJfvcR8cHlH/XSRLkl5rkCU6OKhes9bNmtr2mbOqjUMyrp7VNj3qytjJ8/w0bSlaVl8Rt9e22A7Ujp9IDg5quj/3bDkqmyMKDkbzO4HsmO/DIf0dU+dS7RzrPj/3wvErRL/4GHN+N+3fpMz9clH6rL9bnP8AAADFUgIBwqelcrtd4MIqMPK8HRWZuSZRnMS+vSIzrVeMJa+kvG5u24MLmYi6TL5/u3pfvJBJvczseCWlGMrTAZ+h3u9RPGXmQpGKGnsmp7uxRCghvOR2VixZrfrJtc3tqj8CAyL+7bT7bq/c77N+RY4FYoL32+yH/owOr0FFYduZx/6p1+e6+lK/t7Ij6JgbZqjn+NCHrmCRB2dIaGxI+tLmk9PUxaO5IEsaUtq6XPaZggFHnMwpdXG0Oz5U2HVLncBdrWtnmY1Iz5aTKXM86QuzXlkd5fxiC5fIj6yvakxePX1OfvKxOxI4Ka///i158pfn5HWzJC+Tv5fNf4jJT3/9lqz//WX5wCzWPvj4nKw8b4+R/M78BdZ9/qql6wU7UDR4KCDjUl3wJsnluL+QPsSuZnzCCigknxP2Zw6q10IZu6GOkFJTJQ9bC5Q82ynykX3hLoukoyjFJ4q9vSDXZDSqIHvY3wmdgaZ/A3yHaeoMLv070ZUyPNNZ7n3LrpCIzjjTv1PRTGGgh+dan1HAKRCSXJ6wg1MPzcl/e2GPXymKsl8yGTsrB6zvs9/vS8LoeyNWu0q+/wAAAO4RUx8gXDhfKubZQcFcOEGpVHczzT+4cKl8ZZ7JdtNDYw/ulMrnm5OCQxVPrJNKr2CW8/4nalLe/5JUbn1FZn1L78eg/PmcvTwvTjtlvh2sW/OSzLTm+bNVzGtW2/QJggW2c69UNunLGq/5Ak3Qbes6meWx7lyfoFtFjd7vmPyrdYXhpoO/umiLyJ3DW+X6sZSwWth2ZjgO/vun2/Nz1ZfqeLv6UqRGZj6/TuZmCC7b2UUTMvBeUPag6sXa2dZ9YCDRuSBrfCQpK6o296+Cxcl8sgJa1qPCenG+3dC3z0cUBMzgg9+fk5/4ZSP+y63ggG2u6h6VFmv3RuSc54W/t3j2WTbH3R2wi7shl3U0z3VO2OfShFxWK4U8NdLk3c6H5oj0DRYtq6+Y2+s/bwd0rO0UeO6zfH4npoQeNrtrlexeu8iaty6hyqo6uzstIBlMD6PtblSfM3xaNu8vcDEWo/4pM7z1kxt5b2/aHb8AUfZLNpzAn/fvoIszR2aJ9x8AAMC9YuoDhB8fcRUiOWgXINFViF3FSexbcuXiu8deSX79sDWYRzJm75nhsPKtv7PnzdNVkXduNZ+zVSYvWO+SiprUSNjTUumqkjy5M7FtXTzlrjTbAbyrV6IpkGLaqYNes54wATZnX3eqfrIKstTIrBecTEhHpnbWyEz1eenttCsw66CbDvYlbU/3y5v2urP+c2oQzadAiRXEW6f6xP6syXOpxyVsOxPr3b3gcxz81nPa8+ZBue5aT/fnbd2f81RfL7Hfna5a5j+k72/KlQwZRA/X2hfPsfGAQKKT2SWzZb5zUX3mpGtYsBmeFhuSzfFlrlvK0FZrGKoT0FIX8rq4RjzDZ1eXbOqMMkNngSyzolUxOaWPeeUC+eFSV5ESXTjk8UIUKfHxtQesfRv9l1v283wtqLIvlodzKdrgnB+ZjrtTFMJ13ONuyLtDdqacPcy4Wr7dpM6l2Ii8G3Z6xXiW04RcshZE0U7NDP/LNavPLyNW3bwKviSE3F6u1HdQF0fQ29EFSY7sWi5drYXZXujfidCuSe+W9N+SzSabK1iDbNrhzKnnNYWBDvhUyYIsk3jjc/fp37eiBAf1vKHLZb0zJPi8+/fTJYfzs/jHrxCi75esZPx9cVwzv4ml2n8AAAD3ltKag1BnE+r7EEE2O6PQK4stmZN5aGUtvrlVrm7fK3c+di5PRuXOG7/y3PbMdevsIc66EMf2I0lViu+e22uCU0pEAcJ4hqQVLH3FCrDFP/fjd2TyH00755k+M7JppyWlnRUdf2dl+nluT/fLMbXuzoNqu0eS989kOsqF9xIBXB0ctIJ4Mbm90/6sVGHb6axnVbg+6L9eaiapvZ4OBqv2HHsnOZip+vNPpj8ravzCaGZOwHigxY8TgJmQy4FBHZMtFiXdNmsC/HZZqTNzHDWmombqsOR83bolH5r5AX9Q46oe8sAD8p1vLJYjS6Ma8hukUn74DTuo/V9/H8WEh4nMoHAyHXd/ev6vUZMpZw2pM5mMg2+EmaDfDAW1Cm54ZTmFb6fDaWux5iIs1vb69+ugmZPhZKquHo46yD6FvxMh1Hc2x4fTbvacwsCekzO5AIa3pOBggYpPNK9NDWStkm5THGN8+HRW7Qw2vY6fo/D9kqtsg8rZB58BAAAQXmkFCEMXu6iXmXp479WBpICRF3s4rM+QV5ekNixcbWXxWcGzgCq94druzRm2ezs1IOf42CMQmWU7teQiME/LLGvux0GZ3O6zPe3jd9L7N+WY6fn95rmCg3/y6o6w7XStN5lhveRM0qflK3o9dYlbudU996Dr5mQzTkd1c8zw00Wy3qqOqQtruDKEDplgR2N7uGyPVJVfEzuZo0Z2P9sg9bpa8a+LUDjEg1MopVhDnQvvopzTGWwPzZE2a9ifyQp1shp91K7QQazkC39rKKh6TV/4F6aCbIisPr+MWHXLHJwoUhahMqoDXqpNmw8NyaAV4DFBdh0oLFBGYekymawyIcdfCwjopc7J6SERHNRzpRa3Mu24Ovd6th2VjUnZ1ynyOj+np1Lvl9Hxm+YRAAAACq2kAoQzrbnjYvLnwVwvGxbKl7Ia3usMh9XzBHpvw6mi7A4wxZcFzG8YXKgjVz7DdjPIvp0pmZZO5qY7CzBL7v2u6NBzJVp5JupY+Adrw7Yz9P4tecrOViyKa3LlE32fKeMh9yrFGdVUSa2ez2tLcmGN0TMn41UqI53s/YEHpD52XlafPievu5L3ClM4JN1jjz9nFUoZVW1Yn8P3JJP4BWmoCfvzz3Sx5sGraZJuHUjJaZhzsnEzFNT7wj+ajJx7NYvQYVcu7pHV207L8WEdnKyS5rWrIgi0T+HvRM6cNmSeXiGIzmi1goOWTJnY+Rk8lAhgOUOoaz+5oX4XowqUT6fjl1D4fslV/pnMAAAAiE4JBQjDBcUsJgCUnBXnJXMg0avghrPMP3BpMhitwKO9JD+mnUEBO4/h2Nm3M6WPQ2duJrZZsfznVgVqPfR38s1Y4Hx+YdsZfj07iHnnsGveQZ9bUFZpti6ZirM1tQGZRvGsv/wuui3xea5GpMdvPi9nsvwoqlRO/ovYTY7Jq2eTqwrHOYVD7v9aQeYi1MHBI994QDXhvKxUbYhUUIEOX07AINNxdwqgBBz3Mx9ZQTDNd06wFOMn3HPC2beNaUNBtQjbaUnO6it8tk+xt2eMXZTe/b3xoEqm6qvZKPrvxFRqWmZltOpMtB7dh3pOu6inPPDhBJWlsTmnIiqZ5H38cvp9iV6h+iUrWf++qL/qeU35AAAAgFyUUIAw2yzAdJ5ZY16cTDLfbYQNUoZvuyfTzqCA3cwX7CGxmYOibhG3Mz50t8bqt7tvbrWGDN85dswKbM5cHlwV2F/IdjrzIfqs5z+/YDbMXFJZXNQ5QYvapkd9gwjxqpGZMsSyuogs9jxXt+T/iqgeSO4q5cWldnBQZw4+GXVwUItPoJ/bUNZ4BdxsjnvgXJYX5dyJCWvoXy5VlLMVXTtt8ay+gM+LUrG35xavvhqBSH8niiJ8oYha9TvmzDnY39drF4KJasqDjJygcpWsfDn/wK4j9PHLonBJVgVQ8laYfslG7uc1mYYAAADFUDoBwrwKlOh/is4c1ItnkvkG1YICUzXyJXv1FPWJghsRBd6cdvoOV17yilRagTmvjMUQ7Ry3n1c8/x/t170sfDo92OccM3W5c3unO/vuHbmdIYswfH/WyFeaPS5lVPvu/89mHsGU9e7G7Ev6im8t9Q1YViyp933N5mReZXGR7GSA1TRJp+cFcIN0ZqoaGZfNRblT6dGpfpvOuSBLL1YRxqS8Oa4jhDWyzGeOwcfm11gXnKPq3PLMMNQqH5cD7Xbl4+OPV5qFQSrlh+1/Iz+qeUBG//Cb6DMH45z+VBf/K5b5Z9foatHu+ehyOe4ZCo/oIMpGHUwxzyMVYTttJtCgP2+xWVRQhdte24YMcwxmmAsyJ2F/J5wAk88/HtR3LpOVdtpaRMy8mJkCSXXV/q+Z4KBzLvXvt6u0N6/tKkr22mjfKTmuO823r0MIe/zi/6BTJS1PeZ1rTlX6wgfFCtIvmdQtzVw1Oc6Z/3KaZ9ACAABMEyUTIHTml8stI05zsv6aZVZH4vKkYsnTMjMleOEMUfXNNHQy91LmuLsbs/5vXmaueSXpMyuWrJbK7TtNsE6/L6e0Q192O/X2fi5zO9yBOR082yvzzDx/dw7vTRqCHLqdH5+VP1/VD5rV+/S6rss89dja5tZ1UunqX4szNPnNf0grRnI3IIswbDvvDFmXY1Lx/E6rX3Q7K3RgULVvrmqfVYVZSTuHzpmh2vNekrnbVydv01l/zc6AYKbNzrzyu6hzczIz7AvgTZ2uC+e6Btm0qz1eEbTPN0Ms+aK8zX0RrS7E21KCGE5Wlb09d7VV9V6nMIC64Bx4L5qMlA9+/wd5W91/Z/FzcuDxBa5hxJXyojP8V27Jb674VxZ+8bEG+Y4pflz/jcXyw6AYYeUCOdCuC5LckrfP/0ZWRlSx2E/8wln3/470PrUqBOtq0WvdAcSLsseZ6zH0cS+G6NsZP/8a7arJhVaQ7dUtlY5Ge47BfbuWq+9c8nfMXRU6XGXpVGF/J5wA0yLp3uA6L1V7uzY43/Vo9R8bMsPum2S36pukwHj8+7DKd9hw+j9MOOdgsbLXrknvG+acj2B4uC3s8Uu0RRcXSgpIJ603Iu8WPChWiH7xof9uderzpMlkD2ZRNdkZilwSGbQAAAD3vhnPPNv+hXlcUDeuBwcmZq77uVQ+EVD5NoBVHMOqwptMzzk3Gc+wq5f7t++UWfMGZXJdcmDN4XxO8nra01J50GS1pbqqPu+3tVL5vIRqezrTTonJXbGH7nqxhvOmzZeXRzsXrpa5AZV8717QlYOTKxz795fNeT29reHbaZ8n5omLbt/tWIv//unqyk4BFQ/W3IkH3/HIWHRTF2+H1cWbuuBzZ8P40dlI3Y0+F+tWFc+TwRc9dUsTF1Np1PprUtY3AQzv90/I4KHeaCtOLlwixxfbmYLpdCDvrcDiIS8u7bCKjNhuyU9//Zb8xCvuV/m4HNfVks3TIFZmYWTBw2rp2rUqIBvLu09zPu7quB3RgSd1wbzar5Koz3ucqrB6DsJcKxXnfn4Gn//xCrVKWnuc9meStH95bC+Jcxwn5Pi2XukNCrqo79yml5uk2feYq22pNgZWfM1RqN+JgP7UfXGsdpX6zCz2V8n6HAr8PdLSt5fps+PHMOjcz0Hbhm6132IV40j/rUt8n6M5P21hf+edtnrzPnbB6zjS1y1uv2T63dTfoSE5sD/z31Dn/PBuNwAAAKJWIhmEeRQoUe4e+weZvGBnpdlicufNg3I7KWiVeV47/wzDd2Ryp/o89zauqm0c3irXt+81nxeu7emcdh5Tn73V2q+kbEYdqEsazuuWRzs/PiLX16VvTwfsbuv1U4KDWqaMTCeLMH3ocvh23jmo9v3wr+SObqdex+oP3b6zUuFVgMVxbq9cVdu8o9Zxi/dnxuCglhjauL4zUxahHkbXK5sPjch40iYnrACDVWnYLPE1dlY2bjstgzE7S8VhV6cdSF9fVys21Vbdh0S/v0ddMEZ+gaWrFf/6vPw0ZgqSGKO3YvLqr4ODg9rrH1yUt81chqN/OO8dHNS+9kBWwcHoXZPeLT3qGA6lHAN9DId8+9Q+7unrDJ7I8rgXSdTtdLL6iqUg21PfuT1bjnp8b53v0dFIg4NaqN8J9V1PW8dqX48V4HEKaERK/x6tOSo9J3zauiZzMDJVPFPXmo8w829qftyZe9FVwQ77O9+/X/+2+KznERwsnML0Szq1b/HvUDYZuGaIdloGJgAAAAqlZDIIYZhMPvHMEIQ/k5V49VdyfXt6MDM6OWQjuUSdKQPg3sPvxPTG8YuOnfWY299ZAAAA5IcAYQH4DXn2ljzkOdOwXXjzH85cAPGhdiPpw3x9meGS6pHOEDmgLh4J/wJIxu/E9Mbxi4ITaM047B0AAACRIkBYAH7z5HlLDhDmMxfjPc3KrGyRu28ek9vHXMOBdZGRFzpk1hM6IJvclwXVaub700Omsh2O6axjntrIkADgwu/E9MbxywtZmAAAAFOHAGFJyVxIpWxlKKKi50IselBVZxK+XCXHXjsp/dle+NU1SFdHs6yMT2rPhSOAFPxOTG8cv9B0gHB97WDkc30CAAAgMwKEJaVY8+hNV/Uyc93fWdmC8UChLlTy25SsQgAAAAAAAGSNACEAAAAAAABQxv7K3AMAAAAAAAAoQwQIAQAAAAAAgDJGgBAAAAAAAAAoYwQIAQAAAAAAgDJGgBAAAAAAAAAoYwQIAQAAAAAAgDJGgBAAAAAAAAAoYwQIAQAAAAAAgDJGgBAAAAAAAAAoYwQIAQAAAAAAgDJGgBAAAAAAAAAoYwQIAQAAAAAAgDJGgBAAAAAAAAAoYwQIAQAAAAAAgDJGgBAAAAAAAAAoYwQIAQAAAAAAgDJGgBAAAAAAAAAoYwQIAQAAAAAAgDJGgBAAAAAAAAAoYwQIAQAAAAAAgDJGgBAAAAAAAAAoYwQIAQAAAAAAgDJGgBAAAAAAAAAoYwQIAQAAAAAAgDJGgBAAAAAAAAAoYwQIAQAAAAAAgDJGgBAAAAAAAAAoYwQIAQAAAAAAgDJGgBAAAAAAAAAoYwQIAQAAAAAAgDJGgBAAAAAAAAAoYwQIAQAAAAAAgDJGgBAAAAAAAAAoYwQIAQAAAAAAgDJGgBAAAAAAAAAoYwQIAQAAAAAAgDJGgBAAAAAAAAAoYwQIAQAAAAAAgDJGgBBAtOqWyr5dy6XNPAUAAAAAAKVtxjPPtn9hHhfUjevXzCMkVEvXrlWysmZCjm/rld4xszijsOuhtIU8rjogt6NJas3TuNiQbN5yVkbN06JoXS771i6S2tiI9Lx2Uvo5N6cJ59wTGT9xWjb2XTTLp1ApndcAAAAAcI+7BzII9YVttxzZtVTqzRIgepxnGemAjg4Oyoj0bLk3goP1rUtl064uOXJYHXvr1iWbOhu8z4HW5fH3bWo1y5I0yCbnczY0mGUOc36pz++qM4tykN7ObjuLM9vPqntUWmrsh7UrHiH7k+87AAAAgDLDEGNguhs7KxvX9Mjq+O20DJqXiqdaul7W2V46+/Gk9Jul01nbhi7ZvbZJmmuqzBKtSppXtMvuDEOomxenBgCV1kek2TyMUn2nVztFamsWSfeObtm3wSeg6Tb2oQzE7IfjJz4qjeNXEuc1AAAAAJQHAoQA8lbfucwMTz11Twx510G37kYdcJuQwRNHZbMTpNp2WgZ1IE0H34KyyxrTs/DaFi8yjyLUulx2rzDtPHTUFUzrkc2Hhqy21jY2y7czZhJek94t9nolMbwYAAAAAFBU90CAcI4sMEPjgMLhPPPXIJ06SBUbkgN998Jco2Z/lMFDvbJH7VN8vruxi7Jni8lkq2mSTo+hxIPDI+q/i2RJ0msNsqRR3anXosyCc4KOOjC750xy34+eOavaelQ2M09pCHzfAQAAAJSXEilSUi31rS2y/oVFUmsuysaHh+TYsbNy6aku2b1Ckos26EIIrvcGGj4tq/dHmBFT1yBdHc3S0lgVnzx/PDYiA28MSG/KBXqC//5JR7d0N/oVpQi7Xh589u+YZ8EJPU+XXdhg8FCP7DljFsc5rwe0M6ftuTl9M1v1jTO0ckL1z6AcUMc7qYCBU+zAt7iBTzujOM9yOl+S2/GuDlS93JwYOhqbkME30gNB6fRcd+3SnEsxh9DHQdFz761dJOMnjsrGbAOEYfpF7P3R62bXLyHXM/sTWAzDeY/7uMf7YUhiK5qk2eO1QfWapL5myeK74qFtg/4dUH2XS9/Ht2WepvD/rOT+HFXP2zYskw73MVS/Twf2+59z9aof3L9nXvy3X+DzWrUt3++7nguy8wU93Nss8PtNsuTfnwAAAAAQlRLIILQvknari2f3hVltY5N07+iS9U1mQYqsLuIipdq5oUuO7GiXla4LOE3P9bVy7SqfwgTB+9fxkFmQJux64elhlX77Z81l1lltljj0sEQ7m6p5bXpxhUzDTnPfnqEu+jfF+8YJDmrqcxrbZXfIQg9ewp9nYc8X24KOLtmt1k2aV049blbrpRe4yE/o42DYWWwTMvBeNgGqPPpF7X+nnhcw137Jcb362tnW/fjQh/6BmcsTMq7vPYYSi9yQy3oYsus1+zMn5LJaKcqfrv7zOltR9d2KluwLkuRL9dvD5juoh2EnHUP1+7TbZ+i1PadjlgG4CIQ5r/P6vu/qVvvnDg5qatuZfpNC9icAAAAARGnKMwidDBh7Dq1ENk993VLpfNm52ArKqgmRVRKGkx1kZZ8MSP+Ysz/V0ta5TLqtIYkj0rMmuUCD//7pbCYdsLBfS92/sOuFZvbP2t6JQenrS2S8WFk/+sLeb3vOuu5jkClrL/T2zPHWD9WxOJ6UcaaPRYt0rFgkMXdGY9gMwiQ5nmdm/3I7X5x22M+cbFE708m9nl/GpiOHtoY+Dg6nzennvqei9ku49ZzvXlZ97O4bZ99OHJUDssyaG9D+DNMOnSn2msh6fS5GlEGoJX4rlLTvRPZ0QE23OWMGoelP6/dH/TY529Lniw4Aaml95zrPktdZqs4xXdwmm/OnmOd1bt93p++s7bl+r60MRvV7bfdZ8HmdU38CAAAAQMSmNoOwbql0mCCYvlBzD/UbHdPzZ5mCAKXgzEnZvK1HNm5RF3jxoIZ2Tfr7eqVnWD+eLfPdWSKB+6fnMjsqx732L+x6oakL1RecC1E951riYlobVfu+8ZDOVKqSlqc8ssnU69b+1zTJeisrR32eU9H2NZ+AXMjt1Xc2m+CgvnA/mRII0cdCrbvt6NRfTIc5X1ysIM1+J5il2ettPjFhPfOskpuzPI+7xczVFpuQS/aCYFPUL9mvVy3zrezcCbl82Vrgw2QJeqitnSOjfYN2Zq3+3LpHpUX10eAbWQSWQ+jf36P2Y8TOaDRZmEcOd8mmziyqF4cV08Gu3qTvnz5f7OOnmlGb8r01WZn6PEte56w5x1LnbMxHFOd1DtTv9XoTHEz9vdZzVvbGf68XSYdfNm6O/QkAAAAAUZvaAOECM5xqeNAni0NdhJtHpWDUaWNdtbS1LpVNG7pk364udTHuZPBUyYIF1jtsGffPR9j1wjIBDB106/MLrJ35yAp41DY96hl06N9vDzWuXbFM9Ys9tNgKBni1P/T2quXbTeZC3DPwaCQFnqZOzudL3ITvcN3R90wg6KE5+Qd/IjjuYRS/X4rUn0kuyjkd3FGf2/aUzlYbkXO6j53vdsRGdWDcVblY92HzCnto66bWqINL+vvnne13adwOuIYRWRCs2Od1xt/ra9L7hg5I+m2vMP0JAAAAALmY0gBhfK6v8RvWfanTw+E27eqWIztWSbeea0rPF+We0yxF2P0rer84F7g1TbL7sNo/z5seThnkouzZNiTjOjCh+kVP4u+bxRd6e05l0ZtypRiB0zzler7kRM9bZh6GFslxz11J9kt8vWty5RN97xekdGSucmvND6j61hrGPPxRhuGz0bArF/fI6m2n5fiwDi7Z8ywGzXdZDKPjN6375rXLk+dK1HPvmWG0sfGIAvtFPq+z+r125qyM4nsLAAAAAAVQAkVKpglrPigzJ2JsRAZPnJaebUdls7qtXtMTHwpWzuqtTCkj8oysaYbzxds06Bcnayswo61ujik2EhCsNllq2uD59Iq3BaWHtu53DaF+YYoLXcSHy9oFQuKBOl04Ri8ePu2f7QcAAAAAKLiSCBDqObvyVtDMDCfLZUKOHzoqq7ectOa10nOojWYxnDXs/kXSL9lwslt04YQ1PcE3vwn7deDHypQ6LT06KFHjzEfoIe/t+c9RV3BZnWf5nS+BnOyobOf8CxLFcXfm4puu/eKxnpPtFjT8NB4MD8wMvCjn1HdhPDZkDy+eAvEh1CXBDlYmt0cXETktm/cnzxOYl0jOayOHvyuBv9dRfm8BAAAAoACmNEAYv3htfETarCUp6jIP40soQtAoNiLvJhXFcFTLfPPILez+RdsvWRj7UAZ0kKexWbpC9aET+BmRHnWh3993ypqUv3aFz9DG0Nsz87pJlax8OSAjqq46+bWxG2JNy+ZzsV/fac+ZmJ0czrMcz5cEv+GtieIL40MfZg6oZApu5H3cNWdIbjH6RUL3S07rOZl/NU3S6Tk0t0E6raIUmTMDdSGUjVvOFmx4cduGDHMMOoGpqda63Jpf8rguUJMUpEsvIpJRUc5rR+bzOvF77be9HL+3AAAAADAFpjaD0LmQ08POdiXPTVWvLij3OcPPAiUHjZLnt9JFECKcoN/KinNXBq2227lrlay0iiukCLt/kfRLLpxJ9FUf7jDVT5MudFU/dqrtHlZtMUvc2jbY7Rk85Ey0rz7vNT0foZlzzFrmFn57/cfsz7XmF1N905V0fM3x2LFKdm9wV7N1Ks6q/lTL48dPnR9dG7rszMeMQpxnuZ4vLs1ru2Wfe926BunS61mBzBE51heUcZfY346Uz0hqd57H3WHNtac+I+uKsKH7Rc+nZ9pplmTXL7mud1H6nKG51nqugLOeM2+X+f4FFcEoBqvauT3H4D7rdyK5/60+NfP7FaqCcrbsefqqZEFeVYOLeV7n8H0fOyvHnPfq7blfy+r8BAAAAICpN+OZZ9u/MI8L6sZ1nwsjdZG7b0eTd5aLnqPsk0XS3Dghx7f5VMTVgj5DZ7Wt8a4QmYv6zoBAkmpnz5BI94pFMnioJ7k4R9j9i6JfchS4j5rarq62mbS91uVyRAch9HC+/cnZVPHP83hNC7U9LfB4ax794rTTw/iJo3KsdpV0R3iehTtfqk0wQQ9LrZJaz6zG7I657/aDjpMfv+MQ1yCbdNGH2JBszjBkM79+UccqJjn0S9j1bDo7r1sX3PGi27ol5Xcl4LsQ5/ueRFuDJZ9n+pzc9LKZ09HHuNrWRr/2uDjHRn8fNnoGshLnp1+f+X5Gxu+sPkYjMvDGgPR6Zpfainpe5/B9z3z8gs7PEP0JAAAAABGb+jkIx87KxnjFTYeZl2rLgFx+yCwKYj5jMOb+DPuC8/ihgbyDg9poX69sPjRiBRrirM+351Lrt9LaPATu30npMwUR0oRdLw96H53qp0m7o/rV2W7SRay+gLaCbupi2SMAoT/PKkzQ2C77POYjzHl7Dt03a45Kz4mU46H6RwdDNq/xuNg+c9Lz+PXoIY/qwtspTBEoh/Ms9Pmiqfcd2NKTtv748JBqr3cgIZW1fd0/5rlFb/98eqXV0MchzmTcWZmBwRliefWLOr4Dr4Xpl3Dr9esiH6ltdc4x3VazZEqpc3LPlqMe7bTPS10AJpvgYMGNfSjHkn7L0tXWLJKVGSouF/W8zuH7bmUtWt/ZIfV+s8gS8JsEAAAAACVk6jMIA2XOsABQCgr5XQ372dG1KZ6N5pGphkzMcZCgDNNqadugs3iFbDkAAAAAmAIlUcUYwHTnzDup52ELnrNwOhrtG7QLl+hsWPc8lsis7lFp0cO8Awt0ZJnFCwAAAAAoiLLKIMw4J1WS1DmmSt+9vn+YBkxhjFo9vDWyYbhTn0FocfbNPLVF9Nn3svhcfhMyeOiU9J25lhQorK9rkG93NMtKa75HfpcAAAAAYCqQQQggOmdOysZtptJ0UuXYe4C1b6nzgiKjsUSVX11xeffhbjniuu3e0W4HB/XcftsIDgIAAADAVGAOQgAlrkQyCJGX+tal0vnCIqmpqUrKwnSqF7+bklkIAAAAACieEg8QAgAAAAAAACgkhhgDAAAAAAAAZWxKA4QPP0wtUAAAAAAAAGAqkUEIAAAAAAAAlDEChAAAAAAAAEAZI0AIAAAAAAAAlDEChAAAAAAAAEAZI0AIAAAAAAAAlDEChAAAAAAAAEAZI0B4z6uWrl3dcuRwt+zrbDDLAAAAAAAAABsBwntd3aPSUmM/rF3xiLTZDwEAAAAAAAALAcJ73diHMhCzH46f+Ej67YcAAAAAAACAZcYzz7Z/YR4X1I3r18yjhIcfrpdLl0bNMwAAAAAAAADFRgYhAAAAAAAAUMbIICygtg3d0t04Ij1rBmT+hmWysrFKLZ2QwUO9sudMtXSlLbNWS1bXIF0dzdKi3ldrFo3HRmTgjQHpPZPap7ogySpZaeYcTDV+4qhs7Es/DvH1ZEg2bzkro+p5m2pbh3ubw0NyYL9+LWrVUt/aIutfmC21NbovtAm1vUG1vYsp20tup+6bzpebpdlZL6b68Y1Tqh99+iXn9QAAAAAAAO59X6pf9NfbzeOC+r//78/Mo4TKytkyOXnTPLv31C1tsQqEzF+yWFr+/b8zS/+d1NZ+Se77f7TLykbXsuZq+fTYhzJmllhBrQ0r5dWu/1n+p5p/Jw+YpdoDD1TJ/9T8P8uiPw7I//djs9DyVflmu3q/+80ut/7H/0/e/H36cYivV3NHLg7/laza/KKsVO1N2mZNjbQv+ZKcf+uyRHbE6hpkk9rW//qdKrVPTl9oats1fy3tHY/KfcP/Xf77pFnsamdVXYv8r6pvat3rqce1ql/+l7pJ+d/PXTcLtbDrAQAAAAAA3PsIEBaQHSD8d/LAAxNyfNtPZfs/jch9S3SgqkbdUpY9UCV/5Q74tX5HXl1RY2UL/uz/dUr2/tPb8r8fG1C3Efn0vlppafAKKn4m//0t/Z7k2/n7HpV29f6MAULVhpa/+Wup1e099Lps/wd7m+f/WC3tzVU6SihVaUHJsBpk0/52adZRSLWPx4+cim/P3sevyvyGGvmrD93bS7SzVvWrzmr82Wu/VH3jrGP3i9T8dUrwNOx6AAAAAAAA9z7mICyC8ROnpNeK4l2Td4cm0pZd+cRalOzMSdm8rUc2bjkp/WPuoa/XpL+vV3qG9ePZMr/OWhidmB4S3Zs0fHlUtcXenkhNbbX9IE/1nc3SrB/E9LDfkynDpfU+npSN2456D7tWrOHS+8+qvjELTL9sPmH3b/PiBus+Vdj1AAAAAAAA7lUECIsgNp4+t5172aVxOziVatQJYtVVS1vrUtm0oUv27eqSI4f13Ib6hSpZsMB6R0Qm5PhrJ6XfPHPza2M41fLtJnvuxeOvBcxrmBQYdZuQgfe8Xxt9b0TG9YOH5ki9tcQt7HoAAAAAAAD3LgKEJaxeBwV3dcuRHauke22TNOuiIfFCHtPZHFlgFVK5KVfimXwRU/30sHmYk7DrAQAAAAAATFMECEtV63LZrYOCOpAWG5HBE6elZ9tR2axuq9f0xIf8AgAAAAAAAPkgQFiSGmTT2kXqXhcLOSqrt5yUPX0XrbkIR32H3U5HBZhDcUGV1Or72IRcshZkKex6AAAAAAAA0xwBwlIWG5F3k4p3OKplvnlUUurMkOjD3bKvM6iYyUU5Z2VAVsnKl5f6z/lXV+37mvfci9XS9YIOrIqMD33oObdh2PUAAAAAAADuVQQIS1lNk6zvbHAFyaqlvnW57Nu1SlZaRUpKS1uHGRKt1K5YJl0B2YH9x4bsoiBqH3fvWi5dre6AotnPHatk9wavqsJV0ry2Sza5+6auQbp0v1jbH5FjfV6B1bDrAQAAAAAA3LsIEJaki9J3wq4aXLuiXXYftrPyjhxeJbvXLpJaGZGeEyPW69PW2FnZuM0JEi6SlWtXmX107+eEHD920Xp7qvFYlTS7+2ZHuwnyqXW2eVdi1sKuBwAAAAAAcK8iQFiiRvt6ZfOhERmPmQVabCQ+J2G/FVkrLTorcNC0d/zEKenNVKFYBwnXHLWCnUn7KRMyPnxaNq/p9fmMCRl4rSetf8aHh6Rnm986Wtj1AAAAAAAA7l0znnm2/QvzuKBuXE8fuvnww/Vy6RIzviFb1WY4sM72yyWgF3Y9AAAAAACAex8ZhAAAAAAAAEAZI0AIAAAAAAAAlDEChAAAAAAAAEAZI0AIAAAAAAAAlDGKlAAAAAAAAABljAxCAAAAAAAAoIwRIAQAAAAAAADK2JQGCBleDAAAAAAAAEwtMggBAAAAAACAMkaAEAAAAAAAAChjBAgBAAAAAACAMkaAEAAAAAAAAChjJREgrO/skn0bGswzAAAAAAAAAMVSMhmEtY3tcoQgIQAAAAAAAFBUJREgHO3rlc0nJkQa22VfZ7VZCgAAAAAAAKDQSiaDUAcJe4ZFalcsk646sxAAAAAAAABAQZVUkZL+/adlUKpk5ctLpd4sAwAAAAAAAFA4JRUgFLkofXqocU2TdLaaRQAAAAAAAAAKpsQChCKj743IuLpvXkzBEgAAAAAAAKDQSi5AKGMfykBM3Tc+Im32EgAAAAAAAAAFUnoBQrkm7w5NqPvZMp9iJQAAAAAAAEBBlWCA0FElCxaYhwAAAAAAAAAKoiQDhKPjN80jAAAAAAAAAIVUwhmEAAAAAAAAAAqtJAOE9bWzzSMAAAAAAAAAhVTCGYQTcvmyeQgAAAAAAACgIEowQFgt326qUvc35cqYvQQAAAAAAABAYZRegLDuUWmpUffDH0m/vQQAAAAAAABAgZRcgLD+qUVSq+4Hz1+0FwAAAAAAAAAomBILEDZI54oqkdiQ9J0xiwAAAAAAAAAUTEkFCNs2tEuzTMjx187KqFkGAAAAAAAAoHBKJkBY39kl3Y0i4ydOSS/FSQAAAAAAAICiKIkAoQ4O7tZDi4dPy8a+a2YpAAAAAAAAgEIrmQzC8eHTsno/hUkAAAAAAACAYprxzLPtX5jHBXXjOpmBAAAAAAAAQKkpsSrGAAAAAAAAAIqJACEAAAAAAABQxggQAgAAAAAAAGWMACEAAAAAAABQxggQAgAAAAAAAGWMACEAAAAAAABQxggQAgAAAAAAAGWMACEAAAAAAABQxggQAgAAAAAAAGWMACEAAAAAAABQxggQAgAAAAAAAGWMACEAAAAAAABQxggQAgAAAAAAAGWMACEAAAAAAABQxggQAgAAAAAAAGWMACEAAAAAAABQxggQAgAAAAAAAGWMACEAAAAAAABQxggQAgAAAAAAAGWMACEAAAAAAABQxggQAgAAAAAAAGWMACEAAAAAAABQxggQAgAAAAAAAGWMACEAAAAAAABQxggQAgAAAAAAAGWMACEAAAAAAABQxggQAgAAAAAAAGWMACEAAAAAAABQxggQAgAAAAAAAGWMACEAAAAAAABQxggQAgAAAAAAAGWMACEAAAAAAABQxggQAgAAAAAAAGWMACEAAAAAAABQxggQAgAAAAAAAGWMACEAAAAAAABQxggQAgAAAAAAAGWMACEAAAAAAABQxggQAgAAAAAAAGWMACGAaNUtlX27lkubeQoAAAAAAErbjGeebf/CPC6oG9evmUdIqJauXatkZc2EHN/WK71jZnFGYdcrETqAtKNJas3TuNiQbN5yVkbN03tXxMevlPqzdbnsW7tIamMj0vPaSemfbudm2XLOSZHxE6dlY99Fs3wKlf3vBAAAAAAUzz2QQagvbLvlyK6lUm+WAJgCOqCjg4MyIj1b7o3gYH3rUtm0q0uOHFa/MdatSzZ1Nnj/1rQuj79vU6tZlqRBNjmfs6HBLHOY3zH1+V11ZlEO0tvZbWdxZvtZdY9KS439sHbFI2R/8ncFAAAAQJlhiDGKb+ysbFzTI6vjt9MyaF5CCCXRn9XS9bLO9tJZkSel3yydzto2dMnutU3SXFNllmhV0ryiXXZnGELdvDg1AKi0PiLN5mGU6ju92ilSW7NIund0y74NPgFNt7EPZSBmPxw/8VFpHD9+JwAAAACgaAgQAshbfecyMzz11PQb8u5BB926G3XAbUIGTxyVzU6QattpGdSBNB18C8oua0zPwmtbvMg8ilDrctm9wrTz0FFXMK1HNh8astpa29gs386YSXhNerfY65XE8GIAAAAAQFHdAwHCObLADI0DMBUapFMHqWJDcqDvXphr1OyPMnioV/aofYrPdzd2UfZsMZlsNU3S6TGUeHB4RP13kSxJeq1BljSqO/ValFlwTtBRB2b3nEnu+9EzZ1Vbj8rm6ThP6ZTj7woAAACA8lIiRUqqpb61Rda/sEhqzUXZ+PCQHDt2Vi491SW7V0hyMQddCMH13kDDp2X1/ggzYuoapKujWVoaq+KT54/HRmTgjQHpTblAT/DfP+nolu5Gv2IVYdcLK7fj0LZBt2FEetYMyPwNy2Slk3GlgypnqqUrbZm1mgc9N1u7NBeo+EAU7dRzvHW+oIdxmgXqvePDg3JAnVv+7c3x+DlFGXz7Qc+Llk1xkxD96XNeH8um0Iiee2/tIhk/cVQ2ZhsgzOl7ZPZb7P3R63a+3JwYUhtTx+2N9ABZ6PXM/gQWw3De4/59iffDkMRWqHPF47VB9ZqkvmbJ9tgms89t1Xe59H18W+ZpCv/PSu7PUfW8TX13OtzHUJ3fB/b7n3P1qh/c3wcv/tsv8Hmt2pbv35Xcfify708AAAAAiEoJZBDaF0m71cWz+8KstrFJund0yfomsyBFVhdxkVLt3NAlR3a0W8Ek5wJO03N9rVy7yqcwQfD+dTxkFqQJu15Y4Y6DyGzp0Be5qk9sVdL8wlLVVynL1gbP2VZ4Ydup+6XbzPFmFlnUOdDYLrt9i0oU+/iFp4fT+p3X1hx2ndVmiTc7i21CBt7LJkCl+iXU90ipqZJOPS+gWjdpvj31uFmtl174w8hxvfra2db9+NCH/oGZyxMyru89hhKL3JDLehiy6zX7Myfkslop6TTKU/95na2o+m5FS/YFSfKl+u3hugbZpM5vPQw76Riq83u3z9Bre07H5O9DIYU5r8O3LezvhBKyPwEAAAAgSlMeIGzTARrrgkpnbyXm0Nq8Tc+fpS6W3Bf0jjMn4++LT1yvs0riy1w3jyyPUFpbrAtNnX3Ss80919dR6TkxYb3FKwjmv396LjO9f9bb0oRdL6xQx8GiX9NZT3ZfHLfmZ2tSfZWyLG3IZbGFa6czt15qv+i56Oz3V8nKHdEd96Jrdc1hd+J00ndo86ERKwhWu2JZQGXdaplvBTtvypVsst5Cfo9si6RZrzs8pNZNX08a232Ci7mt93Ctfa7HxgMCnmM3xDr8Mlvmp/XNDXl3SH+2cy5Vy7eb1GeqfX73sn4eIfVb2DOsH9hBryO7lktXa3BA1z3foPu22emPjPS2dLBVfXfc57Y6XyxeQ6/VeebM6Zi8zpAdaNWVr82y7DMhA4Q5r/P4uxL2d8IWoj8BAAAAIGJTGyCsWyodel4ufdG4TQ/tTFwYjo7p+bN0MMUsmGrq4nHzNnXxukUPTXNfwF6T/r5ec5GeEiwI3D89l5kTlEoRdr2w8jwOicIU10xgJHnZlU+sRVMu53aqfllvggyp/aLnouuNH4dF0uHORir28QutWrpesOews+faSx4GOarO+Y1WkKJKWp7yCzqZudpiE3LJXhAszPfIxRp+uv+sa3iovZ4T3PKsHqxkv54T8JyQy4HBPJMl6KG2do6M9g1aASbrc+selRbVR4NvFGaoaP9+Hdyzg166eIrOwjxyuEs2dWZRvTgsHeBd05s0HFyfL/bxU82oTT5fnKxMfZ4lr3PWnGNR/gNCFOd1DsL+Trjl2J8AAAAAELWpDRAuqLKHUw0P+sy5pS7CzaNSMOq0sa5a2lqXyqYNXbJvV5e6GLfnAdMXnAsWWO+wZdw/H2HXCyvP4+CVaeVedmk828ykwsq5nRn75Zr0vmFn+dQ2PZoIxhT7+IVlAlc6S6rPb37IMx9Zga6k/ctTzt+jOP9hzKPvmQDZQ3M82hl2vXxclHM6uKM+t+2pRep8GJFzuo+dcyNio30nZaOVdWZXLtZ92LzCHtq6KWNGYa4m5Liew888c8vnux5ZEKzY53XY34m4wvQnAAAAAORiSgOE8bm+xm9Y96VOT0C/aVe3HNmxSrr1XFON6sLQd+ht+P0rdr9Mt+NQLFn1izMXnZ5HzFowjfrTCWzUNMnuw+q89ry1S7P15ujk+j3Kies45CS+npNJ6hekdGSucmvND6j6tltnlw1/5BkAippdudgMbR3WwSV7nkXfeR2LZHT8pnVvDR9PyrJukE1r7Wy/wCHduSjyeR32dwIAAAAASkkJFCmZJvScVs4E9LERa14rPYfaZjOPmjMUDECAafA9crK2AjPa6uaYYiMBcy+aLDVt8HxEc6FmSw9t3e8aQv3CFBe6iA+XNXMlOoE6PfeeXjx82j/bDwAAAABQcCURINRzduWtoJkZTpbLhD2J/JaT1rxWeg610aR51LyF3b9I+iUHxd7edBHYL062ksccfCXfn05W0/DpeGEE39sWv/nzzFx8WX3/8vseBQo4DoE81nOy3YKGn9Zbw4aVwMzAi3LuhOrj2JA9vHgKxIdQlwQ7WJncHlNEZH/yPIF5ieS8NnL4uxL2dwIAAAAASsGUBgjjF6+Nj3hXd6zLPIwvwb+wQWR0FVL3BPRx1TLfPHILu3/R9ktmxd6erxIbfpfol2afKr6JYgjjQx/GAw2h+9OpjOvTD4lKqVnK1J9jH8qA3qDv/mXDGZKbw/cvx++Rm/ewX+/j4JbTek7mn2/12AbptIpSZM4M1IVQNm45W7DhxW0bMswx6ASmpppVxVhEVwzXcyUmgnTpRUQyKsp57ch8Xof9nQAAAACAUjK1GYTOhZwedrYreW6qenVBuc8ZfhbIFAOQKln58tKU+a10EYQIJ+ivaZL1SZVBq+127lolK63iCinC7l8k/ZKDYm8vjVMRVlf5dPVvXUPy8Sy2sbNyzDm3dqQEYlTbuvRxtwJ2I3KszxXwCt2fiX7o3uDuh2rp2tAlu01QKrNs+9MpnmD2T7836XX1/elU7T2s9sEs8WLNtac+I+uKsLl+j+L0fHop1XmDjkNcrutdlD5naK61nmqf9UxR623aZY5fUBGMYrCqZdtzDO6zzrPk/rf61MzvV6gKytmy5+mrkgV5VQ0u5nmdw9+VsL8TAAAAAFBCZjzzbPsX5nFB3bjuc2GkLnL37WjyznLRc5R9skiaGyfk+LZe/4qwQZ+hLsp61nhXiMxFfWdAgEa1s2dIpHvFIhk81CN73EGDsPsXRb/kIsT22jbYVWfd++z0U6ZlqXz7Vw8T3J/f/G35tbPadYHvxecYhD1+rcvliAnqpBo/cVSO1a5S+5L5uOfSn77vdaj26iqr/ttrkE266ENsSDZnGLIZuC21He/vUeIYjMdEaj2PhVefhF3PprPzuhsD2rol5XfFOXZB56zvezKdZ46U3zN1nm162czp6GNcbWtjFt8h59jo82yjZyDLaaN/n/l+RtD3wRhXfTrwxoD0emaX2op6Xge2OfXvSpjfiTz6EwAAAAAiNvVzEI6dlY3xipsOMy/VlgG5/JBZFMR8xmDM/Rn2BefxQwORDO8b7euVzYdGrEBDnPX59lxq/dYYMw+B+3dS+kxBhDRh1wsriuOQB6t/T5iheg7dv+enuhLwNend0qOO/ZA6v8wiy4QVeNm8xvvCPvTxO3PS8zzr0UMz+67FC2hkkkt/6vc6VW+T359or28QxWIy7qzMwOAMsdDfI8uEDLymj0Xy+uPDQ6p/fI6DJdx6/brIR2pbneOu22qWTCl1nu3ZctSjnfbvny4Ak01wsODGPpRjSd+FdLU1i2RlhorLRT2vzXc4u78rIX8nAAAAAKBETH0GYaDMGRYoBo4DMinkORL2s6NrUzwbzSNTDZmY4yBBGabV0rZBZ8cK2XIAAAAAMAVKoooxgOnumvS+NiTj1jxswXMWTkejfYN24ZLGdtnnnh8SmdU9Ki16mHdggY7ss2MBAAAAANErqwzCjHNSJUmdY6r0FW7/Cpkdlr17/fjdE0xhjFo9vDWyYbhTn0FocfbNPLVN7XdiWojP5Tchg4dOSd+Za0mBwvq6Bvl2R7OstOZ75HsLAAAAAFOBDEIA0TlzUjZu05mESlLl2HuAtW+p80oio7FElV9dcXn34W454rrt3tFuBwf13H7bCA4CAAAAwFRgDkJkgeOAqVQiGYTIS33rUul8YZHU1FQlZWE61YvfTcksBAAAAAAUT4kHCAEAAAAAAAAUEkOMAQAAAAAAgDI2pQHChx+mFigAAAAAAAAwlcggBAAAAAAAAMoYAUIAAAAAAACgjBEgBAAAAAAAAMoYAUIAAAAAAACgjBEgBAAAAAAAAMoYAUIAAAAAAACgjM145tn2L8zjgrpx/Zp5lPDww/Vy6dKoeQaUmmrp2rVKVtZMyPFtvdI7ZhZnUrdU9u1oklrzNC42JJu3nJXczninDSLjJ07Lxr6LZnmy+s4u2b2iSr3nqHpP+ncNRRDpcQ8ru/OlqEqiXwAAAAAAQcggLCR9YXy4W47sWir1ZlEqHdg5ot6zr7PaLLG1bVDr6XU9bvt2dcmm1mrPzwxaL3Hrkq46swJKW92j0lJjP6xd8Yi02Q8Bb5wvKXTAVP3mBfwGAwAAAAAIEE5LtTVV0rx2lezmorc0jZ2VjWt6ZHX8dloGzUs5G/tQBmL2w/ETH0m//RClKMrjHlYpni+l0C8AAAAAgEAECEvc4CH3hbW+HZXNh4ZkXL9Y0yTrUzIP+/cnv/e4FSzQQ2Tdy3MYLospdk16t9jHrSSGi6LEcb4AAAAAAHJHgHDauSajZ87KxkMj1rPa2jnWPQAg1RxZYIZcAwAAAAD8UaSkkJzJ+QMm4/crLqHnEuxutDMI95wxC92y+OzQRTZCqZb61hZZ/8Jsawi0bULGhwflwP6LvoUI6luXSucLTdIcv4j3X8fukxHpWTMg8zcsk5WNejsTqo96VR+pfU1bZq2Wh+T+e1capPPlZtVWs38xtZ03TqntZCoK0iCbDrdLc8aiDIkCE16CCpBkKlLStqFL9Z1q9/Bp2ezRt7kcB7fc1jP7J04/VKt2LZMO1S6ngMX48JBaN+rCFc65uUidm/YSvZ1jx87Kpad0v0nS9yO68yzb4+5Q/dHZIh1NiXbG+/OY6s+072/Y8yX/41DfujypP734bz/XflHqGqSro1la3G2Mjcix105Kf2q/qLbty9C2OPV9WK3O1VTT47wGAAAAgOiQQThN1T+lLoD1g09uTP1Fp7p436QukHev1RflJnhmURfIje2y27Moir6o7lbruC/CtaB1tNnSoS/GrQCNViXNLyyVrg0py9Yuj7RAw4KOLtm9oz0RHNTMXJBHNjSYBaVJBw/9g4Nhj0PY9RTVbw+bc0a3ywmiaLWNTRHPrWkHb+xz0yxS9Ha6d3TJ+iazIE2xzzPTHytSA1umP1VbN6VMJ5C3kMdBB5tT+7OQrEJO6run+z2pjTWL1DFML/CkhW/bdDmvAQAAACBaBAinHZ1ltFzWr7CDFIPnp3qeMXVBbAXO1MPYiBw/dNQ11+FR6TkxIuPq4nrBAvvdjvrOZSbzSWdhudbZdtrMm1glK3d4BV/UhbeV0Wd/vvXemiZZ2ZiyTBbJklZ9H4UqaVYX/DoLqCc+l6Petwn75cZ22RTJthLzx7lvm53thOBkForO1vLIfgp7HMIfP00HdvQ5o46Za93NZti8Pp6dER27Nh3Q82jn5m1DMhjT55IT7EtV3POsvlNnpqoH6juUOMfs7eh+GVdttXYjSb7nS4jj0LrcDjar/kxex8yLKjrz0l7ml+2aE7U96/zVx+/EadlsPttpp95m7YplyUG7Myfj74kXRNHnv2vd+C0le3C6nNcAAAAAEDUChCWueW23HDnsvpksI/Xa+PDpCIbR5scKbOgH1nDBk9KbNNz2mvT3nZSN244mt7NuqQlw6mCLHqLpWmfsovRuSQRfOjyyg8ZPnDLDQa/Ju0N2MMS97Mon1qJIWcMl9591DWfU+9YbD8Y0Ly69LMKk4KDXUM6wxyHP42fRgTBdLMe17uiZk9IzbD+uqY0gW061s6NRP0hv5+jYWdmz5bQMWu30NiXn2dBAypBZPeeo+g5tiSjglirH41BfO9u610Ork9dx5kWNMjBfLV0vLLIeWUO5+5ID3Fa/WNuskpanojlfpsV5DQAAAAAFQIBwGhqP6Uw2HbCa6uzBavl2k7mgfi1gfq2xlMDGAjP8bngwPu9bsmvS+4addVPb9GjasLzYeMrnKe5ll8bDZ9x5m5CB99K3qY2+Z2cxyUNzSmr4YCI4OCI9fvO8hT0OeR4/+3w5Kf3mmVukxy5jO2/IZfPISzHPM+c80tlwmzobpN5vGGukCnMcIguC1T0qLVZW5ZD0+f1DyJmPrAxB7/MsR9PlvAYAAACAAiBAWOJ0kZL4UDWTrVb7yQ3pTw26TQmnQuhNueJ5Qe3NyUIaH79h3Xu6PGEH3vS8XtaCEldC7dQFJOxhmdqEXDKPUoU9DtPl+GXVzlIxdlY2mmHPzSv0nIMmY3iXnnuwWAHDzEbHb1r31tyL7jbpuffW2tl+XoHVUJyAXU2T7E7Konbf2u0M5gjck79LAAAAAJAlAoTFENHF5GjfoD2fVmOz/0T5KG9Ny6wCEjrrypojUQdXSryICgxr2LOe786eu3MwNiHj6rfDCRjuU8dxyrNU48Nl7QIh8UCdnntPLx4+7Z/tBwAAAAAoWQQIC2nshthTnM2W+T4BvYdr7Uyv7LJuLkqflUVYJStfLqWKmP77F6S2do555MHJHor5Z8CVhBJrp1V0w8w5qOdItII5GYqohD0O0+X4BbazFI3Zc3fu2dIrG02BDD1Xoq6iu95v7ruisjOZrUy6OFNExKMQTmhOtt7w6XgWte/Nbxi9I4d/pLknfpcAAAAAIEcECAvqhly2IoR+k+g3yBJTROFy0GRoLqN9p+yJ8kuiIuZFOWdlE2UIWNZVJ70Wn7fPNxMyUZxgfOjD6AIOjrqlsmmXnfm0L6uAS3oVZluO7SzGsMSUgiT9++0qrs1ru9L6OuxxmC7HL9HOR7yrztY5Q+QLLIvjXt8akB04dlH2OHPfTXWw06piLKIrOVvBy/gtvYhIRpn6ZexDGdC/dZFkTGf+R4wpP68BAAAAYAoRICwo16T2K1bJplZXMEPP2bXLDMuLjci7Wc/hl/jM5hemPouw/9iQfVGth7LuWi5d7n1UF9R6Prx9O1YlD3MdOyvHnMDijq60funatUpWWoGbETlWgMqtbR1N0mwCQ7ooRDbBB11Nep+eC848z62dTqBYVz9N/oykedwikB64uCh7TKXXtCBu2OMwXY6fE2DSw2HVuenua/u8jG7+Om9ZHnddPXdtu+w+3GUPI65zf4dUW9X7nfn9pno+RXuevipZkFfV4Gy/D85vnTnP0uZirJa2TnUcD6tja5akS/5HjOR+V+u7z90pPq8BAAAAYCrNeObZ9i/M44K6cT39gurhh+vl0qV7Pw+jbUO3lXXjbUKOb+tNq5rprKOLlOxJm9OrOn6xOn7iqGx0XawGb8vhvc3Q6pbKvh1N9tA7T17bS+yDt/R1vPrEqdabaZlbch8F9YXTxgkZj1VJrWdbs+vLeFXhVHr4ZIZq1M66qcfaLdN74ttP217ux8EWZr1Ef/r1WTb7mv3xU4LOzdiIDH6ySJobkz8jqvNMi/d7qpTjUN+6VDpfSAQ+PaVkh/rJ3Id5HIeM33X1m6T6deCNAek94338tGz7RfN9r0NtT1cPDnUOyIj0rHFXHp668xoAAAAAphIZhEXQv79HNh8aURfOZoFlQsbVxfDmoOCGL3dmYktA9kyRjJ2VjWvswgqe+7jGax/VPmzR/aIrt5pFlqB1oqGzHp1tjp84lXk7sRE5YLU1ef/Gh4ekJ8vjN9rXK5t1/5jnFh3YOF+cjLD40HRrPkJ39lfY4zBNjp8+N7edluPD9rx5NjNf3pYBufyQWVQg2R730TN2gRK7P91ttQNuxw8dzSo4WHBjH8qxpL5MV1uzSFau1RnTZoGHXL4P+r16HkZ9DJPf7xzHgOCgZs4B734dcAUHtak7rwEAAABgKpFBCKBMZc78gpvpLwnKZKyWtg2rrAxMsuUAAAAAYPoggxAAkFndo9JSIxkKdFyTS+PBGYYAAAAAgNJDgBAAkDVdGEYPU08qeKPoYipdG5z5AinkAQAAAADTCUOMAZQphhjnKqsiSHpuv6CiIQAAAACAkkMGIQAgK3bBJbuQSlLBECVRTIXgIAAAAABMN2QQAgAAAAAAAGWMDEIAAAAAAACgjBEgBAAAAAAAAMoYAUIAAAAAAACgjBEgBAAAAAAAAMoYAUIAAAAAAACgjBEgBAAAAAAAAMoYAUIAAAAAAACgjBEgBAAAAAAAAMoYAUIAAAAAAACgjM145tn2L8zjgrpx/Zp5lPDww/Vy6dKoeXavqZauXatkZY3I4KEe2XPGLE7jvG9Cjm/rld4xs7h1uRxZu8g88Td+4qhs7Ev0bduGbuluNE9SjMcmJPbGKek7c038er2+dal0vrBImmuqzBK93ogce+2k9DttcwnaXkLKvrmkb29CBk8MSl/fRY82Nsimw+3SrB6l7rejvrNLdq+o8n0dAAAAAAAAycggLJhr8u7QhPWoprbauvdU96i01Kj72Ii86xFAi1JtTZU0r10lu3ctlXqzzM0Krq1tSgoOarU1i6R7R7fs29DguV5YbRu8tqfauKJdtXG5tJklXmpXtAS+XgiPVS6QHy59Tn73tx3yu6ULzNLCeGzh43KgXW1Hb8u6PScHHl8gj5nXAQAAAAAAokIGYSHVLZV9O5qkNjYkm7ec9c7aczIFh0/L6v0XzULFWR60rgcnoy89a7Fa6lsflfVrVXvUs7QMu3jG4oRa95RaN/GaneWnA3n+mYA2n2xID06mn50xeEr6VFusfaxrkE0vt6ttqcdp+57IINS8sgQLkUH44tIO+ZFuj1vsvDx59rJ5Eq3HHn9OjnzjAfMsxa2Lsvr07+UD8xQAAAAAACBfZBAW0tiHMhBT9zWL5Nt19qJUbYvtYcSD513BwYK4JqNnzsrGQyPWs9raOda9w2nH+Ink4KCm19uz5ahszhD0y16DdFrBQR3I7JU9TnBQG7uotnVaBvXjmibpbLWWJhsesV4vVhbhhx+cl1fPm9sfbpmlBVL5uOy2goO35O0//EZW//KYPKlvvz4vb+tNP9AgRwqcvQgAAAAAAMoLAcKCcoYZV0nLU17DjBtkiTV/34ic852jMGKXJ2Rc3z80J8fhwtdkNKoh0K2P2FmAsSHp89zvi7LHBDKbX/AaDv2R9J3Q/bpIOjoDhm9H5IPJy/L6x+Z2609maWG8+Jg9jHv0D+dl/e8nE5mCqg3rT5+Xt/Xjmm/IDyutpQAAAAAAAHkjQFhgo++NWAG52qZH0wNdTqBs+CPptxYUXv1Ti6whxvLJjaRhy/3nTWahzsrzyXaMSjxbcehD/6HTTiCzpkoetha4PDRHpG+wqFmExbFAlllDmWPyX38/aS1JdlkOWhmMD8hff81eAgAAAAAAkC8ChIU2dkP0KGOvQFd97WzrPnB4cU2T7D7cLUc8bpu8ht/6qpa2zuWy3hnam7rNMyelZ1g/sAuSHNm1XLpaC5GdVy3zH7IfxcYD5gh0hmfLbJnvGbC8WNQswqKo/JpYuxq7Iq9bC2zuwiQfmAzGugdIIQQAAAAAANEgQFhwF+WcCbwtSQroVcu3m3SwrjDDi5vXpgYUV0n3Cjt7cHz4dEoBE1v//h7ZfMLOeNTzJq5cu0qt1yWbOqOtXmybkMt51vgYvdeyCL/2gD28+F+ceQ4XyIG/7ZAj6nb8cRMQVK/prMt69V4AAAAAAIAoECAsAmf4bvPiBuveUveotOjhpJmGF+tKvmt6ZLXHzSvIF2RcfVbPtqOy0V0tOcVo30nZqD5786EhGbQy+KqkeUW77NaBwoJkFObjHswidFs4X75jHhIQBAAAAAAAhUKAsBjOfGRX5W18JJ7p5swFWKjqxYOHEoHEzVYQTaT2kxvSPxYwrNfFrlys1t92Wo4P24VWmteuynFYc5AqWRBBMd57LotQiQcDP/4/5adWMuEteftKnumWAAAAAAAAPggQFoUzzDgxn97DtXp4cf7DbLPhBNGksVm6ci1AMnZRevf3xoOM3lWFc3FNrnxiP6qpDcj6czIs5aZcCayenJxFODp+0148HZnhwwmT8pPTx+TJX74l6z82i9KGIQMAAAAAAOSHAGGR2MOMq6TlKR0Ua5AljeouNiLvBga/ouIE0apk5cvhAnxONeYoxCsme1V2NuLVlmMTcsla4i+eRRjwedPC5L+IdTrUzJcXrQXpHnvgfut+7JZXlWMAAAAAAIDcESAsFjPM2ApitT4izerx+NCHKRljhTPad0qO6zkFa5qk02OYcNuGDHMMLqiyA3ZRcIZc+7RFB1A7nWrLb5zNoo9MAFR/3mKzqJRUPi4H2jvkd+5iI54uyym75LX8b57vWyDrvqGHH8fklJNRCAAAAAAAkCcChEVjhhnXVEnn4tnqwYQMvJfdfIDRuCa9b5hiKanDhOuWSkejPcfgvl3Lpa0uOVBY37pc9q1dZD3OLmCXyUXZc8i0Za2uklydaE9dg2za1W4FUHWBlr4sC7E4WYTNjXY7S8mLjzXId8y0gvXfWCw/DIgRvv7BRbtK8Tf+Ro4/vkAesxeLVC6QA+2L7aIlsSvyurUQAAAAAAAgfzOeebb9C/O4oG5cTw+GPfxwvVy6VKwcuqlX39klu01mnFWdeEtAsK11uRwxQblAw6dltasqcduGbulutIuUpFc5rpauXatkZY3I+ImjsrHPdUzqlsqml5uk2Zr3z9u42lZqBWRne8Em5Pi2XulNGU6tsxa7G01/pIqNSM+WkykVnhtk0+F2afbpO3f/pu1fSC8u7ZAfBfRJXOy8PHnWe0LJ5M+4JT/99Vvyk4ARwo89/pwcsTIFPdy6KKtP/14+ME8BAAAAAADyRQZhEbnn8Svm8OKERBZhWtXfMV21+KhsPqTaaA1zTRjXwbptR9OCg/nq18VPDg3JYMwugGKbkMETp2VzWnAws3gxlhKjswLfNjVFRv9wPjA4qH3w+7dk9Xm9jrsQyS15W61LcBAAAAAAAESNDEIAAAAAAACgjJFBCAAAAAAAAJQxAoQAAAAAAABAGSNACAAAAAAAAJQxAoQAAAAAAABAGSNACAAAAAAAAJQxAoQAAAAAAABAGSNACADA/5+9/4GN4roXPu6fgebSpiqYOAl2CLbfRKh51aSxHRIqK26UGvXyODegXhnhq1aXqyukxNINulRUEFUiSFVAReERfSQnErq6PGp1jbCeCtJYtIJKT12hkBDbbVKpfXmCbBNi5w+xoSoJNwH8njNzZndmd2Z2Z3b2n/f7kdbend3ZmTlnZnbnt79zDgAAAADUMAKEAAAAAAAAQA0jQAgAAAAAAADUMAKEAAAAAAAAQA0jQAgAAAAAAADUMAKEAAAAAAAAQA0jQAgAAAAAAADUsLonnuyeN/eLavaTy+Ze2urVLXLx4qR5BKD8GqRv32bZ2CgyPXxadgydN9NrSPM6Obi3XZrMw5SZMdm1+6xwxgIAAAAALDQECEukpXOd9D7VKh2N9WbKnIwOj8rQ0PnsgEPnBjm6rdW6O3p4QA6cse66rJGdR7qlQ98dPy1bDrmDOE6AZ05O7BmUwSkzuWjSAaVQGcGVru390t9mHgTy24aY2+cq0zDTw8dkx1D2vppdf+q1MxNy/JWTMlL0Mi4hT3BsQga2qu2z7tcQAoQAAAAAgBpDE+MS6NreJ/u3tXuCSyL10tHTLfv3bZAuM8VPxyNrzD2Xzvvs4CBKoqXXr/5EmhpbpX9vvxzcvkZazLSqN/WunJux704PX6i94KA2dVZ2bB2QLanbaRk1TwEAAAAAsBCRQVhkVnCpRweWdMbgKRkaumxnIDWvkZ3PdEuHzrzLzEzyZLtlZ3F5su8qJoOwkOVFeY8CMwijZoGl6kLV3+FTcuBMej+2swp14LBUZY3yMBm7ZBACAAAAABYoMgiLao30WsFB3VR4UA44wUFt6rwc2G0ykxrbpbfTmuoxOj6h/rbKY57n1shjOjioniOrqfi6HrEDtdPD3uCgNnnmrKrDY7KL4CAAAAAAAKhiBAiLyWkKPDMmQ1n9CGrn5cBhHQT0b0rcOD1nBQE9z5n3HFXPoRJclsmEgoM6M/ToEd3kvEH6tvep+/pxn+y0AsR+03w0r7Fed9B6nX07uG+D9HU2mBe46WzM9Osybwd7/ebRzHz71pmm1Q1WM3rPMrc7zyWpQVo6N6jt8S6nq9nO1NXl0qfuOxIpTwAAAAAAagABwiJqaVpu/Z8eeze4WeKlOZnW/9vu8+mLcFYu6f7gXM/Z7zknl9RMucYFQeFG3rIDuE09a61AVPEtl026CXWb099hvXQ8tU76tmdM25bZd6UJeO3ttl7nHmBD95W4cdvm5INgjfWyWjeVV+vbn7nMtnbZnwogJkEHJTfL/m2tanvMJEUvp39vnzzXbiZkiVueAAAAAADUDgKERbS6yQ5AzExn97+YMjUr9pgQy+WerADUrLw+pjMFnWbGDfKtdvWeMxPy+iX9GJE1tst+k32WefMNoJ05KQPj+o49IMnRwGy8pNRLk9WnoR4c45ic0DuHWueNbRnTMpued661Al56ZOWBPcdcA2wck4FhO9s0Owh2WQZ3O69L33aZ1+emy0T3o6nW7XB6mbtMVmxQ0/k4unRAzwoM6r4gXcvaMyajM7rMnGBfppjlCQAAAABADSFAWDQNcs9K/X9OLoUG80yWoI+mphUyOTSabmbcfL+sbRQZfa0SB0qol406gOYTeDu63Wck5ioyckgHzSbsTE+TjWc1S+0tzujFur9Du0/DyyZA7J32/gfWJK8zJ2XXngHZsfukjEy5A9KXZWRo0AQ5/YLQBdIBya2DMujqn3EyFVRVxdWUQDC1eZ1ssgbl0UG9QU9fkJNTuh/I0zIacAxpscoTAAAAAIAaQoCw4p2XN3SwZeUK6Xq0VZpkQt7Q/Rmu8jbpRJ70SLQm+yzzdsC3n0jb5NBJ2aFes+uwzljTU+qlo6db9lv91yWbUeiXceqedjGg/8lUX4jNDdLVuU526n4B99n97NmjXtfLqlXWKxIyJyde8Y6w7Qhax1icfX18NGAwmFkJi8HHLU8AAAAAAGoFAcKicTKTcgVlVsiqHJ0JWv3gNbZLvx4RefyCb0Cm/Jwmmz63Q+fNa6qfPXKx2qY9p+XEuA4s6f7ritC/XwwtOiioB/DYu1n6t7VLh+4XMLDpbfVI9eU5PWv9BwAAAAAAySJAWEROZlJoM8vmFWawkSvyvm92lHLmgtXMWBt9a+EE26ra1HkZPDSY6q9PD3xRjObGeevcIPt1UFDvTDMTMjp82uqLcJfpj9Bp8gsAAAAAAJCJAGERTU5fsf43td8fGDxqsZoNK6GZgefljeE5mZ4Zs5sXo2JMvmn6JiyrNbJzW6v6P2cPFrL7pBwYOm/1RTjp6Y+wuuk+OQEAAAAAQPIIEBaTk/kXOJrrGunVzYaVXJmBeqCJHbvPVmjz4oWra3uOPgYrqS9IPbq1awCPtAa5x9yrKM2mSfSRfjnYG1zGqSBs230ZozAbzbmb6SeisV5Wm7sAAAAAACwkBAiL6rwMOU1Qt+lRbxvSmYTNa2Tnvm7p0PdnxmSIzMDKY42ea/cxeHDfBulq9gaxWjo3yEErc69CRpZubJfnPCMrq/1Nr+O+zbLRGqSksnRtMk2ilaae9dIXNMLy1LtyzhoYplX6rXqwplqs7dtrjqOicUYab5VN7vJVx7B7XQAAAAAAqFYECItscmhQBpzBLHo2y/4jdsbUUR3UMP3FDewuRnCpXjbuNcvyvW3wz8Yqka7t7nXZLButQFHmOvcFB43ibl9je7oO/G7b15gXKlNnZccee9TipsZW6d+72fPa/dvs5uHT46dDR0AuvnQguskaWdlZR7W/Weuo9rHhCev56nRZBl8Zs7MIrXrIqAPd52JR+1i8LK+P+ZSvOob7N7n2FwAAAAAAqhQBwhIY0YNZHJ6QaSsLyTFnBZZ27T5Js+FKNqVHLT7mU3+iHk9YA4HsqIBRmnUgOmsd1fo5fRKOlL+jxCwjx+3gqzY9fEoGgwbp0axgrTNytGPOGoxl1+5zcmmlmVQkVvkOZ/Q3qcv3LUZWBgAAAABUv7onnuyeN/eLavaT7L7RVq9ukYsXy94ws6Raevtkv+53cPy0bKmAwBJQ/RqkTzejbpyTE3sGwwONAAAAAAAgCxmEJTY5NGoPXNLWLQe3u/uLAwAAAAAAAEqPDMJyMINbeEe/LV/2UyqrMS8TMrCVZtGoJGQQAgAAAABQCDIIy+HMSZ/+1AAAAAAAAIDSI4MQQJUjgxAAAAAAgEIQIAQAAAAAAABqGE2MAQAAAAAAgBpGgBAAAAAAAACoYWUNENK8GAAAAAAAACgvMggBAAAAAACAGkaAEAAAAAAAAKhhBAgBAAAAAACAGkaAEAAAAAAAAKhhFREgbOntk4Pb15hHAAAAAAAAAEqlYjIIm9q65ShBQgAAAAAAAKCkKiJAODk0KLuG50TauuVgb4OZCgAAAAAAAKDYKiaDUAcJB8ZFmnrWS1+zmQgAAAAAAACgqCpqkJKRQ6dlVOpl4zPrpMVMAwAAAAAAAFA8FRUgFDkvQ7qpcWO79HaaSQAAAAAAAACKpsIChCKTb07ItPrf8QgDlgAAAAAAAADFVnEBQpl6V87NqP9t90mXPQUAAAAAAABAkVRegFAuy+tjc+r/crmHwUoAAAAAAACAoqrAAKGjXlatMncBAAAAAAAAFEVFBggnp6+YewAAAAAAAACKqYIzCAEAAAAAAAAUW0UGCFualpt7AAAAAAAAAIqpgjMI5+TSJXMXAAAAAAAAQFFUYICwQb7VXq/+X5H3p+wpAAAAAAAAAIqj8gKEzffL2kb1f/yCjNhTAAAAAAAAABRJxQUIWx5tlSb1f/St8/YEAAAAAAAAAEVTYQHCNdLbUy8yMyZDZ8wkAAAAAAAAAEVTUQHCru3d0iFzcuKVszJppgEAAAAAAAAonooJELb09kl/m8j08CkZZHASAAAAAAAAoCQqIkCog4P7ddPi8dOyY+iymQoAAAAAAACg2Comg3B6/LRsOcTAJAAAAAAAAEAp1T3xZPe8uV9Us5+QGQgAAAAAAABUmgobxRgAAAAAAABAKREgBAAAAAAAAGoYAUIAAAAAAACghhEgBAAAAAAAAGoYAUIAAAAAAACghhEgBAAAAAAAAGoYAUIAAAAAAACghhEgBAAAAAAAAGoYAUIAAAAAAACghhEgBAAAAAAAAGoYAUIAAAAAAACghhEgBAAAAAAAAGoYAUIAAAAAAACghhEgBAAAAAAAAGoYAUIAAAAAAACghhEgBAAAAAAAAGoYAUIAAAAAAACghhEgBAAAAAAAAGoYAUIAAAAAAACghhEgBAAAAAAAAGoYAUIAAAAAAACghhEgBAAAAAAAAGoYAUIAAAAAAACghhEgBAAAAAAAAGoYAUIAAAAAAACghhEgBAAAAAAAAGoYAUIAAAAAAACghhEgBAAAAAAAAGoYAUIAAAAAAACghhEgBAAAAAAAAGoYAUIAAAAAAACghhEgBAAAAAAAAGoYAUIAAAAAAACghhEgBAAAAAAAAGoYAUIAAAAAAACghhEgBAAAAAAAAGoYAUIAAAAAAACghhEgBAAAAAAAAGoYAUIAAAAAAACghhEgBACUT/M6Obhvg3SZhwAAAACA0qt74snueXO/qGY/uWzuARXk3sflq09tkr97qFGWmEk33n5Vrr58VG6Yx5mWPvuSLFOvv/H2y/LJy783U3089kO5e2uHeZB2/cg/ydU3zAMgYXnvn5Wgc4Mc3NYqTTMTMvDKSRmZMtPLQQcq97ZLk3mYMjMmu3aflUnzsLgapG/fZtnYKDI9fFp2DJ0308uoIsoFsVF/AAAAyFPNBwiXbHpJ7vjutFxVF9XXzTTUiHu3yB3PP50KDHp8OCpXX/DZJ9zzfPiqfPJCcCDR3rfUlb6Hel/2NeQQ+7wUYf8su1TgYkIGtp6UETPZT0vnOul9qlU6GuvNlDkZHR6VoaHzyQU4EgikZK+nyPTMhBzPN/jpWYfc5VISZQ0wmYCpEMyKrQz119LbJ/t70seA2/TMnMy8dkqGzlzOWnbX9n7pbzMPMoTN54h6noi7nvqHjaPbWs2DYNPDx2THUPq7b/TtWyM7j3RL9s+MwUYPD8iBM/b9sOWlzcmJPYMy6D4/xdw+R8HnQQAAUDY13sS4RZY+3KgupN+v3ItoFEmLfPVf7UCKlWn17D/Jh+b2yZFRuf6H/+MfmHnvrPz3h/rOjHrN2dD95sbxH6be88Nnn5drej72NeRUwHkpwv5ZXg3S94wOWuiL0/AgWNd2dRG/rd1zsSlSLx093bI/yabJU2dlx9YB2ZK6nZZR81Q+rGBD1nqKNDW2Sv/efjm4fY2q2Rym3pVzM/bd6eEL5Q8OagWWC8qswuqvSR0fHds2q2N3Xe7jwSXXfEmfJ+KuZ1ylXl6xJHIeBAAAZVPjGYSPy7KXn5Wlb78sH1Z6Uzwky8m0Klnds68hXwt/X3Eyd4IyUBzpDB+dCXRKhtRrreya5jWy85ludRGq7hctE8pk7+Tz/qmMG7Weh0/JgTPpbbKzafQFs0+mTlWKUC4FI4MwecWvv+Dju0EdD/fLc9vsjMagDDt3FpwtfL6454m465k63iOWYdzt83K6IYh6PokwX8ztq63zIAAAC1NtZxA+9qgsVf+ujxGwqTVLOtZa2YMlq3v2NeRrwe8ra6RXX8yri8+fBV4Ea+Z1yujhQTngXPRrU+flwG6TCdXYLr2d1tSy6XrEbo43Pey9KNYmz5xV63pMdnFRHMMKWZXZSwOqmDqG1fGwY8+YTKtHTe3355lNZuY7PGE9ampaYf23FeM8EXc94wrbvurBeRAAgOpXMRmESx7bIrdvWCtL73auBmbkxtvn5NprR+X6e2ZSgCWP/VCWbeiQJXebCbp53W+Oy7Xjv89oYve4LHthk2sZYZLtKy729t3bIkuf+je53TWIhu4f79rJ/yN/e8Pnd92cmXEt8tUXXpTb7/bfPrvvM5FrL/5Q/qbX615VZv/qKjPdN99/qPl81nmJeu3SiAN+aPnXXyHyrfuMcgkYaCRq/25Z5ZqHOOVSyHEUjdmPPrT3M3u5T6vl2s/e0PtowH6ixd7Poh4PBa6nFqseIm1fAeelBPbPku9nJsskPEtGySeLxXnN+GnZcsge0MPO0tH9952Te7avl41tJrNIBw/ONEhf1jRrNh/5Z1o5mUE5t8nDyegxDzMEv1dmVl2DWv562aS2yelnbnp8TH52KHidW1S5PfdUqzSF7HLBy4+Rgda8Rvo2dcha9zoG9Umm1u1gjnVLcdW7WzpbyUxQdT09PqrKxK8vusLLMx6dNbbWUw96OcePn5WLj+rMNvFkWpVjv44rd4awWYeMfjaDM+wMpz9F97pHOU9kvCbueua1TB+xti+Lc96ovAzCeOdBAABQSSojg1BdoN6xVV+0u68IGmXJQ0/LsudfkmWPBf12qy+s/0vN67641Rpl6XeflTte2JIOImj33qNel89Vh5JkX3Ext09fuN/x/IvWiKSe7bi7Q27f+qLcsclnvia1jerfjZmgq/R7ZbEuq4DtW9Ko13FabqjZdZDj7uef9a63njfrrVuskVPvUK/1BG4UvY13vPySfPVeM8EjYv0VIkrduyxpdC4RvW5E7N/NXa65xSyX2MdRDPeuk79T63ZD7pGv6rq3lmueU5aofVQv07/eveWR734W63goaD3j75+Rtq+A81Jh+2d59jM7y2ROzr0ZfgHZ0rTc+j899m7wBeqlOSvDR9ruy+hjbLls0hfDVsBEq5eOp9ZJ3/aMaduS6cNw5C2T+dOzVrqarbvF11gvq3UTSrWd/a5gltbU1p6jr7Y8A3AJ0EGYo3u7rXL3rKPTJ1lvg5mSFn/ddBCk3/SBZiZZ1LLbumX/kT7pC6qfmOUZjx2syawHvZz+vX3yXLuZkKW0+3WlaXlUlZe+88Fs6pyQylrL5zyh69iaUJn8tq+alOU8CAAAElUBGYRORtuMXD/yv+RqKguoRZY89o+yTF+8yoxP5pW6uNX9dDnZLqO/Twdf7n1cvvqvz6r3FPWe/6Te00z3MPMXfaTPmNunLsKdzCA9iMbVl51sHjXfpn+UO76rn8uez85cagze7tAMQ7Ouosrk5D1W4MBa9mtO2bbI0sdUmXoytZzt0/ftbbymnnfWdala19vVui7JKudC668QBdS9qZdo62WWl1efcnHLJe5xFJNr/8yqdytbTm2D3ieS2s9iHg/x1zNuPWhxjiOHWW7c81Le+2e59jMniyX3CL05s20sToZPOivGmU8HIe1pzjL9pwW/v3nvPLNo0stVZibkxGvnZDCjmV0+cmc1ubdHU9t0+FRqWTo7UAeetKxtczKDsuZZZ/o/y10vkcrFtbzM0WStLEYdIEvViXnCI1odOGVnLc/dB5rOYHym25RZ5jYWUJ4xufdR93q2NK+T3mec4Ka3XMq1X8eRcx929ouMdQg+5hukq3etbOqxA2jp5/PZXs15nbdM465ner8O5rc+0bfPj/+25BZhvpjbpyV1HgQAAOVROX0QfnjOunBPUxfxb7wknzz7vFz1udhc+qy+uB21nruqm8K5n3/v9/K3/3jVurhe0hjwm7/O2tH/SzWqbKTtUxfvJqihL9A/SQVDNDXfcTXfb/RQl43ydx3e7bMzl2bkpvVzuY/QDEOTXShr1fKb1LKft5edeulkVlBjyaZ/swIJVpPGZ1VdqOfd63pdr+uLL8vV//AGOwquv0IUUPd2xlZI+foxywvO6kwruFwiHkdxpTLX/OpdredVs55ytylrj6j7WSHHQ7z1LKweoh9HKQWel/LdP8u3n5k+5Wbm5KI9IUCD3LNS/5+TS5esCQFm5ZIZ9TeT7gfLvgi+LK+PzWVNe/8Da1JiRg4NyK7hCZOp1Cobt22Wo0f6ZGdvEUftVBfgA1vVxb7rAnzyzEkZGLfvNzZ5s/OcrEzdBNU7j9P/Was8llh/jg3S95QTWNN9w3mb9+r1tJdZL2sfzc4ijKx5nTxngoM6AOLpA23qvAzuPiYnrH2lVTb5ZC1aIpZnLGo9N7kCfe71nJzS/bSdltGAfVor9X6dLN2seoMcNMGnoKy/jm396thx3zZLvwmeTY+f9glM5TpPRJXfesYVffuqR1nOgwAAIDEVECBUF5Yfqn93Py3Lnn1clmQ19VMX01kXm4/L3z2k/+vmgf8ld7/sc9NZctZrA5hAWfEHAoi+fUs2bVIX7yI3fqMutgOygG6MnjMX8O43bLGbCqqL96B+wJa2myysGZ+vu05w4u5GuXHEDqaEe1xu/66+2h+Vq2HZTu/9PmN9Eqi/QuRshh2kRZY+rLY3pHx9pZaXuzzjl0uc4yg+JxB9LSPwm/JeSIAr4n4W/3iIu54F7p+RjyOXgs5L+e6f1bOfFWJm2hUgMtzTLk7bwZUkTQ6dlB1b1QXy4TET5KmXjh67aevOzgSCSx5zckL34WceuRWybYkEwbTm+2WtdfiNyVBQwOPMBfXpoXb7JAaBWGWaBY+PBmRHXZbB10wTSN/lFac8s+Rcz1kJi3WVY7+Oq6lHB4e8gTCrWbV6TgfCovRTN632o4E9x2SHT5+ThYq9njqzUB3vW3xuUYN8xdy+2GJuX2nPgwAAIEkVkUF4/WV14f/2jCx56Fm5w7pgfUmWbVIXn+b5LGaUz0LYgbKImWAxRd0+J6jx36MRAgua6W8tOPvIBBCDttsJZIUEYjycQMjbb0YbzCWB+iuEU/eRyzdH/41B7OWNyn/nKtMCyyXycRSbsx/l26dihoj7WezjIe56Frp/Rj2OXAo7L+W5f1bFfuZkQtXLqlXWhACVOcqtPWKnupDec1pOjOuAje4XbrO6OLafL5fJ6SvWf6uPOncfYbrvPZMt5ReAisUJhDW2y35P8MV9083Dk5Hqs3J61vrvqwL6ostrPRcwPTjNicPhgTDdfNUJRO0atgOeTR/MyshU0L6Z6zwRXT7rGVf07atOlXoeBAAAwSqkifGkuuj8oXz4orrw/M2ourg1neRbF57Zv/M7zQZ1c8MPnw2/fXLcL6hQYIAjsijbl+e6pbLSXC/ym+bhBBD8M4wiB85yLs9f4fVXiALq3gRWomV3meXlEVQsvFyiHUfxmf0oLDAc0lQ22n5WwPEQcz0LrYf4AegCz0t57p/Vsp85mVChGW3NK9TStSvyvm82Vpnppq2HBlNBAD2gRJJHYmSp5rL2ACGpQN1eE6gbPx2c7QdEpPv2cwJhzm3H7pOR+qSbHBq1skylrcNngJl0k+rw84TJZg04TySxnnGFb98CUWnnQQAAEKhy+iDU3lMXnro/MX1x+uLLcv1DfeH5byEjocb9ipFH4KAYIm5fsBb56gY778LdbNW58A9qyrrEyRzyDVYVGJyIoSj9C+aUZ5aVD7t8o2Z3RV9eweWS2H4WwOxHYYHhpU/ZTVSzg1XF2M/8j4fC1jNuPRSyfYWdl6Lun+XZz0yfgXlkcDnZbmHNT1Ojfo5fyDGwRnlNvmn65KoI9kW6d330ICKnZdchbz+BBXGy9cZPZwVfsm65BsuIkPHX1LTC3PPhZDXm7AOz+ELXEy7nZcgKLNXLxmeyA0upkXPzOU9UQL1nC9++haSyzoMAAMBPmQOEj9v9WJlHHnoAgZP6d9VGWWx9s0u7MWN/xVjy8Dr/eZUlj6kLdXM/i5M1VHRxts/08SUd8nePWROyuAcGueZqwhg2QIk1urEZ6ME/YBIjcDZtv3bJd//RDjz6uTd7+wuuv0KEZLblYpdvxMBPHkEqR/xyiXccxZUrEK1H0l1m9XHn16w66n5WyPEQbz0L2z/jB6ALPS/lu3+Wdz9zMn6Wyz25smVM/3S6iWqvb5O0NdJrDUqhavCtIvbblUdwqmt7jr61nMBUuXVusEYYPbFnwOojLB2kyx5EJKdc5TL1rpzTweBEMqNy7y+p4EPg8tKDpiQ96ISleZ3s3GdnZB4MGgRFSa/nfdJlTcnQXKJm82VsZh3V5NApe4AZv3NBlPPEa8UZtblQodtXRarmPAgAAAKVNUBoDT6g+7F64SVZlnlBeq+6GDVZQVneMBk2dz+t5t0iS10ZK0vUfF99VgfDXpTbAwIKKQ9tkq+q5TrsedX7mceFirt918esr7uydKs9X4qzbdbAIEEDLzTK7U+5LuL1cl74L2ue629bvUX7B0ziBM7eOyv/bYI3y174oaoH97q2yFK1rnc//2x2s8Ok6i+GJR1rre2MPgiEqj8d+FHbertre5Y89rhn/YPoYEzqdbps3PXqiFkusY+jmOxAlN4/1X7l6XvO1HlqxOGXsjPhYuxncY+H2OtZyP5ZQAA6JdZ5KcL+Web9zM74yWfkWiezRm3VNj0KZkM6u0b3mbfPNIsNGwSjIM4IyXrUW9cInGrZ3v779Ki0dt9aB/fpvv282+UeDbXcAQq7/7t6WVXQqMF5lktqUJB62bhX1596ref5BunqVWVzRJWZmZLtvLxhNYm2s6u85a7mdwcjps7Kcee1ennu59S69e3bLButU8KEHI8wOEa+uja1S4d9ypGmnvXBQVEncKqbeVv7izXVYu0rTnPvosm3/ipJeoCZ7Oap5+WANRp2uc4TSQjbvipRRedBAAAQrO6JJ7vnzf2imv3E/wu5ldlmXeAHePtl+eTl32dfbD/2w9QFvp8bar6rfvNZWuSrL6gLYOuCOpvumyvq4AJB4m7f0mf/y2Q3+ZmRay/+UP6WmSkUWCb266936HWR0Hn1wAqR+v27d4vcETKi6423X1X14BPILKj+4rPLNaD8cgiqy/D95XFZ9vKz2cGdD1+VT/xGfo5ZLrGPo8jMsaP2Kd33nB2Uyha4H8Xcz6IfD8msZ5DA/TPucWQp7LwUaf8s636mLtr14BR6hMxcTUsVnZXSry48fc1MyMBu78izXdv7rSy50cPpkTZbevtkf099zmmZnNdk0c1m3YMX6OyxZ9IBIj/WaKh5DHjgLFP3i+Y/emqDCXbNyYk9g74j4Qa+h1rPg3vbQ7N49OAM5147F9r/Wt7logS+1qEHg3jlZMCIvkroOqv63+quf6dszMMsfmVWQHm6OPudLfi9LGHbpMpj9INW6WjzvkdZ9uuY8ikvP37bmJauW7/3jXqe0OKup87EPWqCXaEyyrOQ7UvLvb86vPtkEJ/3ibl9SZ4HAQBAeZS9D8Ibx3Vn9y/Ltbf1hXzajQ9n1IWtusgOuth84yXT75WdFeewAlIv/lOOi9RJ+dsLz1vLdLvx4ag1b1LBQS3u9l1/WW3DkVHTvNLQ8/xGXYA/GxDcUmWiRxdN874+rAlizuaYQd47qt7fHtXUsx2qLK9Z2+eX5agUVH9xOVlW8fq/u3H8f/mWr7tZa7bfq+15VW2neajo/ezaybOJlkvs4ygypwntcflEHUOZ9Z5az4DgWNz9LPrxUNh6xq2H2MeRpbDzUqT9s6z7mckMbGyX50KaYjpGdOf2hydk2rOqc9aF5i6fi/4kTQ7pjvUz+s3SAa23MkagndKjdR7zWU91ttHBiT3qgr8SLoqn3pXj1miiwZoaW2VjjpFG8y4XRb/WGcXU+3rT76EeDCIkyKHLdoeaf1S93s0eZfZcRv1flsHdA6oextTrzSSL2V+2hgdUCjFyPL3M6eFTeW2TPbKrwymPc3JppZlUJFHqr3Kks+yaetZmZZ3a5wldB35lWtzzRDLCt68qVMt5EAAABCp7BiGAKmIyRiVWhlwJVct61qz8s2DcUplPmZkryIMpcwnL3GyQru2brayjyFlVSEi8YwMAAAAoFAHCEDmb03mMytVnffpcQ8Goh2QVUp7OvEk2wy+GalnPmpZqZpnZTDSMaZ6s7umMsJ8dSnDU3YXOlLfkCPzFbnaJhBAgBAAAQHmUvYlxJXMGOUB5UQ/JKqQ87Xn9R8quJNWynjVNN7PUTdGcwRrM5HD2gAS6WpvaumX/EXvU2KNH+hIYKbc26AE09AAemQMhtOiBPLY7fdMVZyAPAAAAAJWLDEIAeXIG0aj0LM1qWU9YdGbbM/Vy/JWTMpJvtpQOZm3qkI2pQQnItspHXoMW6L7owgYNQZGRQQgAAIDyIEAIIE9mROagEZgrRrWsJ1B6LZ3rpPepVmlsrPeMouuMXvz6mcs02y4rAoQAAAAoDwKEAAAAAAAAQA2jD0IAAAAAAACghpU1QLh6dWY36QAAAAAAAABKiQxCAAAAAAAAoIYRIAQAAAAAAABqGAFCAAAAAAAAoIYRIAQAAAAAAABqGAFCAAAAAAAAoIYRIAQAAAAAAABqGAFCAAAAAAAAoIbVPfFk97y5X1Szn1w299JWr26RixcnzaOFraVznfQ+1SodjfVmypyMDo/K0NB58ZbAGtl5pFs6zKN8jB4ekANnzIMC5b+eSucGObqt1brrvw6ubRk/LVsOnbem2hqkb99m2dg4Jyf2DMrglJlcZNnbJzI9MyHHXzkpIz7r0LW9X/rbzINAmduQ3u7p4WOyYyh732/p7ZP9PfWBz+vy6epdK5vaW6Wp0UwKq4u45emqwzDp9Uxm/4y0nyVSnvmKu31O+ec6Hv3ryVl/P9MzczLz2ikZOnM59BgMU3i5qA+Lf1c3cz8f879Wtz/b9+ueVrf77PtZZtXr3ky/NuVOkUXfV//V87f+tz0pS6d6zaPqv5r/lrvMH1DT/97cD5M5HwAAAADUKDIIS6Bru7r439buCUqJ1EtHT7fs37dBusyUcitkPTseWWPuuXTeFynQUmxWECZr+0SaGlulf2+/HNy+RlrMtKQ09ayNXr/N62Tnvs3S3+MODmqVt8/EUch+Fqs8S+KyDL42Yd3reGpd8H7UudYKIsr4aN5B3CZVTh3bNquyCXnfarZCpO7v1YfRP5vHAAAAAICSI4OwyNKZQTpD6pQMDZksoOY1svOZbunQwYKZMdm1+6xP5pSj+Nl2sdbTk700IQNbT8qIeaR5su/KnUGYWle1fYdPyYEz6f3RzmbTAatc65LvOnuz0Pyyt4Iz3lzzzqgyfeWcjEw5zzeoMl2vyrRebcMxzzbELk+nXHLug2HyX3a846GQ8kxCvtvnvC4oizD4fYLXv0Htn/fLc9vapUk9yno+kfqLr+6f1W2FyPwv1O1jM9GHk0HozipMcWf7uTP6ksggDJsXAAAAAJBCBmFRrZFeKxiiAwaDcsAJhmhT5+XA7tMyqu83tkuvutAtn8LWc3RcZ061ymOe59bIYzo4qJ6z5i2zrkfsQOb0sDc4qE2eOau28ZjsihJYy4fZ9ihZb13bneCgDvjoZs/udb0sI4cG1XpmBgerRYHHQ4zyLK0cWYQxsgf1e+r9c8eeMZlWj5ra7194WYR/Frn1a3P/DvMfAAAAAFBSBAiLyWliOzMmQ779XJ2XA4dNQMGviW6pFLiejdNzVuDG85x5z1H1XHW4LJNJBgctF2RoWG9/q2zqbbAnhWleJ5usjMs5OfFKcDbYpCdoWEWi7Ge+zXQjlmc5nDknJ2bUf58gpx2kVnV73J1Jm6epWdFvK431stqasMA4u7QdPwYAAAAAlBgBwiJqaVpu/Z8eeze46d+lOSszSNruK1tWVOHrOSuXdPTC9Zz9nnNySc2kk6bKbeQtO/BkZZ81W3eLb+UKkaHRvLPeWh5ttZqRRsswqx6pLM589jO/QFjE8iyPgCxCJ/i7QOu2YM5vC9XyewIAAAAALDAECItodZOdDjMzHZLx5WQGyXK5p1SBqwyFr+esvD5mZ3bZzYwb5Fvt6j1nJuT1S/pxBThzUgbG9R17QJKj+zZIX2cpstDO55315tTD9PSs9b+kGttl/xFVLj63nX7NfSNrkHtW2vfC97N35Zy1owUdD/mXZ9mksghb5VtmG7o26T4EY2YPaqnsyzm5aE3IUPT6K546tX5WP4LK/P+z/ydmhXrvf/e/1T1gXgMAAAAAIEBYPE5AZE4uhQbJTPZd2RS+nk1NK2TSZHZZzYyb75e1eqCG10o/aEKYkUMDsmt4wmSotcrGbZvl6JE+2dmb/OjFbk7Z5Jv1lhVAa14nBzMDP1U7om2u/Sy3qOVZepdl8BXdZ2C9bNykj4dCsgf1ICUb5KAZDCg0+7IKWKMVZwbqTHBQLvgMYAIAAAAAKAkChEjIeXlDZ+itXCFdVlPZCXlD9zO3qt5uNlshJodOyo6tA7Lr8JiMWgHPeuno6Zb9OlBYtIzCKsh604OiqHLZ4nPLHo233KqgPKfOynF9PLR1y8Fn8s8ebOrRQWt3MHiz7N9mNz2fHj8dPEJzVdVfhlmxRkG+9ap5nCQ9ivH/9L8RjAQAAACANAKERXNZ3v9A/6+XVausCQFWyKqydtKX3Hpa/fw1tku/Hql2/IKMmOmVyB65eEC27DktJ8Z1sKleOrZtLlpzzChZb41NGUGvqbNWUNMO+JiRfqtWrv0sP5WfRaiOh+Nm5OHIIxd7Tc9MyInDx2THoZjNkyvI/K9dQbo3zUR1+M1/bO4DAAAAAMqCAGERXTQj+GYFfNyaV5hBPK7I+2UavCCx9TxzIRW8Gn2rSoIZU+dl8NCg7LIy0oJGz02CN+ttcvqKPdnFqQfdZHvhcQLRufYzu3l67uMhd3mWXao/xfz7HpwePubJ/tO3HbtPyuCZkH4bq9UZkXn9/z6RujutKf7U4VBn7gIAAAAAioMAYRE5QYum9vsDg07pkWvLl3GX3HqelzeG52R6ZsxuXlxFJt80fRMWUSrrLaCcU+vQ1iF9ZRqwpphSI0nns58FDcbhkqs8UfnmTRZh3f+w/3t8bAKIWkAAse4O+/98Gcb1AQAAAICFhABhMTkZdY3t0uvbdHWN9OrmuEpZM+4SXM+RoUHZsftsxTUv7tqeo4/BkvSVaLLedDk/Yia5pTLO7MEtFlzQK8p+ltcANznKE5VPZxHq4J7OEvQbVdgE/urW2P+z3Gf+L8AESwAAAAAoJQKEReU0gxTp2KZHy21IB32a18jOfd3Soe/PjMlQWTPuqmU9Y7JGkbX7GDy4b4N0NXsDhe5RYos98rKT9dbRZi/Pyxn9Vmnrlv2Z66rud23vsOuiKp2XA4ftLMKk9rPw8kQ1SGUROqMZuzjPiXrOE0C8Uz3+Z3XT9/UgJ/RhCAAAAAAFqXviye5UK65imv0kO8Vj9eoWuXixmOGYyqCz1/rb7MyoLDMTMrD7ZI6Muwbp27dZNjbOyYk9g7EHO8gl8np2bpCjOrA2flq2BA2gEPgaZ5vMw0BquVtzlU8emtfJzmfapSNkedYosRnb0bW9X5WJeRAos17WyM4j3dKhR5bdnR1wbOntk/0mU073OZc1Mq1a14N79ci3QeZk9PApOeDply5meTr1k0tYHUfcP6MfDwWWZ8HiHn/5z+dsQ+T1T6T+4rOCdCvEGoU4LEhX97S63ade82t18xk92HkfeVPkVkZw2Jk3iO+yHxBZ9PfmfpgLannFGD0ZAAAAAKoMGYQlMKIHwTg8IdNW81HHnBWQ2pUzOFg61bKesUzpUYuP+WyfPUrswJ7SjRLrZL0FskYtPiYDwwF1sWcwIzhYXez9bExGZ+ysVducjA7H289ylicqnidT0Nx1zL8qcuvX6k5mP4M6uJcjMAkAAAAAyA8ZhCWWynYqUkZPUqplPQEAAAAAAFAYMghLLJXt1NYtB7dX7kAU1bKeAAAAAAAAKAwZhOVgBsXw9jFXeP+C7r7Ycsujb78irWdciW8fFjT2FwAAAAAA8kMGYTmcOSk79pyWE+PuPtgqULWsJwAAAAAAAGIjgxAAAAAAAACoYWQQAgAAAAAAADWMACEAAAAAAABQwwgQAgAAAAAAADWsrAFC+h8EAAAAAAAAyosMQgAAAAAAAKCGESAEAAAAAAAAahgBQgAAAAAAAKCGESAEAAAAAAAAalhFBAhbevvk4PY15hEAAAAAAACAUqmYDMKmtm45SpAQAAAAAAAAKKmKCBBODg3KruE5kbZuOdjbYKYCAAAAAAAAKLaKySDUQcKBcZGmnvXS12wmAgAAAAAAACiqihqkZOTQaRmVetn4zDppMdMAAAAAAAAAFE9FBQhFzsuQbmrc2C69nWYSAAAAAAAAgKKpsAChyOSbEzKt/nc8woAlAAAAAAAAQLFVXIBQpt6VczPqf9t90mVPAQAAAAAAAFAklRcglMvy+tic+r9c7mGwEgAAAAAAAKCoKjBA6KiXVavMXQAAAAAAAABFUZEBwsnpK+YeAAAAAAAAgGKq4AxCAAAAAAAAAMVWkQHClqbl5h4AAAAAAACAYqrgDMI5uXTJ3AUAAAAAAABQFBUYIGyQb7XXq/9X5P0pewoAAAAAAACA4qi8AGHz/bK2Uf0fvyAj9hQAAAAAAAAARVJxAcKWR1ulSf0ffeu8PQEAAAAAAABA0VRYgHCN9PbUi8yMydAZMwkAAAAAAABA0VRUgLBre7d0yJyceOWsTJppAAAAAAAAAIqnYgKELb190t8mMj18SgYZnAQAAAAAAAAoiYoIEOrg4H7dtHj8tOwYumymAgAAAAAAACi2iskgnB4/LVsOMTAJAAAAAAAAUEp1TzzZPW/uF9XsJ2QGAgAAAAAAAJWmwkYxBgAAAAAAAFBKBAgBAAAAAACAGkaAEAAAAAAAAKhhBAgBAAAAAACAGkaAEAAAAAAAAKhhBAgBAAAAAACAGkaAEAAAAAAAAKhhBAgBAAAAAACAGkaAEACiaF4nB/dtkC7zEAAAAACAalf3xJPd8+Z+Uc1+ctncA6qEDgTtbZcm8zBlZkx27T4rk+YhakjnBjm4rVWaZiZk4JWTMjJlpqPCNUjfvs2ysVFkevi07Bg6b6aXEecXAAAAABVkAWQQ6gu/fjm6b520mCnFVerlVQvKBQucDujo4KBMyMDuhREcbOlcJzv39cnRI+rYtW59srN3jf8x3Lkh9bqdnWaaxxrZ6bzP9jVmmsOcH9T79zWbSRFkr2e/ncWZ73s13y9rG+27TT33kf3J+RoAAABABpoYA0GmzsqOrQOyJXU7LaPmKdSaBul7Rmd7zcmJPSdlxEytZl3b+2T/tnbpaKw3U7R66ejplv05mlB3PJIZAFQ675MOczdJLb1+6ynS1Ngq/Xv75eD2gICm29S7cm7Gvjs9fKEy6o/zCwAAAIAKQoAQAHJo6V1vmqeeksGFkDnY2yf9bTrgNiejw8dklxOk2nNaRnUgTQffwrLL2rKz8LoeaTX3EtS5Qfb3mPU8fMwVTBuQXYfHrHVtauuQb+XMJLwsg7vt+SqieTEAAAAAVJgFECBcIatM07HSKPXyqgXlgoVqjfTqINXMmPxsaCH0pWq2Rxk9PCgH1Dal+rubOi8HdptMtsZ26fVpSjw6PqH+tspjnufWyGNt6p96LsksOCfoqAOzB854y37yzFm1rsdk157BBRG0LS3O1wAAAAC8KmSQkgZp6Vwrzz3VKk3momV6fEyOHz8rFx/tk/09IifcF4F6oADXa0ONn5YthwrMGEliec1rpG9Th6xtq091Sj89MyHnXjsngxkXvg6raZ172/3eQy3vZ2p5mR3at6h1dpenn+nhY7IjM+ARsJ7H/QZkKHU9pETbX7q290t/24QMbD0n92xfLxudzCkdHDnTIH1Z06zZfOg+1rqlo+iDCDRIV+9a2dTuLts5tY2j8rPjqq5DgiG6r7bep3RzTDPBmc9nH0kNkhC4PbqfMj2wg25Wmx2EKWT/TNfhcrWNdrAqdF0dUfbPlPjlaVH7+dFtrf7HS5BIx7spZ7HrQc/b+0xHukntjNovX8sOkMWez2xP6GAYzmvcx22qHMZkpkftYz7PjarnJPM5S/i+FMQ+dlXZRSn71LLMwwzB7+Utz0n1uEudGzZ59ucxtX8GH/uxz7uWGOeXKMeDWrdCz9eRzi8JlCcAAACA0qmADEL7ImK/urh0X7g0tbVL/94+ea7dTMiQ10VOguIvT23f9j45urfbCkI5F0aa7kNr47bNAR3+e+lgjO97qFvmxZXdt1ieF4Iugctw+vrqbTBT0kpdD3H3F5HlsklfrKpts9VLx1PrVN1kTNsW3vda8a2RnWo9+3sy60/VSVu37FfbuNOnHuxy6Td9tZlJFjNfzMEh8hVl/9RBDb2Ndh06Za+Fr2uc/TN+eabZWWxzcu7NfAJUBRzvqix69bGr5vX0t6fud6j5sgf+MCLO19K03Po/PfZucGDm0pxM6/8+TYlFZuWSbobses5+zzm5pGZK8pQw8pbOVlRl17M2/wFJCqXKbbXZR3UzbE8dqvPM/oCm13HPu3GV9nxdwPklZnkCAAAAKK2yZxA6GSL64nL0cDrbpaV5nfQ+41yMhGWdqAuPkmR1OSIuz8m6sbI6zsnIlFMOOqtpvfRbTf10dlv2wAf6AlD3v6Wb9HW06Ywf9bqM92hpvuzNgDLLs8pMlaeTraQzP55TF3fWCKw+y3LPNzo8KkND6YwQKytGX/hWQD3E2V/c89jT7SCjnWGUPW308EBAFmHxt9Gpc7uu3VlA6axJGcvOQErNl1EuVobRM91mWzPqPpEMwoj7p1OG+q56/QlPRp3J9OtplZnMOoi5f8YtzzSnDAKOm0xmPaMd7+790c6q0tmw9rq658vcN+PN5xwPwfu55tSTq0ydbRs+Jj+T9XbdW+9h1kNnir0i8pzepxLKINTSx6+Stc/kz9kXcmYQmvK0zg2ec+gGKwCoZZWda/+MdN71iHB+cS2vFOfrWOeXQsoTAAAAQMmVN4OweZ1scgVu3E3hJqd0/1Kmw/xqduak7NozIDt26+BEevt0p/kjQ4MyMK7vL5d7QrJjdPBFX9Ru8XmPzOaRTnaQbirrvojW/XXtOOzXd5imLuR0oESx+yRLX2xqk2ob7HnrZe2j4dlWRVXg/pIeYOKyvD42lzXt/Q+sSRVhekwHl8wDi6prXQ+79SAL7n1AUeXynLl4zywX3afc4O5jcsIql1bZlCNbLo5I+2dvhwkO6sDEyYxAjz4m1DbuOZYRLCh8/4xUnh6mr7aZObloTwhX4PFuBa8OOUE+zZ5v17C9v/qOHqzkP1+D3LNS/5+TS5esCQFMlqCPpqYVMjk0avU1aL1v8/2yVpXR6GvFCZqPHBpQ2zFhZzSaLMyjR3TmZx6jF8elA8pbM8+hJ039qdVo8u5n8c67cZX4fJ3E+SVieQIAAAAovfIGCFeZ5kbjowFZDuoi1dyrZqkgSXODdHWuk53b++Tgvj51ketkxtTLqlXWK/yNn84RxIgm62LMXODroM1QUBbHmQtWQKCp/f7yNQcrcH+Zmc4uQ/e0i9N2MKWcJt+0AyFNPevtAEg+zSpzlstlGXxNBwyKVH95758N8q12E2h4JSSY5AmsKQXsn7HKs0Dxj/e5wGbMznbIyhU+9Rd3vkKclzd0cEe9b9ejOlttQt7QdePsiwmb1IFj18jFugw7euymrTs7kw4u6f3TnQmXVsg5IrEgWKnP1wWfX4pTngAAAACSVdYAYaovrOlZ6/9CpZuZ7dzXL0f3bpZ+3YeT7ofJ3VdYDlHKZ3L6ivXf6kvPHQzRfUCZ5lxZgTLnArCxXV1wq/X0vZlmoWVUE/vL1FnZsUcHQUwAZK8p/30mY8onwJVXuTh9yun+wKwJycm/PpyRU6/I+76BhgCF7J8xyrNQhR7voeLWX2o+J1M2x48SeYxya/UPqOrEasY8fiFH89lk2CMXD8iWPaflxLgOLtn9LObTj2sxxTrvxlXi83W5zy8AAAAASqMCBilZ4Kx+lkzfeDMTMjp8Wgb2HJNd6rZl60CqiVViUs227I7qUxeMegADPXn8dHDWCSqD1VxaB0GOycCw2mdm1MW3uvB2AlwHtxexaeVCVMryLPXxHoOTtRWa0da8wgw2EhLMNVlq2uhb2SPeFpVu2nrI1YT6qTIPdMF5FwAAAECVq4gAoe7TqmClzlzIa3lO9sicnDhs99Gm+4vSfZNNZjajTJR90WxldKTozuxPy65D3v6qLE72hx5YYOtA+C1Xh/YlqIdE9pdqoPYR3Sffgd2DVvNKnTWlm1fqUUOf8xuhNKxcnKyjfPvSK6rwPjezJLV/RixPm+mLr9zHe9z685nPyXYLa37aYjUbVkIzA8/LG8OqbmbG7ObFZZBqQl0RIp534yrT+bp6zi8AAAAA4ihrgDB1cdd2n3RZUzI0527mlhYx6FCwCMubmZDXPYMxOBrkHnMvMZ0brH7OTuiBEjwXi9md2adMvSvndBCkrUP6Ci7D4tVDsvtLAYoYBG3pDMlmmzovB5y+vlwX6+lyCaq/9KAG02PvpveBqVmxunML2J6W3vWuEUiTYPqtk3rZ+ExIxldzg/e5AvbPOOXp5TTJLc3x7t/sN6D+XCLN52T+NbZLr2/T3DXSaw1KkTszUA+EsmP32aI1L+7anqOPQScwVW5xzrtBcp1fSny+jn1+AQAAAFBVyptB6Fzo6GZZ+7x9N7WoC66DTvOsUN6gg7f/Jz1IQEIdw6fEWJ66EH/OM+Jmg719+zbLRmvQguTY/UXVy6pIo1c6ncyrbdrr1zeb2q5etb5HVB2ZKdlKUA+J7C+FcEZ21aN1uuqzeY13e+PSo4VuswdesJq9qnJza3H1Z+bpD2zqrBx3yl7Xn7us1Tx9ej+zAn0TctwzmEh6e/rdzWzVcvu298l+EyRK0sjxMTvYoPtPU3XY59kvzHGxd7PsV+uTFnP/jFueGay+9tSy8x4RNvbxrvvTM9tnpoTXnyPqfOdlyGmaa83nCsjqMtlnjqOwQTBKwRq13O5j8KB1vGfUny5TU3/FGkE5X/HOu5nyPb+U+Hwd+/wCAAAAoJrUPfFk97y5X1SznwRcOKiLwIN72/2zQHQfXh+0SkfbnJzYMxgwgqIS9h7qomVgq/8IirFFWF5Lb0igRW3fwJhIf0+rjB4ekAMZF+POvNPDx/IfxTh03WzTarnnXjsngxlZTqHrqqn59GiUZa2HGPtL13Z79Fh3GTvbmmtapsAy0s39DhXeD5se4KL3KdOHXZCZMdmV1XSwwXWh7ifgGOrcIEdNkCWT3u+ON21WZec/b6z9U8u5j4YvL5DP/hm/PN3WyE496EPO1+VYx8DjPV130zMiTb7r6lcmceez6ey8/raQdd2dcbw6+0rYvh74mlz7pyPjPKH2lZ3PhNfftFrWjjyOvdz7q7OOwWUW+B4FnHfdAvcfnzKPczx4RDpfxzm/FFCeAAAAAEqu/H0QWqOMOiNSOky/TbvPyaWVZlIY8x568AE3fUF24vC5woNSmSIsb3JoUHYdnrAu4FOs19l9lI1Y6VQJmnpXjnvKMltTY6ts9Bn5U6+rMzqoZ7XUdtr1EXKxqZWiHpLYXwpg1eewaXLn0Nv3Vr4j+YZzRmnddViPvOtXjscCglSXZTA1n5lkUXU5rspmq/8Fuh5cwW//HNBNJdUFuzOgRaJ0HW61BwzxLDfHusbZP+OXp5vJuLMyA8MzxAo73ufk3Ct6Xb3zT4+PqfoIqD9LvPlG9CAfmevq1EFmcLBc1L5yYLeqo6z1tOtPDwCTT3Cw6Ao477pFOb+U9nwd8/wCAAAAoGqUP4MwVO4MBLiZ8pKwTKcG6dqus8LUheCCy9pgf0GxFHPfivveya1TKhvNJ1MNudT6eRcAAADAQlARoxgjIc33y1rd3DC0o/giZYUBC9plGXxF95+o+2EL69utOk0OjdoDl7R12/01WlORF867AAAAABaAmsogzNlnk0dmH0xVINWn1JyMHj4lQ2cuey5Y9aAM39rUIRutfsfKt33Fq4diZnnlb8HvZ7XMDIzRpJu3JtYMt/wZhBZn28xDW3mPpapQJeddAAAAAAhDBuFCMpUebVKP/Ln/SL8cdd327+22L1J1H1N7uEgFIjtzUnbsMSMxJzFydSWxti2zf0/kxHkXAAAAwAJAH4QLkD1ya6s0NtZ7soF05/N6FM3XMzJcFg72F1SjCskgREFq97wLAAAAYCGo8AAhAAAAAAAAgGKiiTEAAAAAAABQw8oaIFy9mrEyAQAAAAAAgHIigxAAAAAAAACoYQQIAQAAAAAAgBpGgBAAAAAAAACoYQQIAQAAAAAAgBpGgBAAAAAAAACoYQQIAQAAAAAAgBpW98ST3fPmflHNfnLZ3EtbvbpFLl6cNI8AlFTzOjm4t12azMOUmTHZtfuslObIbJC+fZtlY6PI9PBp2TF03kwvo4ooF8RG/QEAAABAZAQIS6Slc530PtUqHY31ZsqcjA6PytDQ+ewL1s4NcnRbq3V39PCAHDhj3XVZIzuPdEuHvjt+WrYccgdVnIDLnJzYMyiDU2Zy0aQDPKEyLs67tvdLf5t5EMhvG2Jun6tMw0wPH5MdQ9n7anb9qdfOTMjxV07KSBHKONL+ElcCgZSCy8WzDhMysFXNZ90vo7IGmMz+LQSzYiNACAAAAACR0cS4BLq298n+be2eIIpIvXT0dMv+fRuky0zx0/HIGnPPpfM+OziIkmjp9as/kabGVunf2y8Ht6+RFjMtCYXsL5FMnZUdWwdkS+p2WkbNU/lIpFym3pVzM/bd6eEL5Q8OagWWC8qM+gMAAACAyMggLDIriNKjAyg6A+yUDA1dtjNYmtfIzme6pUNn3mVmtniy3bKzqjzZdxWTQVjI8qK8R4EZhFGziFJ1oerv8Ck5cCa9H9vZczpAllxZx9pfEmMyU/N5/xKXS3lFKJeCkUGYvFLWHwAAAABUJzIIi2qN9FrBHt1UeFAOOMEebeq8HNhtMlsa26W305rqMTo+of62ymOe59bIYzo4qJ4jK6b4uh6xA7XTw94gmDZ55qyqw2OyK7EgWGH7SymVtlxqyQpZlau5PgAAAAAACSNAWExOU+CZMRnK6kdQOy8HDusgoH9T4sbpOSsg5HnOvOeoeg6V4LJMJhUEi7m/6IzSo0d00+MG6dvep+7rx32y0woi+k0rBb9y0dlxej38bwd7G8zrMpn59q0zTZYbrGbYB93zbnee89fSuUEOhixb34KXH0PzGqvcPeuom4c3m+fdPOvWbe8Dje2y3zVv6rbdp8sBRWdt7vRsn1p2YBPvwssznoasetDL0WWiM2f1Ove5yqcy92sAAAAAWJgIEBZRS9Ny6//02LvBzdouzcm0/t92n0/fcrNySffP5nrOfs85uaRmItGo+EbesgNyTT1r/YM7CSpsf1kum3TT1DanP8B66XhqnfRtz5i2LZk+DEtZLimN9bJaN7VW29mvtsk9CEVTW7vsTwW8vOw+HVulqUQHjBXs2tttlbtnHZ2+GX0CkfHXzQ722X1BmkkWtey2btmfEXTziFme8ej13JxVD3o5/Xv75Ll2MyFLafdrAAAAAKhVBAiLaHWTfQE7M53d/2LK1KzYYzQsl3uyLuRn5fUxnSnoNDNukG+1q/ecmZDXL+nHiCwoM0vdfLOQzpyUgXF9xw7uHN23Qfo6E8w0cylsf6mXJqvPPz0owzE5oV+ktnVjW8a0rCbrMcUql8syuNs9eIR92zWcbzasXpbuh1Ft0+Fj6flNVqVv0+vODVbwSwfVvfOM2YFWq49Pe5rf6NWRqeWl+5A8LbvMezvrqZfZ1LPeG7RTZem8JjWghu4vzzVv6ubpb1QHI9eLPYK47gsyvX1b9pw29V0vG/cGBc9ilGdMXTqg57Oeu/aMyeiM3nftfT9bifdrAAAAAKhRBAiLpkHuWan/z8ml0GCeyRL00dS0QiaHRtPNjJvvl7XqInv0tUrsaF8HIrwBt9QtoFlktRg5NCC7hu3gjjS2ysZtm9V29cnO3iRHLy58f9H9Adp9/l02gWXvtPc/sCYlpjTlkmFGB/QGZdDV7+FkKlipVqPJG6R0sjJ1n47eec7KDisQlmRgqUH6nrL7ZrT7kDzvOU71etrLrJe1jyYQZG5eJ8+ZYKQeDMbTF+TUeRncnQ6ebQpqPh2xPGNR67nJGlQpez0np3R/ladlNGCf1kq9XwMAAABALSJAWPHOyxv6Yn3lCul6tFWaZELe0P3TrfI2CUSegjKz1O2Ab79/tsmhk7JDvUZnntnBjHrp6LGbcO4sUkZhVH6Zh+5pF4vQb2Vpy2VOTrziHdHbUci2JRIE00wAP7gPSeXMBSvg39R+f+FBVOccMD4aMBjMZRl8zTQF911eccozS871nJWwmHg59msAAAAAqDUECIvGyWypl1WrrAkBco9aavX31tgu/TpbaPyC7wV9+TlN/nxuGc0iq5k9Qq/aJt2Ec1wHJnT/Z5sTGCQhuf2lHIpXLoWZnL5i/bf6qHM369V9722zs/1Cm3RH4QTC1LEa1Iw9NQhJAlJ9Vk7PWv99OX1W6v4GrQmll9d6AgAAAADKigBhETmZLaEZSs0rzGAjV+R93+waxWQdaaNvLZxgW1XTTTgPDab6z9MDJxSaEZbY/lJORSiXgmT2legE6nTfe3ry+OngbD8AAAAAAGoEAcIicrKXwpoTtljNhpXQzMDz8sbwnEzPjNnNi1ExJt80ffAlILn9pfySLJfC2cFK7/qYQUQOefsJLIiTrTd+2j+T1n3bnaMf0QgZf7qv0kBOVuPMnFy0JpRP6HoCAAAAAMqKAGExOZl/gaOBrpFea5CB3JmBI0ODsmP32YoOCi1EXdtz9KWXZF+QCe4vBckjOFXScimENYqxWM3fdV+J6SBd9iAiOeUql6l35Zzuh7GtwztKcSx+o5p7pYKwgctLD5oyPfZu8gMbNa+TnfvsjMyDQYOgKOn1vM9/NOXmEjWbL2MzawAAAACodAQIi+q8DDlNLbfp0V0b0plhug+0faaZY9igBigfa/RVuy+9g/t0H3beIEhL5wY5aPqxS2Zk6XLvL84IyXrUW9dIxGrZ3v77Sl0u8dn939XLqoJGDc6zXFKDgugRvXX9qdd6nm+Qrl5VNkdUmZkp2cygRPo9nlmXUe5qfndQduqsHHdeq5fnfk6tW9++zbLRCrxNyPGhhPpZdOna1C4dJrDX1LM+OCjqBE51M29rf7GmWqx9xWnuXTT51h8AAAAA1K66J57snjf3i2r2k+wL1NWrW+TixXKGD0pDZ1v1t9mZX1lmJmRgd8ZIouqi+agOsOimikEDfAS+psEVGAijlrvVfwTTaJzl6UFKBgNGKc3Wtb3fyuwK5/eeMbfPKa9cMstTZ0k9kw6E+JlW8+xIcCCWqPuLU5ajh9MjMbf09sn+nvqc0zI5r8lSxHJxljk9fEx2+Aaycu9jge+h1vPg3vbQbMZpVabnXjsng2eCg2h5l4sS+FqHWp4ePTjwWAld58zjNtfxEHYMxShPF+8xnOP4D9smVR6jH7RKR5v3PcqyXwMAAABAjSKDsARG9KANhydk2spiccxZAZRdmcFBVJYpPTrvMZ/6swNLA3uOJRoc1Mq5v0wO6QFGTJNQhw5ovZUxAm0ZyiWWqXfluDWqcrCmxlbZmGPE5bzLRdGvdUZz9r7e9Huo6jAwkKapst2h5h9Vr3fT5Xri8LmM+r8sg7sHVD2MqdebSRazv2wNCdoVaOR4epnTw6fy2iZ7hGuHUx7n5NJKM6lIotQfAAAAANQiMghLLJXJQuYK8sD+UgiTKSdjsitwUJAG6dq+2cpUC8uWQzHlzmgEAAAAABQXGYQlNjk0ag9E0dYtB7e7+sMCfLC/FKD5flnbKDkG6LgsF6fDMwwBAAAAAFjoyCAsBzOIg7c/rvJlzwT2z+Ursw80FF2F7S9VI9Xv3ZyMHj4lQ2cuewKFLc1r5FubOmSj1d8j+3X5kEEIAAAAAOVGBmE5nDnp0x8XEID9JR7XKL96xOX9R/rlqOu2f2+3HRzUfdHtITgIAAAAAKhdZBACWNBaOtdJ71Ot0thY78nCdEYvfj0jsxClRgYhAAAAAJQbAUIAAAAAAACghtHEGAAAAAAAAKhhBAgBAAAAAACAGlbWACHNiwEAAAAAAIDyIoMQAAAAAAAAqGEECAEAAAAAAIAaRoAQAAAAAAAAqGEECAEAAAAAAIAaVhEBwpbePjm4fY15BAAAAAAAAKBUKiaDsKmtW44SJAQAAAAAAABKqiIChJNDg7JreE6krVsO9jaYqQAAAAAAAACKrWIyCHWQcGBcpKlnvfQ1m4kAAAAAAAAAiqqiBikZOXRaRqVeNj6zTlrMNAAAAAAAAADFU1EBQpHzMqSbGje2S2+nmQQAAAAAAACgaCosQCgy+eaETKv/HY8wYAkAAAAAAABQbBUXIJSpd+XcjPrfdp902VMAAAAAAAAAFEnlBQjlsrw+Nqf+L5d7GKwEAAAAAAAAKKoKDBA66mXVKnMXAAAAAAAAQFFUZIBwcvqKuQcAAAAAAACgmCo4gxAAAAAAAABAsVVkgLClabm5BwAAAAAAAKCYKjiDcE4uXTJ3AQAAAAAAABRFBQYIG+Rb7fXq/xV5f8qeAgAAAAAAAKA4Ki9A2Hy/rG1U/8cvyIg9BQAAAAAAAECRVFyAsOXRVmlS/0ffOm9PAAAAAAAAAFA0FRYgXCO9PfUiM2MydMZMAgAAAAAAAFA0FRUg7NreLR0yJydeOSuTZhoAAAAAAACA4qmYAGFLb5/0t4lMD5+SQQYnAQAAAAAAAEqiIgKEOji4XzctHj8tO4Yum6kAAAAAAAAAiq1iMginx0/LlkMMTAIAAAAAAACUUt0TT3bPm/tFNfsJmYEAAAAAAABApamwUYwBAAAAAAAAlBIBQgAAAAAAAKCGESAEAAAAAAAAahgBQgAAAAAAAKCGESAEAAAAAAAAahgBQgAAAAAAAKCGESAEAAAAAAAAahgBQgAAAAAAAKCGESAEgCia18nBfRukyzwEAAAAAKDaLW5p/f+8YO4X1WeffWruAUDa0mdfkjv+dassXf2RfPbWRTO1QnVukIM//P9K09+uyLl335Wpq2Y6Kty8PPzATem+95a01NXJ/+9vdWZ6GX35ljz94E1Z23hLHnLf6kXeu1wn183LAAAAAKAU6p54snve3C+q2U8um3uVZcmml+SO707L1WdfKskFWamXVy0ol+oWu/7u3SJ3PP+0LNH3P3xVPnnhqNywnqhAOnNwb7s0yYQMbD0pI2ZyNauvvyUPrZyXe5c6HwN18t4Hi+TtmTqZM1NS6m/K91vs1703uUR+l/WCefl22025V9+9slh+MeEOwtkBum8srZM//WWx/OEzMzlP2esp8tfrdfLO5GKZyOe9dDDu67fka9aDOjkzruaz7peRZ51cri+S4T8vyi7/RJn6kFIsq3Raevtkf0+9eeQ1PTMnM6+dkqEzl2XSTHN0be+X/jbzIEPYfI6WznXS+1SrdDQ6y56T0eFRGRo67ztP3PXUP1Ac3dZqHgSbHj4mO4bS37mib98a2XmkWzrMo3yMHh6QA2fs+2HLS5uTE3sGZXDKPNRibp8jux709k3I8VfU+dq9HAAAAPiq8SbGLbL04UaRD98vUVCi1MurFpRLdSug/t47K//9ob4zI9f/cLaC679B+p7RwUF9UbswgoOtrTelp+WWJ+imA0f3rlTTH7gpYZfp9y73+V2pXr2XuZuk+ka/9RT5mnrc+fUb8nTrvPiHWlw+q5OLJnL91w8WlT84qH22SF4dXyK/SN0Wy3vmKSSvqbFeOrZtlv371qkzVv5yzde1vU/2b2v3BKXUXisdPd1qnuhdEcRdz7hKvbxisYKuWfWgt69V+vf2y8Hta6p6+wAAAEqhxjMIH5dlLz8rS99+WT58+fdmWjGVennVgnKpbgu//pyMn6DMlWpjBd1W6lN/Rsbgl+fl2y035d6l6n5mJpsrg9AvC6+19YZ0LjcPksogTC1TrefkIvndXPo97axCHTiMl5VYeUwGJhmEsQUfpw3S0nm/PLdNB/mDM+zcWXC28PnSmYA6Y/CUDKnnrCy85jWy85lu6WhU92fGZNfus55swLjrmcqw83nPMHG3z6tB+vZtlo2NPpl/oSLMF3P70pmHqh4On1Lb6KojK6tQBw6jrjcAAEDtqe0MwsceFes6eKxEQY1SL69aUC7VbcHX3xrp1UEAddH6s8CL52oybzXX1d6bXCy/czcn/qxOfvdnk8m21O4PL9N7V3SQbl5We55Tj3VwUD2XZBZcq8lU1Fl/7uCgNjenpql1HV4QwcHSW6YP2ppxWSbPnJUde8ZkWj1qar8/z2wyM99hOxTe1LTC+m8z5wVl9PCgHHCCg9rUeTmw+7SM6vuN7dLbaU3NQ9z1jCts+6pH1yN2vvP0sDc4qOntO7D7mOwiOAgAAJBTxWQQLnlsi9y+Ya0svVv/5K7NyI23z8m1147K9RxXnEse+6Es29AhS+42E3Rzxd8cl2vHf5/RZPFxWfbCJtcywowm0B9eEstrkaXP/pvc/lCj3U+bcuPtV+1yafqh3L21Sa69+EP5W0YZ2X3CSfq5e9W6/KtrXT5Uy/sPtbysso23PK1y60Frka++8KLc/qGd5Wbvb0+rdbCfvaHK45pvedhil+e9qjyf8panfu21k/9H/vaGX35EYeup5V8PadG2r4D6U+t291afnq0i9D8Ya/sKOL842Snh2TUZvjwvD6+8JauXz6f6mNN95l38YJH8ISPQlZnNped9yN2kVs2ns/wyA2Sx53Oy8sIy1ZzXuDMBzTQdrLuqM/d8ntPLk8znLPEyCJ2sxL9+sFhencnc/iDOsszDDMHv5S3POfW4tfWWPOiuwyuL5PcTwRl39aocHl+pXh8SfAtbfuQMwoD9zLdvRrVuT+dYt5Ss+rOlszbNBKkzZeLTZ2UC5RlVcGaew+lbz9uPaHCGneH0P+rObMsn2y3gNXHXM26GXazty1K5GYTO9kU6RwMAACBLZWQQqgv+O7bqIIg74NAoSx56WpY9/5IseyzoN3QdqPgvNa87WKA1ytLvPit3vLAlHZTR7r1HvS6foIaSRH94hS5PD+Dw8ouyzB1cUlLl0q4DLdNywyfAsaRRL9d+Tgd/7n7+WW/56vLKnC90eT8MWV6F14N27zr5O7VuN+Qe+eqzL5n9zTynLLm7wyrTrwZ0ohanPHUg647ns8tT1LJu3/qi3LHJZ78uaD0j1oNLpO0roP6WNOqGbNlu5NX/YMzti31+sdnZKXNy7s18Ljzn5eHWm/L9r9+Ub7gCIZruM+8bLTfl2z5ZeRb1/EO6X0A1r6e/PXX/XjXf91td09wizldvgjt/veIX1DGu18lf9f/lt3z6IqyTqzri63rOfk97+jJrSjImrGxFVXYr1bK+bN0tPlVuy3VT6wduSmdmHapt7nnglm+fh3afjnkG4BKgm4kH7WdW34yN2ftL/HXTwb4bpi9IM8milr1cbXfbTXk4qH5ilmclaXm01WqCKx/MpoJWqay1sXeDA1mX5tRZVWmsl9XWhMrkt33VZOQtkwHZs1a6mq27AAAAiKECMghNxtTdM3L9yP+Sq6msqhZZ8tg/yjIdDJAZn6y1x+1+z5zsodHfp7cm2nMAALkYSURBVANX9z4uX/3XZ9V7quvcI/+k3tNM9zDzl2zk1KjLc7ZPUfNc/Y90ppOVQWWVi+L7fqZMRT138h4roHLj7Zfl6mtOGbXI0sdU2Xgy2NLLS2UM5rW8KqkHtQ3pzDV7X7umtt9anpUtp9ZBB518+9GLUZ6u5VmvVe9pb5varzf9o9zxXf2cz34dez0LqYc4+4ujwPoz2xu8fzjibl/c84vDyX7Jc+RiJ8vOyuJaJBOfOVlY89LaeEs6Tb9/3v77TKaVCbzorKp3PtDz6kfu+XSTYPfowfHmc7Ly/EcidphsNrWuqYy/VAbhYvm93LL6MLTfw5Uppor3cT0yb1J9ECqevg1Vuf5JbWN2FmZuTr+LOTMIUwEwtSxVh86ydHagDgBqWWVnyiZ7nlvyeIseqTifkZMjZBC6lpc56rSVxaie08sMLuto2YqePivdfUHqDMYWp8zC9+tI5RlTzsy8gAy1sD76unrXyqYeO4CWft45L4Rk5Vn8s+firmdqegi/9Ym+fX5KmEEYImgdnW20zEzIidfOyWBGc2MAAACEq5w+CD88ZwVC0iblxhsvySfPPi9XfS7elz6rgwWj1nNXddNC9/Pv/V7+9h+vWsGKJY0B2UE6C0r/TypDLZeIy7O3T9GBoBe8zSCtcjli9W4U8H73ymIdRJK1smxrk1w/8rx8ogNUqfeYzAr2OMvTgaFPXg5eXmamV7XUQypzTQeynlXr6gTdNLWeV816yt1mfTyilufjVuBJ0wEr67XWI00t97gqz9/MqPuN8ncd3nKJu56F1UP0/SWlwPqzt3dGblppNsEK3s8inl/SVsgqnXg4MycX7Qnh5nSfeEvk1T/rJp7uIFSdTMwsljNX7EfLArKtrODVhBPk0+z5hj+w38t39GAl//nmTd9zJgswRNDzOgttbmaRlVBqve+X52W1mqYDVQnEeLJMTCyxtsPKaFxqZ2F+v+2mfLsxj9GL47puB7vcgcg5Vbep+lPr4eZkZeo+Hb3zLJJXJ/XjzD4bCzEvD6cCvxl9SCp6PVPLDNhfIvnyLavZtBXg+4tanmv7dJ+Vf1D7+p+sfWVeHvTJWrRELM/k6cE4NshBE3wKyvrr2NYvR4+4b5ul3wTPpsdP+wSm5uTSJXM3EfmtZ1zRt696jBwakF3DEyZjs1U2btustq9PdvYyejEAAEC+KiBAqC7UP1T/7n5alj37uCzJajo56dNH2OPydw/p/7q55X/J3S/73J5/2ifQ49JkBzZKNrBClOXdu0Vu19ung0SeLLFsvu/nBG3ubpQbR+wgUyjX8nSmW5gbM+73qp56sJvQzsi1/wjIcnsvJMAVsTyXbNpkB1t/87x6rT0t043Rcyag5d3h461ngfUQdX9xK6j+WmTpw2p7Pzznc4y7FbJ9cc4vhZlzgnRfnpfW+lvy7dab8vQDOqjlZMI5QbpMdXLRNKnNNKemOwGy7DhT3PkKoZep/qn31QOJ6Gy1izpKpR67m5AmZW5msbw6vkSGJxfJeyYYde9Ku2nrt+uTDi7pTDf/bL8r1/3LOR+JBcFMQFb3Ifl2UER2zg7gfk3VTcH17tTplUUB2Yh18gcTiPZfXnHKM0xTjw4OeQNh+7elA2FR+qmbnhmTgT3HZMeh82ZKcmKvp84s3DogW3xuUYN8xdy+2GJu3+TQSdmhXrPr8JiM6t/g1N7Y0dMt+3WgsLPBeg0AAACCVUQG4fWXn5erb8/IkoeelTusAMBLsmyTupg3z2cxo6YWYqnVn17uzKWkRFneko611raH9csWmnllgjZhASq32MurmnpoMX3W+ffXmFPU8jRBvv8ejZr7EXM9C62HiNvnVlj9mczFXNmHBW5f5PNLgXSz0m8/cMPqH65T99mmA2hJBYfU+zitbSNJzedkDgYFKdNyPW/1D7jUNGO+sihH89lk2CMXL5Ff/GWx/MkKitr9LAb261gicybbUq+Lp69E3feeaUZ7NalgmBOwU2Xf06b2M9+bbh6ejFSflQEZpRa1bU4gOtb+WQLTutnp4fBAmG6+6gSidg3b0demD2ZlZCoooFgvq1aZuwnJZz3jir591ckeuVht557TcmJcb2e9dGzbLDvzHk0aAACgNlVIE+NJdRH/Q/nwRXUh/5tRueEMOmBdyGc3DnGaYermmx8+G3775LhfkKbAgFFk0ZaXO8BkMq8C3s8J2uQboIq7vOqpBxOIevvN4NGQQ5rKRivPPLfJCcrNuF8Ubz0LrYeo+0tagfVnAn+5sg8L38+inV8KYvWrZgZyuK77h1ssZ/6imx0vll+ML0k1qSwnJ2srNKPty/OpwUau+maNKSZLTXsvIIOxaHTT1glXE+qVZR7oItVc1h4gJBWo0wPH6MlXFgdn+yFxum8/JxDm3HbsPhmpT7rJoVGxOtZo65C+rIEvLsv7H9j3GptCMtOa75e1+qNTrsj7Pn3vJbGecYVv3wIxdV4GDw2mgqEdT61Tn1oAAAAIUjl9EGrvqQt53T+bvth/8WW5/qG+kP+3kJFl437VyyMQk6iklxeWeVWEoJsZWTco06vi68EEorzBOK+lT9lNVLODVcUIYrbIVzfooJxeJ1dAq6D1jFsPhWxfYfXnm5UaIv5+ZkQ8v9hm5ZLVXWQ+o5A62WJ2k8pf/NnuH073RTjn6Y8wBidr7HqdRIox+sznZLuFNT+tt5oNK6GZgXVyUfcNeH2R3by4DFJNqCuCXcfe9bGDxMMTISNGR+Vk6+mBYMaXhN9yDUASIeMvdATkuPtnRTsvQ1ZgqV42PpMdWEqNnNt+f9ZzjtTowPn2YVpS4du3kEy+afomBAAAQKgyBwgft/sFM4889IAMJ/Xv242y2E4gSrkxY3/VW/LwOv95lSWPtQQ+l8rCKpVYy8vebltLegAT34BdWPAwTPaAGRZrhFjTv1vGe1ZLPTgZaN7+E130KM1WH3ej8t9ZTWyjlqfp80465O8esyZkWbLp36wRd3Wfj9dcy4u7noXVQ9z9RSmw/uzM1dyByfjbF+/84uVkCi2Xe/LNsrleJ1PugRxS0ll5Qfyb9aYHpfjrFf9AU6T5nMy/pbfkId8I4bw85AyCkSMzUA+E8uqfi9e8uLU1Rx+DTmCq3OpvWv1L/kkPUOMJ0mUPIpJTrqDdZ3VyUQd5l9+ShwMGu4kiaMAcRyoIG7i83PtntZocOiUnrB8I2qU3s3nqmQt2Bp7fc5Y10ttjH2Cjr7lGIq4godtXRbq25+hjcFW9HagFAABAqLIGCK3BHHS/YC+8JMsyL/DvVRf3JssqyxsmY+nup9W8W2SpKwNoiQ5oPfuS3LH1Rbk9IECT8tAm+aparsOeV72feZy4PJd3Y8bqXVuWbv2hd9se2yLLXnjRBIn063wiKz5NUHO5PmZd5siS774od2x6XC1T1YVTjs8/awezlKystSqpBzsQpcvzv6ztS+9nOtj6ktydGnH4pexMuALKc+lWe79Occrku3aT7syBSGKvZyH1EGP7ssSqP7WPWftVh9zuaua75DG9/5kHjpjbF/v8ksHOFKqXtY/m2cn90lvyuGeEXXW/3h6o5BuhkR/Tn5573i/Py8N6Pqsw6+SdGf/AY7T56uRtp2muz3zfVvNZRRw2CEYpfPmWPLjc3jZddq1q3dysMjX9+xVrBOV82f30zcsytb6FcPqH1KMBu+vE06+hqj97UJB5+cbXTf15nlevb1Rl06bKzEzJZgaZ0e/Rciur38RWd1D2s0XyjvNavTz3c6H72UJwWQZfs8Pf2c1Tz8uBw+a5bXq03Ib0881rZOe+bnV2U2bGZKhiRwcO274q0bxONrXZfQwe3LdBupq952n3qNCVGqgFAACoFHVPPNld2BVNnmY/8e9TZ8kmJ2AS4O2XrZF8s4IXj/0wFTDxc0PNp0fk9Q96tMhXX3gxFfjKpPs6izpYQ7ioy3tclr1ssgQzfTgqV//QJMu+K3LtxR/K3zJjhKZc9IAT/v2x+Vv67H+lAo9uN95+Va7NrM25vCDlrwezDJlR69BoglLZAssr4fK0zfiUZTLrGSSwHmJun62w+gs69n3ni7l9sc8vHupi/4i62Ncja+4Ov8Csb7wpPSabKsv1OqufOj2ox3uTS+R3qYhWOsiiB4Lwb8pZJ3/6y+KMUWTjzmfT2XmdQQEtva5/zhh5tv6mfF8H5HTT1omAQFDga9yBpDBqueOu5X75lnzb6dMxwF/Vsl4NWh8Xp27++oF6fUCg1V7H4DILfA+1nk9//VZoNuNfVZle/GCR/ME3u9QWuP/4lHnovqap5emm7v4jDyuh65xRDznrL2z/jFGeMbX09sn+nnqrb78oIxV3be+X/jZ7EI/sUXIbpG/fZtmoTiN+76uz1/rb0j8HeMxMyMDukzJiHjrirqd0bpCjJtgVavy0bHENclLI9qU5r5uTE3sGZdCnT0WHs7xwPu8Tc/ukeZ3sfKZdOkJO9dao0JU0UjMAAEAFKnsfhDeO68EDXpZrb+vASNqND2fk+pHngy/e33jJ9CNmZ9s5dEDr6ov/lOOif1L+9sLz1jLdbujgm5o32eCgFnV5v1fT7TJJccrjhZfMdvk3zczZTDXA9ZdVmR15Va7retDLsspRl/9ZWRIyIErl14PThPa4Kjt7NFvPfuasZ0BwrLDyHFXbYiZoulx/87J88qxPoLXA9YxbD3G3z1ZY/d04/r+s7Uyzy8fd7Dol5vbFPr94mL66Gtvlud7wLMK5mcUyPKn75TMTNBOo0X0STrinZ6mTi5NLsub/65VF1kAngYGemPNN6EE+MtdVvZcOuA1nBgfL5TM9arHfetoBN719+QQHi+6zOnknR3NsPZL1N3TGZkAsSbP2H92vo3ls0fuPT8d++rXOaM6Zr7f6PVTlFrzPKKpsX1Xzv6de76bL9U+Tmc3G6+QPf9b72CL1ejPJYvaX8RzLqmrpLLumnrXSZd1LG9GDYBwek9EZdw7rnIwOn5ZdPsHByhO+fVVhSo9afEzVw4RMez8irFGhB/YUZ1RoAACAhabsGYSodCab8cNX5ZMXvE1iq8K9W+SO558WiZUhV0LVsp41K//smehyZ1r5iztftlQ2mk+mGnIx9SCLZDhwUJB5k7EpiWXLAQAAAECSCBCGyNk80WNUrj7r04ddlXPKIF4T1GQUUg/OvMk3G09WtaxnTWteJwf3tkuTTMjA1iQzg8ofINTv9e02u+9BnRH2+4mFNdhEUZmmupIj8Jd0c1oAAAAASFLZmxhXMmfQiAVNZ669/JIs8wyKoXgG1BiVa2XMaiukHux5Z+SmPRBuxaqW9axpU2dlh27CJq3SrzvDN5MXhjr5nW7Gq+59bflN6Wm7Id+3bjcTGSm3Fnxt5S1rAI/MFsT1eiCPVqe/wIU4kAcAAACAhYAMwlpnmrZ6goMefgNqVAtnEI1Kz+6slvWERWcSPlMvx185KSOJNDWuhAxCQwezVt6Sb6QGL0nwvRew1tYbVvPhUFbffpQlAAAAgMpEBmGte++ofPJs9qAY4QNqVAtn4I/3K7zvxGpZT1h0JqEefCDRfggrxGd18oeJxfKL8SXmRkArHxMTzgAeGQOGKPagH3kMGgIAAAAAZUQGIQAAAAAAAFDDyCAEAAAAAAAAalhZA4SrV7eYewAAAAAAAADKgQxCAAAAAAAAoIYRIAQAAAAAAABqGAFCAAAAAAAAoIYRIAQAAAAAAABqGAFCAAAAAAAAoIYRIAQAAAAAAABqWN0TT3bPm/tFNfvJZXMvbfXqFrl4cdI8AgAAWMCa18nBve3SZB6mzIzJrt1nhW9EAAAAKBcChMXUuUGObmu17o4eHpADZ6y7Lmtk55Fu6dB3x0/LlkPnralZXBcU08PHZMdQdln6aelcJ71PtUpHY72ZouYfH5Pjx8/KyJSZkCF7njkZHR6VoaHzoRcuvsuamZDjr5zMXlZqeyZkYKt63kx2a+ntk/099ZG2N0zX9n7pbzMPPObUel5R63lOrWfGcpz1DLlw81/PdL0Grb//fA3St2+zbGw0D1PsdTz32jkZPBNUFs68c3Jiz6AMBtRvFtc+GiapekhrkK7etbKpvVWaUtsbsK/FroeweneLWGYh4i2vgHqPVX9x9k/XuSpP7nNe/HoIKpsMGftG7OXFPB7Cljc9Myczr52SIVWHYedQ1AgChAAAAKhQNDEukY5H1ph7Lp335XXB3fJoa+pioqn9fmkx94Opi+rt6gJ/W7snYKc1tbVL/94+2dlpJrh0+c5TLx093bJ/3wbpMlMyWcEEv2U1tqpl9cvB7Wu86zx1Vn42PKfuqOfVc1nUBdRzPfq9JuS4T/AiWfVmPTfLwd4GMy05TT1rA8stf/Y6bty2WY7uW5dH/Vc4Vb87922W/h53cFDLva/VluLXezL7J8I0qfNih6rD/Qvh2EXh1Offjq0DsiV1Oy2j5ikAAACgnMggLCZPNkp2tpwn6yQwg9Bk0MiYnBhrlY09kiPbyZ1xMyejh92ZKyZrSwdmMpbnZAxZ8wyreYbMPM1rZOcz3dKh388vwyG1jfayDrgyneysQh049MsMcjKSsp9zysU/6zKewPdsVmXy6HrpN9vuWZcEMgg1vywt//mcusvYV6x1NPWmH/uujzOvX1mHcOqvZNkrrrKZUdvpydxU27ld1UVbvaqnY+l9qYAMQq+YZRRbvssroN5j1V/c/TNT3PKMMl8SdRbhPWIeD8HnrAZ1HrxfnttmZ4yFlydqkzkeS3YOBgAAAPyRQVgCo+MT6m+rPObJ2lsjj+ngoHouNHug+X5Z26guLMfelcE3J2Ra6mXtoyGZbp1r1YWwvjMhA+piWAdZ0hccl2Vk6KTs2HMsIxi5RnqtAJm+wFXzqAvY1DxT5+XAbpPh0NguvRmZh12P2AHQ6WFvcFCbPHNWzXtMdvlelKv3PazLpV42bnJlETavk026XNTF0lBCwcFQU7pMTsmJGfM4SaZuC87SstZR19uYqn/Fpx6qRdd2JzioL4Z183P3PqO289Cg2l9cwcFaVux6T2r/RAh1LlXnwR3WuU6VddMK6z8AAAAAVBoChCXQOD1nXYh7mhmb5sWj6rlQq+qtzJOZ6csiU7Oi41jBzYwbpO8pO2A3elgHX6y72TxBGcVp6hwYlHOCeWobnoraTE5dIAetx5lzdmCurTvV5Llrk51pM/raQsikuCBDpin1piSaL6eaZsephwrgBH91puYrwfU7mbl/1rqi1XvC+yeCXZqzg7wrVxRcfzpb8egR3Qxfne+396n7+rHTbYTfNJs9X79v9xJpOtvSef8ENa+x1uugtV727aDuSqDZPO/hrEPQujrP90mf7/xKwPL6OrP387jlmVoP03S8RWfb73Neq6fr1xfpuIpUnknQmbAb1DJc26fKI6v7kAy6FcFOU5e55olfDwAAAEgKAcKSmJVLViDsvtRFV0vTcvV3Ti6pq0ZPN2wZ7Ay9CXnDCtydlzfG1b/GVvmW34WAyTZMvz4/qSzAsXeDg3LOBW5jvay2JthG3jKZMToLKfLFyWUZfM0VeHQCSOOnM5rpFZFuxrl9vZV1OT0+GrMJY4CVK0SGRhPN0pq0skiVjHqoBqm+NJMu5xpQlHovwv4Jf6l9/4PZhH74WC6bdLPpNqff13rrHNq3PWPatnSgb+S4nYkaGmR2PkPGL/gOHhWHbq5+dG+3tV5WGRipPmqzgtPqc8FkrXdsyw4CtvSa8/XwKZ/ziAkkBSxP9+fpH1yKXp4p6pjsVcvcr5bp6YdX3dd9Tx7162e3ANHLs0BW4HOz7N+m9mH39qnyaGrrlv1H/AK1dvDU7pvYTLKEzaMVUA8AAAAoGAHCkpiV18fsTB27mXGDfKtdfdmdmZDXL+nHQZxmyOmLNTsgF9DM2GQbRru4a5B7Vtr3rCzFIFPvyjmrGe5yucf9xf7MSRnQQUs94Ii6ODkakKURyJm/sV2ee0ZnD87JieMBozknoGObzkBw3fZuln61/ScOH5MdQaNIF+R8wlmEAfVQKFX++93l4rolla2xusm+wJuenrX+I4Jc9R67/hLePxeKxI6HBunq3WAGXRIZfSupc4w611t9KupBLo7ZmdhqnTe2ZUxLfeYoU2fluDnXBjVVtzO4EzwHd25w9W17Wna5BufYddgOejf1rPcJFrm6oHjGFdBsNgNYzYzJz/z6ctRdbLTVWyPoD+iuNFLLOyYDThaub3ApRnmmtEqHXub4mFpm9vLcGfIFi12eca2RnVbgU91VZao/J71land7smqV/WqHE8S11tM9z57TphxVve5Nuh4AAABQKAKEJaD7nZo0mTpWM2OTpZGzGa3TDNl9UXnmgp3x49PM2M5KjGtOLoUGK4ONHFIXJ9aFguKMuqqbAfWGNz9yOJkt1oi25cgua1QXK9vWq4u44gRInLpPNksr+6KsWmQFovUgJJmBGEZ8DZB8vRdn/0yaDihk7CPOLeEMrUJk/QBxxIzWrZ6bTjgzOp1Bd9n8AOWd9v4H1iSPVBah36j6zg9S+oerRM7BDa4uL3Tftuc9n3eTZ06avhkDfvBy/3hkBa/V+zk/IgV1UaDm2bVnQHb49W86NGh+zPIPsscpT4c1+Myhs65uPezl7XKCkr7lHVWB5RlDS2+Hp8/YQU/fsE4fqbrPWDNJc4K4up5MP8gpU+dlcHc6yOf3o0Qh9QAAAIDCECAsGdM8eOUK6bKam5lmwE7Wnw9v82JHjmbGZTKpLxSsLIYxGTUZAh09dlOiXIG3VPM7LYE+usLoUUbTGRB2RoJeZ50FoZuDJd48y1IFWVr6AtBTLulbyZp7I76C6o8swiwJHg/T6r10NlvSGcp+Gd/uaRf9+rd1MlHbOrKzzMwPUqFdTUThNFdW2x844FTID17ayCG7qbHOittpuoLQwTE7WOQv1eet7j5C94Gn++ozfefpkaaDguyxytMyJ+fezJ5XS3UNkMTnWgLlGY1p6RAWkNUy+4xNtWQI+rEv3bWI33rGrwcAAAAUigBhCVnNgxvbpV//up6zGbDJ5lAX7f2ejJT0RU5mlsDk9BX7TqyLkWQyk+yRi9WFtG5KNK6/yNuBt+AmVmYEZd18KUfzt+Iwo4yakWKLlUWVfJZW/IzPcmtsyghCTanyTwVgzIjZCFCceq/8LEKniaHPrShdA8Tj/gHCyR5r+mA2I5utnJzgTObnh5OdNiHH/ZruxuEEitQ5Pai59tEjZlTzQOflgHVuVp8jug+6PLIwUwNj6O4jdB94aj5v33lloJZfcN+hiZRnFCtklQ5IyhV5PyQgm8lpyRDalURAn8YAAAAoLwKEpWR+3ddy9kXljCwcIuvX91hfutNNdrICN26pAVDyvFjQTYkOuZpYBXSM7zRhGn3tpAw6zd/K0QF5WB9viVzEeLO0UsHcqKLWQwVxMj90k/tYavlisuj1ntD+iRQn6OqbrVdOZvR4TzDY2b8SHJwkKZEyzHUffc7AGDMTVj99Ontzl+mP0G5iDAAAAMAPAcKSOi9vqItw3eQs1yjDdvPioKwZp/PujGbGqSBXtKaCqZGIQ5olpS7SZubkojUlP6kmVn5cHc5bTaacTvQrpanj1KxYxRkyIIgz8IZfs6hMqSytApp/pUcCrrwL+VxS+0LUgEnC9VCNSlHvSeyfcHOCrhkDbZSd07dbeqAHe/9SnzdJDhDl/GA1ftrnMyzjtjugCaszKId6D2vQj1R/hH7WyM5t5nNTD4yx+6TVT5/O3pwsVwank/UX8XPTVxLlGUvweTdM6A9BSZYLAAAAEkOAsMR0x+U71Jf3vJoXB3YW71zgZTYTS3fqHTqSYfMa70jDTmZjYPNe0wxYyRxYpWt7jj4GnQsBH/aImd73dPc5VdKsG98MrVm5ZEWmgjp9d5qB59vs0wQMdDk/YiZFker8PY8M1EqUCmDXy8ZN+Q1gY0u6HqpMyeq9wP0TWSaHTqVGYi1t1wnhnGCwndntGlU/n+xUtT9aTXiP9If32RrW32FenIDfhAwcOq8+O+2ybOoJ67JC0dvhGUzD0SD3mHtJ8++eIz2oSF79OubKkC64PI1860//oGn9YJcjwN3c4Hku9w9BEcsFAAAAJUOAsBLl0Vm88yU8M9sndUGqv9TvzRxJWH2R79wgB/d2W6P2pr+8n5cD1uiHunmvnsf1hb9ZXaTtM/0aZXaOri40NrWZwT32bZAudaHgZi3LusDLDizqzBCrL8WsDtddWTebSjE6qVMmdrByevicK3jr6kzduih1bZ+nXPIf9TN1Yd5ml0tedGf7vel1zKcfrsqkyvMVuxm5tHXL/sx9Rm/ndjNqpkfy9VAVylDvsfZPhEjvu0HdLJSHEwxulW/12j+O5Bus0T/sWE14lfAfctL9HaY+izyvNfv3Ef8uJbq228f16OGT5pycPn+EdkNhZRn6fO7t2ywbrR8SkqY/AzM+a/WPcHp5Vjnl6tfR+QFEZ85736PLU16Flacj//qT1KjXukz1+drzw2Lqs3Oz7HePJJ5qCWDWM+N8nX+5AAAAoNTqnniye97cL6rZT7K/CK5e3SIXLy7g34/Vl+ejOkCmmwQFdaTv85qu7fZAJLrD++CAwBrZaXVIrpshZ47q2OD6Eu5nzhoJMvO9dTZgv+4I3s/MhAzsdi7UXHQ2wjPpCw4/02rbvCN4Ouvnt+5a2LbF45RpqJkx2eXTNCt8Xr91NOsf8H4tvX12szlleviY7EhdJOWqN12WY/KzQ9nvmc+8NlWPW1316Ox/uYTtw1GpfSYV9PKl989Tav/0njOi10Oe9V7q/SxreQXUe6z6i7t/Zsp1HKfFr4f8l+EWe3kxjwdnef7n7HT9hpdnfvyW5dRZrmleznlWyzgvhPCWbe56ce9PvtRny4lXTvrXg895J/V+Yc/50Z9hYyL9Pa2eMolfnq561ZmNvsdvfvtt4HpH3UbNrzxdotZfPufr7PfIdU7Lnie5/RoAAABxkUFYcZzmkhM5+ilMN//JbnZ5WQZ3D8iuw2MyOmM3ObbNWYGGAfXF3O+L9YgeVMRnHt3R+y6/4KA2pUctPqbmm7Auktym9QXZHnVBnHWBs96+cBgfDbgwcTIa60vSd5deT7vPKr/Amy4XXZaZ26fLUpVLHhd/mZwsrfzpfiudsvRfx6pijVp8TAaGg8s0MzioJV0Pla889R59/0S4dBZhZY0S7XyGKBH6ttRZZaPmGJwePpXzuJscGkyNam9loznU54zz2eJ5Dx2QsoK0at/P+OzQ9PtZg420dWc1kdXPZZ0jUud39RnmWYGkzMm5V7LPTc5nbT7nJWu99fnQPLbo9X4reyTgyOWZIWr95Txfb/XbRvd3EDPJEjYPAAAAyo0MQgAAapCdtZVflhsyxctuBQAAACoVGYQAANQaqw9Z9X9mgfXdCQAAACAWMghRNXL2veQxkXefWohmodcD+xkWupbOdfLcNrtfOfpyi4sMQgAAACwsZBACALDQ6b79jvTLUXXbb4KDuj84goMAAAAANDIIAQBY6NwjNOsBLV7LHikcUZBBCAAAgIWFACEAAAAAAABQw2hiDAAAAAAAANQwAoQAAAAAAABADSNACAAAAAAAANQwAoQAAAAAAABADSNACAAAAAAAANQwAoQAAAAAAABADSNACAAAAAAAANQwAoQAAFSz+pvy/bab0moeAgAAAEBUdU882T1v7hfV7CeXzb201atb5OLFSfMIAABEpgOELSJnxhfLhJmUn3lpbbwlDy6fl68tNZOkLsb7AMiltfWGdC43D9Rx9tfrIu9MqmPtMzMJAACgzAgQFtN9d8nPur5i3X1nZFIOX7Duutwu2/7lTnlQ3734sTz322vW1CwrlsuPNy6Xu9Tdj96elp+Mfm5Pz2HVfctlwzdvlweXfclMUfNfvCK/Gb8i52bNhAzZ83wh77x9RU6OXpNLZoof32Vd/VR+838/yl5Wans+lZ//p3reTHZb1XGP/OihL0Xa3jBrv9MiP1htHnh8odbzC7WeukwyluOs59Ur8tNfXvHdfv/1TNdr0Pr7z3eb/MP3mmT9MvMwxV7HP/7xivzqQlBZOPN+IadOvC+/CqjfLK59NAz1oC2Eekhvm/85yRGwHTHXM7je1WtVmX74x4/lpCrToHNMpPOLEra8tOA6inYejLufJShmgNAbsHBkBwid9fcTVn/J13uuz6OgY9fF7zySwPHnu49mfd66PvPzFH6c5sLxnlb+4z3f4w0AAKBcaGJcIg+23G7uudynvpCau2FWtd5uBQe1u5q/IqvM/WDqy/531BfUruWeL9jaXauXyw823iPb7jMTXNb6zvMlefChO+VH37tL1popmawvw37LWvYVtawW+fF3bveu8+wVOfL2F+qOel49l2XFctlqXYyqC4JiXEx7fMmsZ5P8uOM2My05dz20PLDc8mev4/quJvnZ95bnUf/ViHoojc9lfEofeyJ3Lw8p5xVfkW/qIMvVazLuc0GdpLvUeeNBVaY/CijTyOeXAsU9D2rJ7Gf5q6+/Jd9+4IZ8v0X/zjcvnW035OnWW9L6Zfv5cPOyzGQNvje5WH4xvsTcogUrctVfkFzzFVIPpRXv87Y0ON5zKeXxPjHhHGPq9pfF8qfr9vRleR2vAAAAxUcGYTF5fn3Pzpbz/OodmEFoftmXK3Jq6nZZ/5DkyExKZwxYv4KPuH+pv03WdiyX7z70FbkrY3npDBH9y7maZ9TMs+J22fbEnerLs7ofmnlhL+uwWpbD/lVef/H2++Xe+RU++zmnXArLnPAKfM8Vqkxa75QfmG33rEsCmWuaX5aB/3xO3WXsK9Y6mnrTj33Xx5k3OEvCl1N/IduYJOohQCnrIY/yTK1P5nkp5noGH9O3qfPEV2SrukD3zZCOfX5xy79O4p0H4+5nhalvvCk9K4M+vuvkT39ZLH8Ibbo4Lw8/cFO+IYtk+M+LZM5M9RO8/uH1F7fe49VDDmH7fezjz9m39H17H83n89Yr5jkjXxzvgcp9vNvHsORxrAIAAJQGGYQl8M7FT9Xfr8jDniyC2+Vh9QVa1HPv2BP8mV/2P5r6VH41cU0+ki/JN1tDMgHUl2j7YuVT+bn6cqy/YKe/2H4u50Y/kp+cmM64WLldNlhfkvUXejWP8yVZm70mh3/5sb2Oy9QX9IxMiLUt+su8/pLs/TKvXbpwRc07LT/1/ZKu3ndEl8uXZH2bK4tQXcx8V5eL+lJ+0nNhUSSzukw+llNXzeMkmbotOKvIWkddb1dU/Ss+9VD1qIfSmf1U/qjLednt0rbCnpTJOa7fmQwKaiRFnWvUeeIn1rlA1dFy+zzkiH9+iSP+edCS1H6Wjy/fkset4GBdVvbfmQ/q5K8yL98IDB4mydSfOSbyy3DXwuq9wHoopViftyXG8R6g/Mf7nMkgBAAAqBQECEvg7iufW18kPc2MTfPid9Rzoepvs35p/1C/bvYL+VDdD74Iu03+4Zvmi/6If189lsw+3pymzoFBOSeYp7bhm1GbVqov3UHrob7wWwGh1XemmmCtbbMzC975Y5Qsjkp1TU6aptTfTaLZbKppdpx6qGXUg5fT7DDoxwbz44V8Kn8oRZBem/vcBF2/lNz5JaqCz4MJ72dhls7L1/T/K4vkd3N11iRbnUzMLJZX/7JYfjHhnu6nTq4mFaAwn02y7DZptCbkya/ei/p5lKSYn7clx/HuqwKO9/rUwEAAAACVgQBhSXwhH1iBsNtTvzSvsn45V9OviNxtT/Jl/6LufHG/Jn+4qP4FZQI4/QhF/KKf+tV+6tPgoFzqC733AvDcpMkE0L+iB2QnBPtcfvVH1xdwJ3vwos4esCYXn242+p07rSwQ3aF8MpkJhu7TaPRKollFl6wsUiXqhXilox5Kyll/3x8bnAvni9d8BxAqhlQ/q1e/8JyDCju/RFPIedBShP0s0HWdJagsD+hv8LNcwUGXpfOSNW5CifjVe8H1UCoxP2/LgeM9WyUd71dpXgwAACoEAcKS+ML8gu80M75N2prVl0vdIXhYx0/OL/uuL+72F+iATACTbRjti/5tstK6yDFZikGcZkpq2SvdX9wvfCQ/10FLtW26A/Gffe8u+Yf7Ivya7sy/bLlsfUJnD34hp8aL18zpwS61jv/ium1skh+o7T81Mi0/KUozsKSz1wLqoVCq/H/kLhfXrRgd7FMPAUpVDyEZX/aPFxLe3DCx9dT9tN1lBiXyWWah55e8FXgeTClRFuFni+SdKzoIOC+dX78pT7fOS305BzpIZWN9LjPWhFyC6j2peogpyn4d6/O2TDjeM1TZ8Q4AAFAiBAhLQPezc8n80mw1MzaZBzmb0ZqLLs+X6AvX7F+sfTIBnC/68XwhH4QGK4Od++2k/PTtT80v7WaU13+5R7Z15Dfa4Llx03+V/sKedPZYPpZ9Sa2zbuZcnC/4Tt0nm1WkLljqzd2FgnooIZONrC5svX2jmh8vipQVlRUY/pcm+YEZ9OWjgMzhQs8v0cQ/DzqKs59lm5hYLMOTdn+DX1t+U3q+fkO+/8BNebg+n74H560BEh7UqYPX6+SKPTEGPejEXfJja2CJ4Gys6PVeeD0UW2Gft6XG8e6vEo73eel8IN+RxwEAAIqLAGHJOM2DvyRrreY15gu5k4Xgw9u82JGjmXGZXNKdsf+n+mI/or4sm1/cH3zoTvmR/mKfI+CTam6kqfJJ/iIgTY+q+Jxaz/Rt2lpnPfjLg+pC5MdFyQKogiyDq1fkp55ySd+K0dybeghQwnpwmvN5+kZ1mk3myopKcD0/Uu/18xPhmaOFnF9Kr3T72dzcYnl1XAcKF8l7uj/BpfPyjZab8v0Hbolv3PrLt+Tpthvy/TZ7BOSvXa+TP6l5842R3PWQDtZ4Az4/6koHfMJGbM2UT72XXInPg6XE8V4s8Y/3uZlFcuZKnfx16S3p1AF+dWw+3ViKwYUAAAD8ESAsIesL+rLl8gPdvCZnsySn4/CvyA88F2Qt8gNrenYz40tX9JdUJVaQLZlMKHukQXXhcOJjOXVRr48d8AluhmRGErz6qXq9eqjKp7QjU5pRFZ1ROIuU9ZN8VlHlZ9hEQz2UnMlG9vSNaoL1oc0NC+AODP/UuqhWdXH1CzmX50AO0c8vUSV0HixRFqGtTubmFsnv/rxEfvGXxSZQeEt6goKELrofQyv+UoCP9Lk7R9cA0eu98jNzC/u8LQOOdx+VcbxbAw4BAABUAAKEpeR8QVdyfiF3+nQKkdXMOFbH7Z/bA6gody8P+fU71SH7F/JBPk2AZ6/Jr377fuqiIGi0yVUdy+1m1H/8SH5lmho/2HVXCS6qM4T1NZRIR/jeLIPUxWVUUeuh2lAPJeQ0O0yXdaPVbLI0QU/nolpWL5d/iJoNnef5JX9JnwcT2s+i+qxOfvfnxfInk03YnNls8bNF8ur4EvnF+GI580GdfE29prMldyDR8dHb06mAj3P7yS/VuftC/pmD4fVepM+jYqiEgVIi4XhPq5Djvf6WdC6ft5r5n9Ejj6tj89WZCAMMAQAAJIwAYUmpL+jqS6RuYpOrvx+7efEXcuqE92LMvk3LKf3lNrOZcSq4Eq2pS2rkQL8RDo30qIP5dkJvS4326mfFcruzclUeJ3V5zF6R31gXMNHWv2icjt39glWGfYGVo6NzI5VlEFLOuaTqoRo6xk8K9VA03kGPTNayHjypJEEX56L6S7L+iXgX/KHnl4iSPg8msZ8F+vK8tAb2NVgnV3WAUOZl2VJrgo86mZhZLGd054MlH8U4vN6L+XmUqJift+XE8Z5WCcd7vXV86mb+i2UiysjjAAAARUKAsMTOjb4vP/nllfyaFwd+cf/cjIqc2czYma6+pD50Z/Cv9Ctu944M6GQ2BjbvNc2AlcyBVdZ+J0efQGF9LLbpUYu973nutx/bX7LD1r8YfDMF1H3rAjBg1GinnvLOwDAXSLqcW8ykKJyAqlKsJmFlRz2UlnvQI5O1HDTQRDFcGv3Y/Njhf+4p5PwSWQHnQX8F7meB5uXhlpvSqW5PP3BTWr/sDRTW16vnrIhfnVys0ObvofVeQD1YA6Z8x9XHnks62PNFQvt3zM/bcuJ4T6ug4/3qZ+YOAABAmREgrER5fHF3fknP/LU69QVc/0q/UX3Z9oz8Z0ac3HinNVps+oLmmhwesX9Nf7BLz6NeZz1S1MXNtu/daTd3djL9HCuWy3dX230C/fh7d8naFd4v9u7RLbO+YKvnrL4UM9/T+ZKt17/N/0IvWU6Z2MHKj952B28/l1/90WQZPKT7PXJtn6dc8s/AcLIMHlxtl0teVLmu7UivowSM/ljdqIfycAY9uk1d1OqL4S/kjxP5NxctXLpus5oNFnJ+iSXmeTBErP0spzr5w6Td16DVRPjrN63BDZxbT4sOGNbJezoryZ6hAoXUe+x6uE3avvkVuWv1nfLj7yxX+4uZrOh9pRhB/Xift+XE8Z5WOcf7MkYwBgAAFaLuiSe7SzJk2uwnl829tNWrW+TixUnzaAFSX2h/pr/QXvxYngvqwN3nNWu/Yw9Eojv4Dg5AqC+w/6K/wOpmyO/LrzyBkdvkH77XJOutTCw/X6j3fj/rvfWv9z9QX9B9Xf1Ufv7Lj7IzH9WX+m1PLJcHA5cl9uiWnu131s9v3bWwbYvHKdNQ6kLgp7/MvvAIn9dvHc36B7zfqo575EfmYlX36ZUe+TNXvemyvCJHfut3cZR7Xpuqx/901aOz/+UStg9HQD04ylsPbu5yCCr7lJjrGX5OS5eZtx6UWOeXPPezgPNL9PNg3P2scPX1t+Shlbfk3lRT4jr565U6eeeDRTKRMytpXh5+4KZ8QxbJ8J/DRzJ2tiHq+seudyXW55GuCx3YCdhf/PYVS0HHX65j3v/zNs2ZP7nPuzAc7+ahUc7jvb5RjyYu8qe/LJY/kEUIAAAqABmEFcdpLvlpjn4K0x2OZze7/Fx+9ctJ+enIFXnnqt0EyvaFFdj4ufqS7Hexck53Au4zzztvf6y+CPtdjCmzepTBaTXfp/KRlUmRpke3/PkJ9QU548v8qo477YsptS7+F0POL/vx+yqKwhmF87mAC6Vzv9Vlmbl9uixVucS4oHOyDPKn+610yjLkYq7KUQ/l4e7Xq5TNDdPcGaIZo4DGOL8UKtZ5MET0/Sx/qdGLJ3X/ZXVyZnyxvDqRT3CwEoTUuxKvHtRnh9pffv622l/MFIt6j3dyjLQcX7zP23LhePcq5/E+Z/UVCgAAUDnIIAQAoJrV35Tvt4gVIMy/WXH+GYQAkkcGIQAAqDRkEAIAUKuW3pKHAkdEBlAUX56Xh1Zy3AEAgMpCBiGqhqfvpJw+9fbxhsRQD5WBekCh7AymzK8AdlPlyh3gpDZxvFe/1tYbZoRxl+tk8AIAgMpBBiEAADVobmaxDH9QJ3+lLzSgxPSAQovkzCTBQQAAUDnIIAQAAAAAAABqGBmEAAAAAAAAQA0jQAgAAAAAAADUMAKEAAAAAAAAQA0jQAgAAAAAAADUMAKEAAAAAAAAQA0jQAgAAAAAAADUMAKEAAAAAAAAQA0jQAgAAAAAAADUMAKEAAAAjvqb8v22m9JqHgIAiozzLgBUhLonnuyeN/eLavaTy+Ze2urVLXLx4qR5BAAAUGb6QrVF5Mz4Ypkwk/IzL62Nt+TB5fPytaVmktTFeB8AKK3W1hvSudw8UOetv14XeWdSnbs+M5OKjfMugBpT9vNuAAKExXTfXfKzrq9Yd98ZmZTDF6y7LrfLtn+5Ux7Udy9+LM/99po1NcuK5fLjjcvlLnX3o7en5Sejn9vTc1h133LZ8M3b5cFlXzJT1PwXr8hvxq/IuVkzIUP2PF/IO29fkZOj1+SSmeLHd1lXP5Xf/N+PspeV2p5P5ef/qZ43k91WddwjP3roS5G2N8za77TID1abBx5fqPX8Qq2nLpOM5TjrefWK/PSXV3y333890/UatP7+890m//C9Jlm/zDxMsdfxj3+8Ir+6EFQWzrxfyKkT78uvAuo3i2sfDZNUPThi7S+R6yEt6n4dvL/o9fxCPvzjx3JS1UV6XtexnCf/c0K+0vtK+PsE7Bcx6z16uXhFqnclbHlpwft8tHqPe9wWLv9yKWw/i1t/8eohifK8TdZ2LJfvNn9F7kqdF/P7TCpIzAtV7xc9R/aFqrPdfuLWQ7zjL1dZBn0mufidlxP4XPE9JrK+v3De5bwbUVm+l8c8joyox23c/SXf81fRcN41OO96cd5Nq73zbrxyKXz7aua8G4AmxiXyYMvt5p7LfWrHM3fDrGq93foSot2lLpRWmfvB1EnyO2rH71ruOTFpd61eLj/YeI9su89McFnrO8+X5MGH7pQffe8uWWumZLIOMr9lLfuKWlaL/Pg7t3vXefaKHHn7C3VHPa+ey6K+eG21PsTVibTQk1JOXzLr2SQ/7rjNTEvOXQ8tDyy3/NnruL6rSX72veV51H9li7y/FCjufh3kLvU+D6q6+FFZ6+JzGZ/Sx5DI3ctD9tsVX5Fv6i+ZV6/JuM8XiiTlKpdqqvdkjtv8lLpcghRzv45VnupzYJv6sv+Dh9zBQS3+sZtLff0t+fYDN9RFqv7ddF46227I0623pPXL9vPh5mWZyV55b3Kx/GJ8iblF+5IXtx5yzZf0ebB44n1/KQ3Ou7lUy3lXK+338nhK+f1lYsI5Z6nbXxbLn67b05fldf6Lj/NuJeC8GwXn3fgKOe/GEWf7auG8mwsZhMXk+dUiO1vOE20O/KXS/CIiV+TU1O2y/iEJ/PXA5vyCou9/Ie+MuCPWJhtDX3BlLM86mVlBOR0hV/OMmnlW3C7bnrhTHSTqfugvVvayDqtlOezouz7A/H7xcKL72c855VLYL05ege+5QpVJ653qItTeds+6JJBBqPn9OuE/n1N3GfuKtY6m3vRj3/Vx5g3+dcmXU38h25ioOPtLARmEcffr4H3wNrWeX5Gt6oMjd+ZAzDrJVx7lkirvzPNLzHqPXS6xzxNu+ZdnvHqPe9wWoMTlUtr9upDydM17VZ0PPRne6nz4HXXOXv0ltR3TnjIrRH3jTelZGfR1qE7+pL64/SG0yce8PPzATfmGLJLhPy+SOTPVT/B2h9dD3PqLex4MFXb+iXl+Se9b+r59TOTz/cWL824K591sqTLRSvW9PETI/hT3uE3mPO+cEyWPc198nHejnQs474ZsG+fdBX7e1fItl/jbF/e4rabzbj7IICyBdy5+qv5+RR72/PpyuzysDwb13Dv2BH/mF5GPpj6VX01ck4/kS/LN1pBfUNTJxz7JqwNQHTz6xJTegT+Xc6MfyU9OTGccfLfLButg0Du2msc5GLTZa3L4lx/b67hMndgyfkFa22If8B+pgyjzQu3ShStq3mn5qe9BrN53RJfLl2R9m+vXBPUh8F1dLurgO+k5wIpEXXSeG/1YTl01j5Nk6rbgX2esddT1dkXVv+JTD9Ui/v4SR/z9Oph6D7WeP7H2XVW3y+33L4vZT+WPer9ddru0rbAnZXLK+53JoA/bpISXS1XVe1LHbR5KWy5hirhfxyhPHQC0g4P6S5hujuMuG3U+/O37qlySCw7Kl2/J49ZFal1WFsqZD+rkr+oi9BuBF7FJMvVgzvX5ZyaF1V8xzoNFEuv7S4lx3g1QPeddraTfy2Mp//eXOZPJUjScdznv5ovzboAaOu/GEXn7auC8mycChCVw95XPrR3Kk1Zr0mnfUc+Fqr/Nijh/qF83+4V8qO4Hf3jdJv/wTXOCHNEXVdbdbJl97TmpvYFBOXVQmB37wW9GS7+3Doyg9VAHjBWYW31nKnV9bZsdYX/nj1F+/apU1+SkaUr93SSaL6eaZseph2oRsr9EVcz9eu5zE6z9UhnrwWl2EXRxYj501Ze+P5Qi2K7FLpdKqveEj9uCJFgu+SjKfh2xPJ0fieQLOfV/gz8HLmV+jhVi6bx8Tf+/skh+N1dnTbLVycTMYnn1L+ridcI93U+dXE3qi535rJdlt0mjNSFPfvVX1M/3JMX8/lJynHd9Vdl5t3Tfy2OqgO8v9akBP4qE8651j/NuPjjv+qql824sEbevFs67eSJAWBJfyAdWIOz2VAR7lRVBVtOvqAPGnuTL/iXCOeFdkz9cVP+CfkFx+l+IeIJM/dox9WlwUC61Y3s/OM9N2geKFZ0P+FUn2Ofyqz+6DjTnwvCi/tXFmlx8uvnud+60fj3THfEmmqmjTgIyeiXirxfhLlm/VitRv8BUiML2l2gK2a9zSfU/dPWLsgaynf3B9+LE+aC7eM13IKBiCCqXqqr3Ihy3QUpZLvkoyn4dsTxT65D0+TjMdZ2toiwP6Pfqs1wXqS7qojerv+kS8au/Yp4HExXz+0s5cN7NVk3nXVuJvpfHVEnfX64Wq5kb513OuxFw3s1WS+fdWCJuX02cd/NEgLAkvjC/fDhptbdJW7PaaXVHqmEdZqTSbtMnPPvEE/ALivlVM9oJ8jZZaX04mF9Dgzjp3WrZK90nvAsfyc/1lyO1bbrj1Z997y75h/si/ArhzL9suWx9QmcPfiGnxouXHv5gl1rHf3HdNjbJD9T2nxqZlp8UJX0+4V9nguqhUKr8f+QuF9ct0Y6JC9lfQtbR7i/CrcD9OpDuj+UuM4iOlKApQw4hv3jbH7o51jGxes9RLoWeJ/KWVL2X6FfVkpVLLsXer/Mvz0az3350Rb++RD5bJO9c0Rej89L59ZvydOu81Jezg+jUr9ify4w1IZeg+ivWeTBPUc4vsb6/lAnn3QxVdt61lOh7eSw18v2F8y7n3Sg472aopfNuIfLdvho57+aJAGEJ6Pbml0wE20qrNb/Y5GxGaz6sPDvThWt2JNznFxTnBBnPF/JBzIPz3G8n5advf2oi6ma03X+5R7Z15DdK07lx0++HPjBLmTXiWPYltc66mXNxToxO3Sf764w6MdWbu1Wm0P0lmvj7tZYVUP4XM6qqeu6jUma6BjLZC6kPW4f50C3Sr8JxyqWa6l0rznGbrbTlYivHfh21PLO+oOlOyj3rrG4RR5wMMzGxWIYn7X6vvrb8pvR8/YZ8/4Gb8nB9Pn1gqQvbxpvyoE5huV4nV+yJMejOrO+SH5vOvIN+xY5ef4UfD8VW2PeXUuO86696zrul+l5emEr4/jIvnQ/kO6JwdJx3y4vzbm6cd5MT+7xboGjbt/DPu/kgQFgyTjOEL8laK83UnMicX298eJsxOIrTnKFQl3Qntv+pTogj6iA0kXVrOHB9QswReEul3WqqfIp1Uazp0YWeU+uZvk1b66w7mdZDkP+4KL+elPLXmZiuXpGfesolfcvvZBZNrP0lZB1/apVvaXyk1uPnJ4qVcRqd05zB06eH02wk16/CCdZ7PuVSyHmi9Ep33FZCuRR/v6788+Dc3GJ5dVxfsC6S93S/Vkvn5RstN9UF6y3x/T3my7fk6TZ1Qdtmj8T5NXWR+ic1b77fLe96SF80eL9I/khdpDpfJKOMHFhp5yVLgueXSsN5t1hKeZ5Y2N/L/UQ5T8zNLJIzV+rkr0tvSacO3Klz3dONyQ8awnk3YZx3/XHeDVHZ593Clff7ZyWed3MhQFhC1olt2XL5gU4zzZnO7XS4+hX5geeDzBkKPLs5wyWnSVasIFsyGWn2CE3qhHviYzl1Ua+POiF2NamTof18NjNi0NVP1evVQ1U+pR3R63N7dCFn9LIi/XqS/K8zlf/LZD6i7y9RFbZfuwPKThDyrqtfZIyqWmYme8HTp4cJuhcrlb3Qcqn0eneU6ldVR/HLxVau/TpKed69PONL3Kw6T5t1fu4/zUhyRVGnLlgXye/+vER+8ZfF5oL1lvQEXay66P60rOuAAnykPwtzdHkRvf4qP+O8sO8vZcB510f1nXeL/b28MJXx/cUaSKToOO+WA+fd3DjvJi/aeTcZ+W9fLZ13gxEgLCXnxKbkPJE5fWGEyGrOEKvjzM/tDkOVrAsyN+cXGh2YyqcJ8Ow1+dVv308dHEGj/azqWG431/jjR/Ir09T4wa67in5yyhLWp0DEjkj9eX+9SH0oRxW1HqpFnvtL/pLfr50PF1m9XP6horIEzK9xrn3X7setNEHkgsql4us9oeM2qsTLJVhp9+vc5TljpummKGX3WZ26YF0sfzJZLc2ZzT0+WySvjqsL2vHFcuaDOvmaek1nS+4LWsdHb0+nvkg6t5/8Un0WXsj/i2R4/RXp870YKqHD/kg476ZV8Xm32N/LY6mQ7y/1t6Rz+bzVfPeMHlFYnetenYkwcEhcnHdLh/NuJJx3ExLlvJuYXNtX4+fdDAQIS0qd2NTOqVNNvc0TstnNGL6QUye8H2L2bVpO6Z04szlDKshl7/z5clK2w77YpEffybfzXltq1F0/K5bbnXaq8rCGE5+9Ir+xTvzR1r9onA5x/YKGhtOhfmiHpoZzoijkC2SqHkr0i0uphe4vESW/XzsfLl+S9U8UL2ATh72tTvaCyXLQnf6W5Etn4eVSyfWexHEbV5LlEqy0+3Wu8kxtc5wv4HF9eV5aA/u8qpOr+kJV5mXZUmuCjzqZmFEXq7oTLHWxWtrRNMPrr5if74mK+f2lnDjvplXvebfI38tjSv64jb6/1FvnO918d7FMRBlROF+cdznvxsB5N60WzrtJyrV9NXHezRMBwhI7N/q+/OSXV/JrxhB4wvvcjAKU2ZzBma527ofuDL64WnG7d0QlJ5If2LzXNANWMjsSXfudHH0phPXl0qZHLfa+57nf2k3HQte/GHx/EVD3rQ/OoGYjTnOTfH+5MicKXc4tZlIUTkBVKd0vLskqZH+JrID9Osil0Y/NRUCpm8LnYLbV+lAzWQ6hw/QnLFe5VHe9F3jchihpuYQo7X6dozxd2dzr24o3UEvavDzcclM61e3pB25Kq7podauvV89ZV551crFCu3UIrb8Cjger4/7vuPp6ckl/Sf4iofNMzO8v5cR5N62KzruZivu9POZxlHh5xj/PX/3M3MlH8zrZua9fjh7pl4O9DWaiH867nHdj4rybtuDPu0nLsX3Vet4tAgKElSiPE57zC0RmlDu1I+qLq43qJOUZMcmM1LXxTtGj9qY/CK7J4RE7av5gl55Hvc56pKgPhW3fu9NuVuFk+jlWLJfvrrb7Uvjx9+6StSt8vhSZUcGyDiT1nNVnS+Z7OgevuTgsPqdM7GDlR2+7T1afy6/+aH5NeEj3F+HaPk+55P/LlfPrxYOr7XLJiypXPUS6s46S9yhIFaaQ/SWWmPt1qPQ+Ucxmn9GZZhfLblMfevrD6wv540S0/i4KE1IuC6DeYx23uZS8XMKUdr8OL0+1Lv/X7m5CVt8pP8osG30+/I7dNUUy6uQPk3afV1ZTta/ftDqFdm49LfrCtU7e07/m2jNUoLD6i3s83CZt3/yK3KXq4MeqvNe6Lhz1vlmMH6vifX8pJ867aVVy3o0r9vfyuMdR5Xx/WRZhJM2uTe3SYdqqNvWsl75m+342zrucd+PivJu2wM+7RRC+fdV53i2Guiee7A7K707U7CeXzb201atb5OLFSfNoAVIngp/pE8HFj+W5oI5vfV6z9jt2h8e6o8vgQJDaUf9F76i6ucP78itPgOo2+YfvNcl6KyPOzxfqvd/Pem/9q8cP1InN19VP5ee//Cg70q9OhtueUBdrgctSX6j0qGCe7XfWz2/dtbBti8cp01DqgP/pL7NP2OHz+q2jWf+A91vVcY/8yHzI675Q0iOm5ao3XZZX5Mhv/T5Ucs9rU/X4n656dPa/XML24Sji7C9qHis4GlCemlOm3vK0xdmvw4/BdFn7LS8t136eLPd+FbQvp8Ss99jlEus8kedxG3CeiF7vcY/bAsQsF6/897O49RevHgosT+e4Nw+z6c8x/WNJAvVg1NffkodW3pJ7U03a6uSvV+rknQ8WyUTOX3Pn5eEHbso3ZJEM/zl8RM2w81WYQs5LsT7fdR3qL8QB+2fgvlnQ50p6O/z5f39Jy/94SALnXfPQqPjzrs937iw+rwmvA4fZFr9zYZzjSCnf9xd1PmzUowSL/Okvi+UPeWazdG3vl/4280CdBU/sGZTBKfMwAOfdTJx3c+G8ax4aC/W8q8Url8K2r9rOu8VABmHFcZqtmmG/A5lfUHyaM1jR6l9OmqHV7dRx2xfqpKSH2vY/yZ/Tnaf6zPPO2x+rA8zvQ0yZ1aMzTav5PpWPrF+g0vSoYH7Deq/quNP+EFLr4v8h4kTwvxS7j4conNHLngv4gDn3W12Wmduny1KVS4wPQufXi/zpfhqcsgz5EKwGMfaXQsXar0Olfw0q1ei2+XD3a1LK5hZpIeWyAOo9+nGbhzKUS7DS7tc5y1OVzU/+c1p+/nbwuTfJ4KCWGkVzUvf7UidnxhfLqxP5XKRWgvD6i3c8qM9itX9adWCmWNR7vJNjxM/44n1/KRfOu15Vcd6NrNDv5fGPo3J+f5mz+gCMZuT4mIyajrmmh0/lDA5qnHczcd7NhfOu18I87xZPru2rtvNuMZBBCAAA4Ki/Kd9vEetCNf/mbflnsgBApSt5JgvnXQA1jgxCAACAhWTpLXkocGROAKgCX56Xh1ZW0XmM8y6AaldB510yCFE1PH1O5PSpt689JIZ6SBblWd2oPzjsX34zv1LZTeYqt6P92sRxW92ov+S1tt4wIwe7XK/8zDzOu9WD47a6UX/Jq9TzLhmEAAAABZqbWSzDH9TJXyukDxkAiEcPFLJIzkxWfrNdzrsAFobKOe+SQQgAAAAAAADUMDIIAQAAAAAAgBpGgBAAAAAAAACoYQQIAQAAAAAAgBpGgBAAAAAAAACoYQQIAQAAAAAAgBpGgBAAAAAAAACoYQQIAQAAAAAAgBpGgBAAAAAAAACoYQQIAQAAAAAAgBpGgBAAAAAAAACoYXVPPNk9b+4X1ewnl829tNWrW+TixUnzaAHq3CBHt7Vad0cPD8iBM9ZdlzWy80i3dOi746dly6Hz1tQszevk4N52aVJ3p4ePyY6h7LL009K5TnqfapWOxnozRc0/PibHj5+VkSkzIUP2PHMyOjwqQ0PnJaymfJc1MyHHXzmZvazU9kzIwFb1vJns1tLbJ/t76iNtb5iu7f3S32YeeMyp9byi1vOcWs+M5TjrOTMmu3af9d1+//VM12vQ+vvP1yB9+zbLxkbzMMVex3OvnZPBM0Fl4cw7Jyf2DMpgQP1mce2jYZKoh7p/VzdzPx/zv1a3P9v3655Wt/vs+1lm1eveTL825U6RRd9X/9Xzt/63PSlLp3rNo+q/mv+W+/h8QE3/e3M/TOZ8AAAAAABUITIIS6TjkTXmnkvnfXZwMIeWR1ut4KDW1H6/tJj7wRqkb3uf7N/W7gnYaU1t7dK/t092dpoJLl2+89RLR0+37N+3QbrMlExWsMtvWY2taln9cnD7Gu86T52Vnw3PqTvqefVcluZ18lyPfq8JOZ5AcDBcvVnPzXKwt8FMS05Tz9rAcsufvY4bt22Wo/vW5VH/NWaFSN3fq5PZP5vHAAAAAAAgEgKEpdJ2X1agqOuR3JlbOtj3rfZ6kZkxOaGDao2t8q1m85Qvk0nWpgNsczJ6+Jjs2jogW6zbMRkYnpBpHfTLCFjqIF+/M8+wa549p2V0Rk3WQTS/4FTnBisTzlmWvRz7tuvwmDVvU1tH1jpPDo3KqL6jnuvLeK5rk50tOXrYP7uwEDqT072OW/boMtHBSh3MW5+1LoVrlU2RA486szJzHXW9KY3tsr8YQUKdJeleZsYtiSzO+f8pcivjNj9rnvuFz3OZGYGKzirMfN0tNc2yQp3QfALfBdHZh5nLc9/IHgQAAAAALAAECEtgdHxC/W2VxzzBizXymG7yqp6zAmVBmu+XtY0i02PvyuCbdnBv7aMhAafOtaaJ6oQM7BmUA2cuu5rGXpaRoZOyY8+xjObMa6TXCvLpAJqaZ8g1z9R5ObD7tL2Oje3SmxGAcYKc08OnrGW5TZ45q+Y9Jrt8m7yq9z2sy6VeNm5yBSub18kmXS4zYzJUiuDLlC6TU3JCB0GTZuq24CxCax11vY2lgoSZ9VDT/izpIOEd5j8AAAAAAMgbAcISaJyeswJFnqw907x4VD0XalW9lU03M31ZZGpWdBwruJlxg/Q95fR56NP3nyOzrz2nqXNgUM4J5qlteCpq9tplmQxajzPn7MBcW3eqyXMqe/A1/z7/qssFGTJNqaNnEfpINc2OUw8LnLNL23FuAAAAAAAQAQHCkpiVS1YgLN3MuKVpufo7J5emRbLGpHCxM/Qm5A0rcHde3hhX/4KaGZtsw/Tr85PKAhx7Nzgod2nOZK/Vy2prgm3kLTtwaGXJRW6ee1kGX3MFHp3swfHTPgO6FElzg3RtX29lXU6Pj+Y/uEc+Vq4QMU2pk+mLUGTSyiJVMuqh5jmx9xzxdgAAAAAAkI0AYUnMyutjdiaZ3czY6VdwQl6/pB8HcZohX0j1xWcH5AKaGZtsQ/frc2uQe1ba96wsxSBT78o5qxnucrnHHQg8c1IGdNBSDziyt1+O7tsgfZ0RsuWc+Rvb5blndPbgnJw4HjCacwI6tql1POK67d0s/Wr7Txw+JjuCRpEuyPmEswgD6qFQum9Dd7m4bn4D2lSSOrV+1kjEyvz/s/8nRvdr+O/+t7oHzGsAAAAAAKhyBAhLoKlpRWpQDquZscn0y9mM1mmG/JYrcHXmgp2R5tPM2M5KjGtOLoUGK4ONHBqQXalBNMxou0f6ZGdvxujFAUaO233rNensx6Sz+PLRWK/Web3sjBLYjMCp+6SyCG31smqVuVtDrNGKMwN1JjgoF/wHNgEAAAAAAOEIEJaMaR68coV0PdoqTU4zYCfrz4e3ebEjRzPjMpnUg2hsTY9crANYHT3dsl8HCnME3lqs8jBU+RSzb72sUYy3HrPW2RrZedtmOZhEll+WhLMIiyFkFOOSNfeOa9aMgvyqeZykkFGMCUYCAAAAABYKAoQlZDUPbmyXfj1icM5mwKZ5sW66m9Hks9+ant3MeHL6in0nVpAtmYw0e+TiAdmy57ScGNdBMTvwFtxM1YygPDOhXq8elnyE3svWOjsjBCeb5ZeWfBZh/IzPajb/a1eQ7k0zUe1m8x+b+wAAAAAAIDIChKVkmgdrnmbDfpyRhUNkNTMOGEgk3GV5/wP7XmNTSHZbagCUK/J+Pk2Ap87L4KFB2ZVj1N2W3g67GfVrJ2XQNDXu2LahKEG6UGF9+yUyIIg3izAVzI0qaj0sZGdE5vX/+0Tq7rSm+Fuhnjd3AQAAAABANgKEJXVe3hiek+mZsZyjDNvNi+fkxJ7sJp+6WewJHczKbGacCnJFa8qaGonYp19DR6oZ8MycXLSm5Cc16q6f5nXynJU9OCZDujymzspxM+BJRTTFnZoVqzhDBgRZ3aTWXwkd4MVIZRGGlHMuqXqINBDNwjVvsgjr/of93+NjE0DUAgKIdXfY/+dn7f8AAAAAANQiAoQlNjI0KDt2n82vebEe5dg3S+yyGRU5s5mxM103ZV0vfUF9FDav8Y407GQ2BjbvNc2AlcyBVbq25+hjMKyPxU161GLve44cOm2a4oasfzH4ZubNyiXTn6LvqNGpZuD5Nvc1WYS6nB8xk6JwAqpKzgzUWqGzCHVwT2cJ+o0qbAJ/dWvs/1nuM/9zx3cBAAAAAFiwCBBWItO8eHrs3cBRjp3MvMxstMmhU3Z2odTLxr2ZIwk3SEvnBjm4t9satTcdgDsvBw7bWYQd2/Q86nXWI6V5jezc1203d3Yy/RzN62RTmxncY98G6Wr2BtGsZW3TmZDZgUVRz1l9KWa+Z6oprlr/TUFRnSQ5ZWIHK6eHz7mCt5dl8DWTXdmj+1F0bZ+nXIICudlSo1m32eWSF1WuXb3pdZTx05U/cEgJpbIIndGMXZznRD3nCSDeqR7/s7rp+3qQE/owBAAAAADUsLonnuxOtcIrptlPslN0Vq9ukYsXg0JgC0DnBjmqA2Tjp2XLoYCML5/XdG23ByLRI+4GB4LWyM4jOkClmyEPyqAnQNUgffs2y0YrI87PnHrvwaz31tmA/W12hlqWmQkZ2H0yO/OxeZ3sfKZdOgKXJTKttm2HZ/ud9fNbdy1s2+JxyjSUHsl3d0YgUwmf128dzfoHvF9Lb5/sN5mA08PHZMeQc2zkqjddlmPys0PZ75nPvDZVj1td9ejsf7mE7cMFsIJ0K8QahTgsSFf3tLrdp17za3XzGT3YeR95U+RWxn7tzBvEd9kPiCz6e3M/zAW1vGKMngwAAAAAQAmRQVhxnGarEzn6KTwvb1j99fk1f70sg7sHZNfhMRmdsZsc2+asANPAnuzgoDaiBxXxmWd0+LTs8gsOalN61OJjar4JmbY77EuZ1kHFPccygoM6QLbeDmSNjwYE/5yMxnrZ+Iz/4CZJ0ut54vAx2eITzNNGDumyzNw+XZaqXGIEMJ0swvzpfiudsvRfx1rnyRQ0dx3zr4rc+rW6k9nPoA7u5QhMAgAAAABQC8ggBAAAAAAAAGoYGYQAAAAAAABADSODEFXD3Xdfbhl97QEAAAAAAMAXGYQAAAAAAABADSODEAAAAAAAAKhhZBACAAAAAAAANYwAIQAAAAAAAFDDCBACAAAAAAAANYwAIQAAAAAAAFDDCBACAAAAAAAANYwAIQAAAAAAAFDDCBACAAAAAAAANYwAIQAAAAAAAFDDCBACAAAAAAAANYwAIQAAAAAAAFDD6p54snve3C+q2U8um3tpq1e3yMWLk+bRwtK1vV/620Smh4/JjqHsbfdaIzuPdEuHzMmJPYMyOJWeP1z69TbnfYKX29LbJ/t76vNcrwrUuUGObms1D4J5tq95nRzc2y5NMiEDW0/KiD3VI7Bc4iwvQ0vnOul9qlU6GuvNFPX68TE5fvysjKTqTnHWc2ZMdu0+K35HRvZ6pus8X6OHB+TAGfPALVVOuffb4P1zTqZnrsjxV86pbfObv0H69m2WjY2Z+24OCdRDvur+Xd3M/XzM/1rd/mzfr3ta3e6z72eZVa97M/3alDtFFn1f/VfP3/rf9qQsneo1j6r/av5b7rp7QE3/e3M/TOZ8AAAAAAC4kEFYJBen56z/TU0rrP+hmldIo3Xniryfb8Akh6aetdJl7uevQbp6N8jBI/1y1Lnt65OdvWukxbzCn5pve1/2fJ0N5vkymzorPxvW9dEq/dvX2NPcmtfJcz06eDchxwsMLnk1SJ8ql/3b2j3BQa2prV369+oyMhMqQMujrVZwUGtqvz9HnQepl6ZGVc57N8vB3gqp/0qhTgV1f69Ouv9sHgMAAAAAUCHIICwWJ+MpJBssJedr88268maT+WVTBWbKNa+Tnc/oQJZ5nCVg2c1qmc+oZQbNN35athw6bx4kIEq5emRnaTqcbDjfzLrYy3PqTN+fU+99SobOXDbz60DsWtnU0ypN7vKJlUHoJ06WnplHxuTEWKts7JHQeQPLrFlt26Prpd8KuPotP866KbHrIRl1/6xuK0Tmf6FuH5uJPpwMQndWYYo728+d0ZdEBmHYvAAAAAAA5EAGYbFcmpNpczdvH8wmE/gYn5BR9S//LMIG6bOCg3MyOnxadu0ZkC1bzW3PaRmd0a+pl42bMrLvrICWDg6a+Zx51G3X4Ql7+9u6KyRL7rwcUOuUtR1qGzbpprIzYzKUZBPMzrUmODghA3sG5UAqOKhdlpGhk7Jjz7Fkg6eFaL5f1qr1nR57Vwbf1HVXL2sfjZEBOKW37ZScsPYZePxZ5Navzf07zH8AAAAAACoAAcJia6yX1eaulTmmm+JazW/NJKWlabn1f3p61vpfuAsyZJrUbsqrmedlGXzlmB3IGjovk+6srqnzcuCVMTvYt3KFt9mp1XR3wsoEs+Yzk7XJMydlhxWQE+l4xKdZbzmcOWcHrlxBy65Ndp97o68lmZXWIH1PtVr3Rg+f9PYz6ObbR1+ZrKq3ymFmWq3T1KzoYorfzBiBnCr3tjgHAAAAAKCsCBAWiwmyiCyXe5qtO8oKeaxN99FW7wmarW6yowVWcCYJK1eIDI1GyyLUmV9BgSwTPPIzOXQyuJlonCzKorosg6+ZoOVT66TFyR4cP+0/aEdcJhtPZw++keT7FlHXIzqg6azveXljXP1rbJVvpfbdPOkmxtvXW9mT0+Oj+TchrhXOYW93UQoAAAAAQEUgQFg0s3Ips5ll533p0WYzs/FkTi5dMncTcT5iFmG2Fh3s0YOW6L7fdH9yr0TMsjOBxeQyI10a22W/e1AU1y20SfOZkzJgBb/a5blndPag2q7jeTTzjbI8J6A6fsF3xOTKs0YeswKl6fUdectujp2rmXHHtozy2LtZ+leKnDh8THYUo/l03HqvAHVq/ax+BJX5/2f/T8wK9d7/7n+re8C8BgAAAACAAAQIi+ayvP+B/l8vq1ZZE0xT4gkZ9WRnNcg9K/X/5EYwdkxGzSLUdL+CJuCyXwd7etQ6j+v+BSMMKGFxmtkmPTJw4UaO202mm3SWXxGy3Jwm41XDBK5H33IF9M5csPedOM2MG+tl47b1UjGjWJeBNVpxZqDOBAflgs8AJgAAAAAAlBEBwiK6OG23I2xs0oGSBvlWe73IzJy8YU13AocrZJXVHLUYCs8i1OvZtPI++VbEYE/XdnsEX6sPPjMtUXo0W9egKO5brubCLY+2pptMZ2VyBihgeZXO27zYkV8zYz2Ksbc8jsmuwzoAWy8d2zbLwdj7XYBqrodZsUZBvvWqeZwkPYrx//S/EYwEAAAAAORCgLCIJqevmHuaCQR+MCsj1iixGYN3zMzJRXM3SZGzCKfOyg4TcNm155gMDOt1bZWNEYI9Lb190t+m+6BLuG+/RKyR3h4dqJ2QE6apcW/CTVNT9Z5v8LGsTPNiVcf9rua6+qbrMJ9mxl6XZfKM2of2mCzNKNmrC8j8r11BujfNxDk1/WNzHwAAAACACkKAsJjMIB1NTSu8zTidAUx0AKl5hVgJhB/MJjiKrps3i9AbtAw3qQcuGTopO3Yfs0b/bepZL305Bq3QwcH9OgA3fro4fdAVqKW3w66H107KoGlq3LFtQ7JBLGdwFs8I1hHEnS8Od7+YAWI1M556V85ZO7l7kJ4adUZkXv+/T6TuTmuKP3WaqDN3AQAAAAAoJQKExeQKBHZZ/dI5A5E4zTfTgaCiDORhpLII4wR6LJfl9TG7WXRwNpkevdYODurMwS0VGBzU/Ss+Z2UPjsmQzmycOivHdT0U1ATbRyo4FvF9fUe+9kp6xGu7efGcnNiT3WRXNxfWgeFYoxnDY95kEdb9D/u/x8cmgKgFBBDr7rD/zxfvNAEAAAAAqGEECIsqPZLxPVZgJz0Qid0/Yas8tske8TapgI8/k0Wom9M+YiZ5NEjf9nUhwUPTf6Liv55q/n2bpb+tXqaHizR6bQK6NulRi3X2YHo05pFDp00T7NzZkflzAqo53rd5jfR5+nZ09pegQKzTHDipEa/N+81MyOu+A7XkExgO0Hy/rLVSY5MffKcq6SxCHdzTWYJ+owqbwF+dq9cBj/vM/8oa7wcAAAAAsEAQICwqM5JxY7ts1IGY8QupATsmTT+EjSvdmYXF42QRdrTpjDGvlt71av3aZf+RPmvkWXegsEUHsfbZA45kD2ShqOd3Ws/PyejhY7KjwkYsTuncYPep52QPpjhNsOtl46ag6Ex0k0On7Ow7/b57Vbn2rnGVqypjtT4H93Zbo/2mA4iXZfC1CeteU89m7yjAVjl3282BAwN6EZnmxdNj7wY2b3f20/yzT51ts4Ox08PnijNITRVKZRE6oxm7OM+Jes4TQLxTPf5nddP3Z9Xr6MMQAAAAAFAEdU882Z1q3VZMs59kB45Wr26RixeL0/Nepeja7gz2oIMl7gDaGtl5xAR8ZEIGtnpH+3XPF0w3DR2UwVSwyLynHul1dzpLzpHqH1Dxrot+boM81+Ma3TeLDgAOegcdaV6XCgTlkrm82Do3yNFt2UHOLJ5mznaGow5iesvL4dSFz/OxludwlmseZvEpUyW87oO2wS3X9tqc5eiRiIMHk/Evm7z2T9/9MFeZODKOiYLqoXBWkG6FWKMQhwXp6p5Wt/vUa36tbj6jBzvvI2+K3Mooc2feIL7LfkBk0d+b+2EuqOUVY/RkAAAAAMCCQAZhkdlNibU5OfemO0CWbn5cKk4WoZ9JPRjJntNyYtwMsOGYUY/HT8uuPdmBLFllN4+udP//9u4/xI76Xvz/a38kPdu1yW41Jrs2cZdbJKFpmh+18RJiamuRkBKFEom9QoWL0AhtRbG0+cfcf6JUIu3ngrkgBQu2CQ0XNDTkK7aISqjW5seNkQS5l90kdTcxxt2kXbPV/fF9v2bec87MOTNz5syZ82Nzng9Y9pzZM7/eM3P2zOu83u+XkyGpAanjRyOCZe/LM89r5l6v3PvDuK7WlfpI9v38OfnZ88fkqGnHAm3TY/JcWJsab/xK5xmSkcD5UTgO8cHBpLzuyiFZoQF2vMwKuhmPaIXo538v20OC1K0ukCloH3pmD4rM/H/mQfE4gxrcKxOYBAAAAACgGmQQAgAAAAAAAC2MDEIAAAAAAACghZFBiLrzj4VYXun4jAAAAAAAAMgOGYQAAAAAAABACyODEAAAAAAAAGhhZBACAAAAAAAALYwAIQAAAAAAANDCCBACAAAAAAAALayhAULGHwQAAAAAAAAaiwxCAAAAAAAAoIURIAQAAAAAAABaGAFCAAAAAAAAoIURIAQAAAAAAABaWFMECAe2PSDP/uQ2+wwAAAAAAABAvTRNBmH/mrtlP0FCAAAAAAAAoK6aIkA4fGCf/OzQmMiau+XZbTfZqQAAAAAAAABqrWkyCDVI+Nxxkf4t35EHbrUTAQAAAAAAANRUUxUpeeNXf5Sj0iv3/vAOGbDTAAAAAAAAANROUwUIRd6XA9rVuG+tbNtgJwEAAAAAAAComSYLEIoM/2VIRszvdV+nYAkAAAAAAABQa00XIJSz/yvvjJrfa/5F7nSnAAAAAAAAAKiR5gsQykfy52Nj5neP3EKxEgAAAAAAAKCmmjBA6OmVL33JPgQAAAAAAABQE00ZIBweGbePAAAAAAAAANRSE2cQAgAAAAAAAKi1pgwQDvT32EcAAAAAAAAAaqmJMwjH5G9/sw8BAAAAAAAA1EQTBghvkn9d22t+j8sHZ90pAAAAAAAAAGqj+QKEt35Zbu8zv4//n7zhTgEAAAAAAABQI00XIBz4xqD0m99H//q+OwEAAAAAAABAzTRZgPA22balV2T0mBw4YicBAAAAAAAAqJmmChDe+ZO7ZZ2Mycv/9ZYM22kAAAAAAAAAaqdpAoQD2x6QR9aIjBx6VfZRnAQAAAAAAACoi6YIEGpw8GntWnz8j/LYgY/sVAAAAAAAAAC11jQZhCPH/yjbf0VhEgAAAAAAAKCe2r75rbtn7eOa+vgymYEAAAAAAABAs2myKsYAAAAAAAAA6okAIQAAAAAAANDCCBACAAAAAAAALYwAIQAAAAAAANDCCBACAAAAAAAALYwAIQAAAAAAANDCCBACAAAAAAAALYwAIQAAAAAAANDCCBACAAAAAAAALYwAIQAAAAAAANDCCBACAAAAAAAALYwAIQAAAAAAANDCCBACAAAAAAAALYwAIQAAAAAAANDCCBACAAAAAAAALYwAIQAAAAAAANDCCBACAAAAAAAALYwAIQAAAAAAANDCCBACAAAAAAAALYwAIQAAAAAAANDCCBACAAAAAAAALYwAIQAAAAAAANDCCBACAAAAAAAALYwAIQAAAAAAANDCCBACAAAAAAAALYwAIQAAAAAAANDCCBACAAAAAAAALYwAIQAAAAAAANDCCBACAAAAAAAALYwAIQAAAAAAANDCCBACAAAAAAAALYwAIQAAAAAAANDCCBACAAAAAAAALYwAIQAAAAAAANDCCBACAAAAAAAALYwAIQAAAAAAANDCCBACAAAAAAAALYwAIQAAAAAAANDCCBACAAAAAAAALYwAIQCgerfeIc8+tVnutE8BAAAAAHNH2ze/dfesfVxTH1/+yD4CmkNuxx5ZuKpPpk7ulct737RTQ6x/XBY/tM4+KZh84fty5W37ZI7ovG+P3HhPX+22felGueG798nnTLt22klTJw/Klb37Zco+L5b4OGTkel9fQ2zYLM8+PCj9o0Py3H8dljfO2ulocrOyesW0rMyJXL3QIQdH2+z0Buqaka3LZ2SBfZo32S6HTrfLmH0KAAAAIFtNl0GoAYzFex8Xc78CH9olY0u3S/eqPudh5+Jb8sGsMJ19/faR31H55xwLDooMSG617vOoTI+4UzJl2vTGnTucdvW3Z+eqrXLjrohzt4LjkImU60t9/dV7/xpBMwc1OChD8tzPr4/gYG/vjGxaMS0PrpmyP9OyqW9Weu3fA3oLr9sU+oJZ2eQtZ7D4+zgN0LnLX91lJ1WgdDunZKt5Pph0WV2zssye1AuWzMig+7CF2eOxYib8WAMAAADXsSYLENoAxsUPIrONWhPtkrnzb8k/L+qDUZk88VZsu0699Lhc3PF9+7NTJnS+OXkslkrHYvPr4jsyed6dkp0BueHftzoBMCdTLt9e35fLLxw1bfzfMum+MKiC45CJVOur4vqr9/7V3U3ywA/XSr+MyctPHpY37NS5bHBwWrYMzMjSnD+YNytLl5jpGnyzU8Is7QlJyO81y7IPs9TbF7adIgvM8w3Lp2TrYERA0+9am5yzF+bVC+0y5D5srGvtcvB4p7yY/+mQzN+uAAAAAJRosgChF8AgEBZEu2RvWP6xSwNYj8uVl4bttCTm8LFYajPYarHtS++Qz2m72G60/uVPvb0npo3THoe00qyvmmNe7/2rr4Ft35F7+0RGDr0q+66HzMG+adngBPna5PyFDjnkBanOdMh5DaRp8C0uu6ynNAtvMCxoWK3eadmyxG7ncIcvmNYph4bbnW1dYLbl1rKZhG1y4rQ7X1N0LwYAAADQMM0VIFz/DacL3+Sx63ScrrRol+Yxl49FvxsgnBrNPh+nc93tzrKvy3OU6y/CbbJtS6/I6DH5fweuhzFmZ2WVE3QTJ+j2+mhbYby7a23y+mmbyZabkVUhEcLz4xpgm5Vlgb+Z5z3ml/lblledF3TUrL/Xx4KBvbExM81s66EzHXLimp2IxBbaLtcAAABAq2lwkZKNsnDXfZJb7I7RFe+oXNmxJ6Sb4oDkdvwoMO6ZFkWY+MN+mezX4hL9MrH7cflH0d2ZW6xBCn9barbl333bctGs79dmfSV3denWpzrXPy4LN6+TTs1GcozK5CsvycRLwYyrbNolvU7TFrkKC03IUtMu3w22i7bhxOH/ln+8XZw5NSA37Not3Rf3ysU/iFPUwhmnTV9v2vwfZv9LpuXb0zfv3jdNm26X7s1bTVu5f52yry85bhGFRuTiQbm8K2a/ipScNwkkP+5ZiD4/p9bFFyipbDuTnqNF52fq4xA87s5+3vc96b7HbK/7Aqdr85Wi7MV066vi+qv2PKvoOlIp28Vyr5/bffs6al7/jvt+Vu783rBZ9j88KCOHfi+PJQ0Qds3K6iUzsqxnNl+E4upkm5y70C4nigJd7nhw07JS3OIUOu8qf5daM9/5kABZ6vl0LMEB85q4Yhjea8Y75MUhO7+dpsG6K2bflob8TdcnxX9z2G3NtcmpCgJ6g4NTsqGn0sIi3rrs0yLRywq255h5Pjg4I1/1H8PxdnlzKLqASK9ph41LzOtjgm9x69+0ZlqWVlKkJOI8e3e4Q4aK29hs29Yy25ZXcvxcOhbkKj2++WW02TbxBZnzqm9PAAAAoBYam0GoXR4T3YQbYd37tCjC3t1OhdD8zbShRREW7twjC9fqjfqITIUF6/p0ve7fnAIEO3cEAwIaJCmeL3Z9j8esTwMOv5MbH/IHX1Sf5O7ZITfu2h5YXtXtkpoGl/ZEF5rYu0duCBlMSwNLN+4sbRdZvE66H9otN943YCd4bJdN+YZpN3ddDvP6z31XlxWc1v3dje5jZbuyTsktcoNu60OF4KDqNK/XY1+8neGFRsxyKhwXzn/elFfhca9WmfOz2ylQElZcJcV2VnKO+qQ+Dt5x1+xHbz99QTDVuWqHLCw611Ktr4rrr5rzrPLryEjZLg5dn3P9+PfVrNt7/1wfMo/PnV/XzrRj8s5fkgQHZ2X14LQ8uHxaVvoCIUrHzFs5MB1R4MMwf1+l4wKaeQPj7ZnHS818pYU/rArn67XBnavjYUEda7JNrurvkK7EGhS6opFi39/cZbrTFzpTsjHkZCvawiIpipukYtqtp2vWKYqi3bADx9Ds85aIrtfumI4JA3AZ0G7iUeeZMzZjX+n5kn7bNNg3ZceCtJMcZt09Zr/jis+kbE8AAACgVhqcQei3URbu3SG5xBld9vX60Mxz5deFjBcnE0qDHfokdHk260bM3w7f4gRGnCybP7xpAz8Dkltv7gUDGTuF9eUzBhOtz5vPZmMd9dZhLN0oN/z7Duk2N/hRWV2Vt0tatk2cAJHZ1hf+UybM/rvr82UlFW+H2XcvYyqYqTQgnWaeG808urxAxp0GMna6BS3yY9b5llMyzTx3s6MM/+uKt9PJAjVtpfvgnyeMXU50u4exx6Lcsh3VHvdKeeszKroesthOu4w052jS42BfN3VxVGRxnzkPNcP3v80+6jWqgW0NrJmHmR/3KvZNVbh/KvF1pFK3i3e9u9fQlfx7nVnf+u/Z8yVkfXk3yQNP3S/39g3Jcw8lKE7iZdk5WVztMnTNy8KalcG+Gdlgx9M7crzDVyjDZlrZwItmVb17QefVZ/75tEtwp7yej+qlm8/Lygsuq5jNZjPbms/4y2cQdsibMuOMDeguw5cpZpp34/IZWZBRBqHyttdh2vWU2cfSLMzynGInZpvLZhDa9tTjdMocQ29dmh2oAUBV0na2bUrnmZGNA6Y9So55mAoyCH3r06zNk75u4k4Wo/mbrjO6rSvLVvTazlmf2b98VqpmMA54bRZ/XlfUngAAAEANNc8YhJq1o78TZsTldthgiN74mht3f3c4LYqglVMdocvzMthuNzfC/eYGeacbkMovY7goOFhYn968X94bvb7iTCF3PnPTbm60r2hXTf/N9vk35R+/Pui8vrMvIlunwnZJq/O+H7nBQQ2EaEGFfHBQmfZ4yezj7r1O4KkwfaMTSFAaAAkWpzDz6zyvjJrHffK5db79s2PhOevy5hmx++efZvnHzMtnaIVtp2nPK7Y9ZbFdRwR3OaMyPeI+T8QeiyRj+FV93CuU5Hpw2zd4HmWynVWco0mPg3fcncy+V3aafdRu5N41as7PP9jjXkbFx73K6y/Z+lJeR0bV7XLxHSfAXmDWp+fLjp3OORHdjf6L8iVNPBwdk3PuhHhjOiZepxw8rV08/UGoNhka7ZAj4+6zhRHZVk7wasgL8il3vkMX3GWFVg82ks83a8ees1mAMaL+rlloY6PtTuK5s9yuWVlmpmmgqhYxnqGhTmc/nIzGnJuF+eCaadnUl6B6cVqTbrDLH4gcM8c2f/zMdvh5WZk6pmNwnnY5OKzPi8dsrMasrM4HfovGkDR0O/PrjDhfKtI143SbdgJ8Z8z6fPunY1aeMOf6KedcmZWvhmQtOipsTwAAAKCWmidAaINGiQoBLN0u3ZoVY4NJcUKX5930m5vqqRfcIFMs3/o0syfO1Kh/WRvlczqfaLfX38nivSE/XiZdlEraJbWN0n2P3u0flStxWVLn3wwEnjrvu88Nmr6yMzI7auroO87yOvsKfX69oMbkYd+6vP30TfNe529Tt4vvqEwEApU+55MEcgYkp91tL74T2J+y8kU+ypwvWRz3SiS8Htxt9+9wRtuZb5dKGlMlPw7ucTfnhwbzY6oBx29DiuNe1fWXbH1pryOVvl2GZeqi+bV4qyzcsVE6S4YOGK7s2khgzAvSdc3KYO+MbBqclq0rNKjlZcJ5QbpibXLOdqktNmamewGy0jhT2vmqoes0v8xytZCIZqud0yiVee7vQpqVsdEOOeirXKxtuHSJ27V1U2/WwSXNdAvP9hufDG/nJDILgtmArI4heTIqIjvmBnAXmGNT9XH3jul4e0Q2YpucsIHo8PXVpj0BAACAtJomQJhzxu9LltnjVUyNG9crNnPHC2jE3JD7pV6frX5ajUraJTUvYHryLxUVO/GCdf88Wi5gFuTN59+nsP10X+cfM2/AjpGXdAzAKDaDtMKsMHcbw8bwK5LBca9E8vNTA0W+Y5XRdnrHrtLzIPlx8I67tn34OvJtEBu8rfy4V3f9JVtf2uuo2naZ3Gve/06OOmMU3ugEiPfIwvs2uu8FNaDdSjetmHLGh9ugY7ZpAC2r4JBZjtfbtiL5+bzMwaggZUG5vzvjA+ZsN+bx9jLdZ7PhVi7ulBfPdMgpJyjqjrMYOa5jnYzZfyi6LYGxEnXsPduN9kpWwTAvYGfafssac56F/mj38Gzkx6yM+6dp9s0LRKc6PwEAAIA6apIAYWWBn/I31DZzJ2J5lQY00q4vnyn3wvfl4o74n/Dsn6wCYmWkygBLuG0ly/ay1vzzhS3Lvi4QXLEBl7hAZpIuoTYwVllWmN3GBMGl6o97ZZKfn8HgZjbbWcU5mvg4lA+0eW0QG8ir+LhXef0lWl/a60hV2y7DMrn3cbm4e6dceUW7oNuiNE6gMJuu73nOuGq2kMOkjg/XIUfOaLfjDnnxeGe+S2UjeVlbsRltXbP5YiNXQrPGDJulps5HZDDWjHZtHfJ1oV7S4EIX+e6yboGQfKBOC8fo5PGO6Gw/AAAAAHXVJAHCBIGfisTdOFd50x/GVhKNulFPP85c1u1SbwNyw2YNxvoymEKzFUP2MyzQZwMucYHM3HfdLrFxQZnQbM+yygdjimU1vmD14re9uu2svF08iY+DPe7R60h2TVd+3Ku7/tKdZ2FCriOVUbvI+WF3jFENBu/eK5MXNVD4o9CK5QUfy9+cYRF7ZZk7IYaXLeZ2qXzxtDs+nI5FOBYYjzAFL2tssk0qijGGzOdlu8V1P+11ug0bsZmBbXJOxwacbHe7FzdAvgt1U3CPcXB73CDxoaGYitGV8rL1tBDM8c74n3IFSCrI+IutgJz2/AQAAAAaoDkChF4wqCJ90uEmQBUZKBRsCL1xThvQKC0Q4HAqvdpx2oqWOTXqRgY6V98RuX+d681NvH1cIlW7pGALhHTe8z233cKY/Qxuix3DTNbJ59Y7E0r4C59MeJlrYZlQYYG/kNd5GW+R3UjXP+5WbC3TDdjNqqowQJwgOOmp+rinUvn1kMl2JsnYjJD0OHjHPTrom+yarvi4V3n9JVtfyuvISN8uG91xB+2zAC30c1gLLkWdT56P5IML+rtHbrnVmVDeZJuc9RdyyCtk5UUJ79ZbKEpxdTw80FTRfF7mX25GVoVGCGdllVcEo0xmoBZCOXi6dt2LBwfLjDHoBaYarXfaGV/ylBaoCQTpSouIlFUuaHetTc5pkLdnRlZHFLupRFTBHE8+CBu5vvLnJwAAANBMmqdIiVp1n9ywvhCE69Tg247tJUGrqVFNXTH3Cw89Ljlflkvn+u2ycNduGySKCOakCGhMHnMrFHfes1tuvG+jWeeA3bY9cuPOHe7Nu1Fyo/62zTxavFVu3GX2w7+t3vwP7ZbuiMBAXsJ2Se38W/JPG6RYuEvb1BcINY9zZjsXm/0s7nbotUvuoT2y0Ld9TtBU980pfBIsKBIW5Es+TZen6/udcxwKAQ67jflKsHtiMr68rKp10u3bn871elztkxgaTMu/TtvGv9+erI57Qqmvhwy20xvjLr4bbZjkx8E97jGZeF7wNmYMxqqOe6rrL/n60lxHKm27OEVRdNzBXe76AoFCs86FNluxnDf+quGvXrn9Gze5E8rJzcjGQIVd87jXLVSyMjbyY8fT88/bNSurdT7nILTJu6PhgcfK5muTk17X3JD5Npn5nEMXVwSjHrpm5Ks97r5p2w2abfNz2tSO71erCspJueP0zcpCs73V8MaH1GrA/mMSGNfQHD+3KMisrFxuj1/g7+b1faZt1pg2s1NK2SIzuoyBmZJxEwf9Qdlr7fKu91pdn/9vsecZAAAA0Jzavvmtu6v75J7Qx5c/so/CDMgNu3bnA23FdIy0YDERcxO712ZFFbt4VK6c6JeF94hM7H5c/lEcI1z/uBNI0gIllYz/ltvxu3ygxW/q5EGZGL297PqiTJ3c61RGDg9sVNouVVi6XW6MqVir+3llb2nl4Kh2cY2WtIn7+uB0d5o5bju8wJ633yHTzDJ1rDQ3+FIqyXHtvM8LugTFt2fEOaeVg8MqP1d13CtV/fUQpdx2hh3PpJIdh7BzIchbTrnrofLjXt31V8n6Kr2Oqm2XqG3LM8ddK2LHn5+3yRMv3C3rRo/Jz37+lsRddb1907LFZlOVmGxzxqnToh7nhzvl9XxEqxBk0UIQ4V052+TUmY6iKrJp53Npdt6GqICWbuvposqzvdPyoAbktGvrUEQgKPI1/kBSHLPe4771ds3IJm9MxwhXzboORm2Pj3dsrl4wr48ItLrbGN1mkcsw27l1+UxsNuNV06bnLrTLidDsUlfk+RPS5rHnmjLr067u4ZWHjdhtLjoOZY9f3PmZoj0BAACAGmqSDMJh+ceunTJx0s2E8kxpcGN32E34m2b63uDrL46aG+GdcnnXHntTG961LywzLYnJvd+Xyy8clEmzzildlwbMdpv17X1LOmMKosjbe+y4XkX75sxvlhl7E15pu1Th/H65vMOtahrYHrOuCW3XkOCgctvlqO0maWn7vLLXLK80qOEG9vxtZacFMjrDukZ6014yx7h0O/PtmSDoO/XSfzrzF7jb6+++WUrPOXP8ffupx2HicETWWlXHvVLpr4fqtjPseCaX7DiU7z5cNpPOqvy4V3f9VbK+yq4jVV27TL2kxUncc8Y/v/Pe5lzvSc7P9+XAoTGRvrXy423xWYRjox1yaFjH5bMTlA3U6JiEQ2ERzrw2OTfcWTL/1fF2p9BJZKAn5XxDWuSjeFvNsjTgdqg4ONgo17Rqcdh2ugE33b8kwcGau9Ym75bpjq2VrFdqxmYhtbSEc/7ouI72uUPPn5CB/fS1XjXn4tc74x6ados+ZwzTtgfN/OfN6/20XU8NF3cbb5MTp/Ucazevt5Mc9nw5XmZdAAAAQBNpkgzCucxmb0VlkiEbNsNRKsz8BFBLN8kDT90v9/aNyctP7pN9Z+3kTJTPtAqXdr5S+Wy0kEw1lGOPg7TLociiILM2Y1PIlgMAAAAajABhlbyuepV2Wc5S2e6CAdFdEptZXHfJua4Vjh+uY7feIc/+x1rplyF57qHD8oadXL3GBwh1WZvWuGMPakbYm0MUm0jMdtWVMoE/utMCAAAAzaG5ipQ0I81c27tHFgaKYhiBAgJHZaKBWW1e8Y7rWdJupHNRKxw/XMfOviWPPT8kIzIojzy1We60k68PbfK6duM1jxb0TMuWNVPyoPMznUml3FawYMmMU8CjuAdxrxbyGPTGC6SQBwAAANBoZBCWU6Z4hwat0hRoQCXKF2QA0GCaSfjDXnnpvw7LG5l0NW6GDEJLg1lLZmRlvnhJhsu+jg0OTjndh2M5Y/vRlgAAAECjESBMZEByO34k3av6CoFCHcz/xEsy8VKWxSYQjnEegdbTRAFCpNbbOyOrlszKwtxsoDKwV7347BjdtgEAAIBmQIAQAAAAAAAAaGGMQQgAAAAAAAC0sIYGCJctG7CPAAAAAAAAADQCGYQAAAAAAABACyNACAAAAAAAALQwAoQAAAAAAABACyNACAAAAAAAALQwAoQAAAAAAABACyNACFSi92b5xZqbZa19WnP1Xt9cQbsAjcP1BwAA6mhg2wPy7E9us88A1AoBQgAAZL5sXjEgv1hzi2zuspMA1EdXjzyxRq+/op8VPdJvX1J73nvAgDzR122nZWWuvL/M7ffB/t4e+cGKWwrnjx7LFTfL5t759hUA5rL+NXfLfoKEQE21ffNbd8/axzX18eWP7KOCZcsG5Ny5Yfvs+qTfdjy9pdc+CxoZHZPRP7wqB458JMWtcOdPHpFH1tgnRdLOVzAmLz+5T/ad1cc3yQNP3S/39okcff45eeaI84IQ3uv88xa59Q559j/WOh/mRw79Xh47UHrMRW6TJ164W9bZZ0kEtmvDZtn/8KB9Ei16/VXSzJkBkf3HP5RjdlJN1XN9HfPkB905+UpHh50gcunTSfnT5KQcm7YT/Dpy8sSCnCyyT/0uTX8mp8x8hz8NmzED9T4O0iFru3Ly7XnzZJFtnti2UZW25/xu+UX3PJHpSfnl1UkZsZMLOmTzgi/IXR2fyf6xiaL9Nuvq7Zav2GdRLk3+XZ655q082Tzy6YT8dOIz+ySo3+zj13I5WTm/I38eXDKv/615fen2V0pvVPvlrpx9mveZ2Q9zfl0Yl8Njn9ppWfDW95m8duYDOXzNTkYprr8WuP5E1g4OyPYe+6SIXoMfXrgkr5prMIt1OQHC5T2l/08mx+WXp8dD1+Ft36ULI/LMaLn3gm75wZpFpr1jru/ANnyS4Py27xkSvY0Fad9f5s77YNz5UlDD91fnfenz9kmR8Uvy06EJ+6Q1aLD0O0vMe0zOvK85PpP3zPny6uhE0bnqXRvJvTc8LL8Zs0+qlHw7Dd8xDt8G376UHPN6/o+v4rqNO499it/3oq8/d51/Gh6XY9eK1um958W8z/b33SKPLpkX8z47X9b29ci3ez4vi/L7G3MMq+TdV9fsPg8AGYSN1N/XK+sevl+efuoOMfdaiaWdL9xH8udj7n/Yvv6bnN+hbv2y3N5nfo8OyZ/DgoPGwDcG89/096/9cgbb1jzcb6UH7D/tz8t2/VZ6sMfctLp/r1iX+RBj5o/KjKj7+rq+IL9YYD6g+W6m1aL5Odluboo3Bye7zGvDgoNqkblxvav7C/JEV9iM6dW7XVT//G55ovcLst18ePWCE8ptm+7QbpZp2rO/w74d601/aLO1y806/dNPS29azXputg/jfDjti4zMn5/ohuDSzIx95Ncha83xfdTs412+4IRaZNrr0QW52DatjjkOuc/LXQP9dc4uah79fTfLDxqQEcP1Z361/PXnWmSOx1fMNfhoVtfgtXF55viw/DT/c0nes3+KcsHc9CrdlrK65tlj9JlcjAoMXPtETk26Dy9dKA4CNxveB4PMe4kNqly6cEl+6T+XzozI/gvhQfZKpH3fbcT79drBW+TRgR5f0E2Za3bJInPNNs/wENVs51d6QrJ8k3zp0lCNuG7ddW5f3i9P9GV8HnbpZ4J+2b7EHxxU0cew2uth+MA+ee64Wc6W78gDt9qJADJFBmGNRX/TcZMMbPiy/Pjh8Iw7LxOwNKsvfr6gBFl/ysv8Gz0mP/v5WyVZiQ4vc+/4H2X7r963E/3susxH6pePDcq9WyR+nQEJt1N52xG3rRnzvj0LV/k3kf29N8u/mQ+yUd/Y1X195mb60Zze+U7LexOfyKufTruvMTe9m3NfMDeg+qfSrBpvvvcmxuU3/i8VzXxr55sPI84yw7Jt0ql3u6hC25ibDs3MMTekI849vmY02X0syvBJ255ru3tke8e0XNKgRiDTyLIZm2F/89YZzFCqTOTxLOFlUunjon10AhemXeZXty0u7xv4okyervmytqdHvq0fSPV5zPGrTD2zC6qT/0Z/fFx+O5TFvpfH9ddq118hI6U0U2e+OX6fN8fPzbZLlsFXqW43Eyju+vYybZK8B1Ty2sTse0ZdMgjn2vtgnd9PE2RCVSvt+269368L79WaxXVJXjXXprNO/UJmwFxTGsgp2061P36pttO7jh2lWb6BLLqmyCBMcd2mfK+KfL921rlIttu2Dux7VRmE9j1aH06a/QxkKJp1Dpp19swz2zNitqcwXzbXg+2NVsd7QaCVkEHYMB/J8JG35LEnjzlvjskz7ux8zw85z/r7v+j8rsrZ/5V3Rs3vvkH514hvY+78utut9+hfw4KDhs0wHDn2v7LvL0Nmn3rl9m/EZCTOFeaf5795H2DMP7lCdoN+I/2JXJJ5cteShGMVmQ89OrbPo85N8SfymvlnWvKPsd7rMze9/2Zvpl+7+ndzY+rdaBrT03J44u/ymt5jhmTVLGl35/uw+B7UzHfsmlmfM71dFhfNl2f21clG0iykct9q1rtdlK9t9Kb9Ge22l99X3ce/yy8nJs2PLzMhdXvOk686gYvP5JT5+6L20rfm/vnznA+UgSwkyz0W4X9LKvJ4FtHMJSc4oUGWsaJ91HaZMB8UJyfkt1HBiUqOexjzAfTY6IfyzJlxc9yNXI98J3wUh+vWyOgl2T/+mSwyNxqPrrml9tkpXH9cfwHmRn7MHJPhT5xniTL4amHyU/c9oBIaZLYPqzdPbg5kzdQR74N1l/Z9N5P368TXbbd8x3mv1kDRB/IbL+imrk3Ib07bzNyGny/Vbed74/re83n5auBv3fJVDQ6av5XLPm6YRly3zjovyWs2OzorGgB0g4MaXPywqPuyWefQB/LLM8HgoMrm88v7cuDQmLlvXSvbNthJADJDgLDRzn4sGpuTvl5Z5kxI6G9j7j/TJV/MsJtxVFDvNlnvjGs4JG9HjVH4pV4no3F05KP8Pl0X3Yxz891v+cbHi/7Jef/kzc1ygnFtNFvmieWLRMcjuTR+yflnGvrtZV3X1yGbu90xBN8zN86HQ+8np+V/PtM/dDjjXBV02MDfjFyMmC98esHaJdqtxH28aMmi+AHR630citomKqNn5FN/FlIV7dnhdlG8NPOZ+/f580u6ZUQHELxj8Zm8G7Gd5dkASeTxtOZ3y3bndZ/J/tBx2pQGb6Jvwis67nGujctvbbexr5hlhnbV0WDU4C2B4gc6YH2SLrH9Zt7AYPfmcegHWXPj5iw/sruQZhLoMqIH/XfOS3vzF/UTvCm0H76H9SbD7eqpXX3D158Brj+uvzBegC43L/PrryLm/FxiH+r1pt0Wn3CuVzvJ6LdBTB2Ly+Vdl+E/kUGYwLVqb5DNTf6jRfM7P4NxQXO7nb7Xp7qGm+V9MDV7HPLvn8nbRbsq5l/njR0ZdiwijkN+yIT8a816zWujj0Ha993q368TX7deF9vJcXk1kPXrmZDf2MB+aBfdeqlyO2827z0aBAz8zS7zPfO3ppfkum1m5nPPt51Mzc+iv+QzRgJBQ082n1+GnWQUkXVfp2AJkDUChHNUfry/Cx9nklrtvdGGBvU2/ItbVOT4/8kbzoRSboahF0B8X94+bn7FZCTOGd4NkPkQEvphOvSfn49+MDcfQJ1sGecf6Yg8Y26ko/6Z1nV9HfNkpXPPOymvxix2ZNodAyuQVePNGzYel+rIybf1HmLa3HDH3fAmVe/jMD+Xz9KJa5uAqtrTHUdMM5Dcv3sBA09cQNaOjWbmveBOqJwNkEQeT2vtPPuN/0RzjM81Mj7hnheBAIFLu7H8QoNRPW7ml8cdi8fcdMZkYdy85BZ51MwbGBfJPNYPsvE3/ZVzx2Ay56W9+auEk8V1fEReq3U2Idcf11+IfnM+ONdWSFZeNddfYtc+kw+dB/Nkcf68NMdO16nXq9k+zxJ7LX+YQfAgzbUakNOgW7/T/S7QNnoNpxiX7Hp4H3S23QlGVtIuwdcl5wYl3bHv7CSHWV7PIud9NC5wnvZ9tx7v1/lA+PgnyT5nOhPqr/rtNNe+ZsT5/uYu053ujjfa3OKu20xpF+NB74u58Ygv5SqTf++vYnlVXw9e77c1/yJ3ulMAZIQAYaN5wbfRMTnnTCjnJrlz22b5sa2MHNnlt1IxmYwD/e6AHtHrshmGvgDiG3/VLtA17Gbct1aefuER2R/y80SW6ebXxuVP5p+XMyD/cvvtcswHR7+SbJnjH5SvNljH9Xld5t6bjMpEiWFvqEsG0DfT15oP+V5147hlH7swbv7uPtZBxWM/ZNT5OKz1bsQraJtq2tMtkGCzkz6134zbbXAlKJCgwQ1nQgpRxzPAC5pUkylV4XEvJ19UwB8gMMwx949t5B+w/pfD2iXW3HRGZmFoYMEdH2f/GX9XWvfbfjE3kP7MpKqY7dSbYfdb+ELXXfebdaXjF7nTosd4+1QOO9/Gu119034bH4vrj+svwNxw9t1su52bNjc3ugFVXX+VsEECP3+RglxxZqP/9ea6OV3Yrvz2lStmMfah7/W2G6R2sfMtI/8TmlU7T+5yxlcrvubdbKlUXQ7n+vugQ99bKmuXkdEP8q/7qddlM+xYFB2H/j73/chpF9+6fnrG64ZpjtHy+AIZ6d93082X9LpNFAgPDazXV/Xb+Zn8j/2f5HYzni9f0/+lkxPyP8XvCc0q6rr1RGUmm5+4a+8rA0WvX94v28357n0xlwXv+BUystOq5vOL1/utR26hWAmQKQKEDaPFRjbLs1pww9Cx+8IyAdc9XBwAu18e2eJmD44c/2NRAZNq2Kw/GZT1gQDbTfKva/U/UUz3YhvkDAQQj/yfHDW/roduxm4qvPvPy/l2ebn5h7viZtkc902Xjtlls2X0A2hstkyR+qyvQ742z0l7CekyF85/8+pV/FyU+4L8oren8LPAVhs1y31vMrproOPauPzG3qAlGeC+fschzY14de3pdl/0spPsev3dHG0QIiyA4AVGtPth4Fjkj0n5iqbe8YwdQ82rulomy6msCo97Mv6xwObL5iXuIObu2EbBYz5ibvDdsdPmycqe8HPHGYx7SAfcthPMh9hj5mbUCx5k1TXLy6LQ7fQHzQrju3k3P+U5+2VvcPXb+H/LIkPLh+uvda+/khvONbZqpfmbBn2LC5hUe/0l96lctDfY3vXvXlOfyHvj5leuW77m3HjPl8U2IBRZwbiedED/okC5tst+3Wbj5lzadpmb74N5NWsXH31PskFTLdYQGDLh2oQcPj1ig4Sfl28neA9N+75b8XyJrtvCeV4SOA8o9/daq347NUN4ZHS80M246/Oy0izzvQvR3V2bVx3GMjXtpV9MZJ2xWhLgNdeXf3gA5ydBVnTa68jVK1/6kn0IIBMECOukf8v9JYG+px8uBPqiKxGXGhk9Js89+Xt5LLSacHpu1l/ReA62+Ejy7sWeGncz1spVDz0n20N+sguaFjj/vI6PmBtk+y1u7vPmn21/on987jeglan9+mxGTLkxr4ywm1f3hjqMBgYn5JdaIKDKCpph6noczP4m7zJYTXvagIhvfcc+0xswL1Bi2AyjsABC9LGwzDzxH5i94Ep8QMbb7tIgyTzzobM4MNK4rkvejUL02EbG2IRzY7Go5/Mh581ncmo8vCEKXYIixlyrgUxuijPC9cf157lkrq/9Z9ygb0DV119lLtgMFvc68bKIPpV3nenejXcdbsAT0wy5YOVVj7cvmZhz74N1ahdznui1HN018lM5fMHNWszi/EQtTci7zhcB82St0+X1E3lXz3XvGM91Ydmw9if4pUyQVjEOvt79n53P0Mv4y8NGGh6x3x4AyJT7iRMNMTI6JC8/Hx/oO/p8IfD1M63YZPRf+FjeOJs8oJiYzfrzj+fgjXVYtnuxDMojgQDoI/KIM/06qWbscCs3Ot/inrlkb5Ajxsa5Ni6/tdk2egMdP/B1lDqsr+xNeFhmTmFQ/v1m+36qP1cn3RuG6c/kVR0gv8xNenVq3C42WyiVNO3prc8fSCjq5rjW+R2WHeUdC63aao9F8Y+/ymsoG1wpu+2ukiBJWHtVm+VUMV+mgXdzENM9J19cIC2zjizGDBqxN75fGSgqGKBjcQ242T9Jx0wLduU1531m2ZnFuP4KWuP6899wetlji8y5G6xaadXj+vPxriGXDQTqttkgViDLzVxLSdp47pqb74P1lB/7Li7oaM4TNwBafv/Svu/W5v26NKM2XKMD5tlt5zGtZmzO8e2aFWqu+fp+7shKrTM63f/ZXuXkRUt6MvsCqeQLTPM//5l8YNIOwZBA/T6/AEiCAGGdjBz6fSDLTX8e+/lh2XckeaBv+MBRG8BbJw/UZLwFr5txYTyHZf3av21M/vY393kJbwzFGNdFNeNi1ybMDbLtipLvxhQUTJm3A1+nTe+v9/o8+YH//cVG7A2t/yZ0elL+pP/Pzeu/5tww10mj2iWtsPY0N/h6IxfMDArp5hiaHeUFF6ooBhMWIIlxs3l9gDn2z3jBEBsoDuuKWRNeloxpr6boOlgpc2663ed0/C3fjbuOxaWTxy9FZ//kzXcqlHoFQNyuvHXqZsX113LXn9etT3p6MhhDMAM2mKNdDvNVTHVMRG/8Ms1y65rntvFkdHXnOW2uvw/OSWnfd2v7fh3MqI3gXQ8NPF8y206bBatKxkJtdvW+buPGPKww2O8dP+d9tyrVXQ/eGPkAskWAcE55Xw44WYS9cu8P76hJ0C1YXMRmB44OyZ/P6l9Lud2Lx+TlJ4PBT/fn9/KyVj6Zy9WMu7plbeTNbIJvQZ0xbbwBwRNk0dRtfTNuNoy52Yz7ULA2F1JsxI6FVXwT6nbL65C7qv7AEKKex8HcqDs3lmXaJih9e7pdB6fl1KfBCIPbnu2y2CzTyVIKyzAyf6skuBDKLKM0QFIqtPprMbussK6YtVCopOfLHPCyP8Yv5bOeIn9OV3hjZj5EO+vLNBPJ/aDtbHOe+aCsRQXKjNnnfOu+pt+pUKrfumsBkMCYWlnh+uP6y5uQV50sQj2OIVmjtbz+wvgCgWud/z1eNo7X/bBw41v9gPoRKry5ztr18T5YX7GBjTL7l/Z9tx7v115GbVz36NDzpc6y205znZv3Ix3ywOlePIc0w3FIUrAmrKBMfpiBKr4oyu56iEliAZAKAcI5ZvjAqzbotla2ZVmt1+MvLmKzA6MKqJQPIHoVpuZqN+P5snlgkWzXm9kV2gUweIOs/9y2O19e2XFPYpRk0ejg/iX/VOu5vmmbDTNPvt1VlJFi9Xd9QbbrJkxPyqu+/9mlY3hZtlteMOsmRleP/GCFmzEVPyZKvY+DNxZYdNuYO/GiD7Xp2zNYIMHHtO8ls56V8+c5WUqXPivNfvEKJFSTMbTWdp8sDpCUcLbHmJ+TzRHN4i4rfiy15Me9jPxg80WZA9635Kk/uEYFusx5aAf9vzT+SeFY5AMU4UGCQsXMEPbcfe3MsK9bjv6YD8pFRQWCzDVWdRZKd+E4DMYVG+D64/oLGhl1j6F27SupuFv19VekbPDNCwiKLLYBQi8bx81y+bx8dYkb8EnaXb9yjasG2zTvg3NE+cBG3P6lfd/N4P066XXrZdSFXZuObvlO2PlSbxlupxbOeeb0eOOCbGlEXbe1FJqx6L1/RhUr6pavOv/fC++zDl824l1LEgwdEpDF5xflFdEclw8iklgApEOAcM75SPb9wRYT+W4tsgi94iK9su3r+l9hTN75S0Q36LIBRJHhvww5b/pzs5vxp3J42B1ja1FOuwD2Ox/OvB/956b/NN+LGFi7hD+Lxhncvzj7or7rOzbpdkfTdf1gvu+Os2OebO7+gjya02nT8tqEL3vQcG+ow8bjKtzY5wf3j7F2SY98xd6ALFqyKOYmpt7Hwd82X5AnuoMDsffP75Ynek37FFUnTdeeMdlJ05/JKdPGi8xNv2YphWUFeQUS0mcMeWOolS/uoIEVpxu5meeuBV8I7qMGbEy7fNsJwMSPpZb8uEfoMh8u+3S8mh7npl8zZIIDdnuDzJsPrstvkR/0mQ+vgXXY+dfcHBnI1qqtT+h89rlm0G1e0W8DfZ/InwLj43gfnM256c+KM9vpdJ2xNwFh3PGwzPGtsJqrBh23V/mte3+f7zjEBhG4/rj+innXmLlWzPKCx6/6689VuK6+XXQtBsbrNOtzMlhzPXKXfmQxN9veeegFg24OZBZmyWYp6r6a8zg4jqjZz1p2pW+698E54tq4/Mk7Ztou/mNUZv/Svu9m8X6d/Lr1Mnz1+Olxnx84fj9YYYeviCteUxdzZTszVva6rQXTtr2FdV664A+mFt7LFy3pL7keCsdhQv4n0A1aPxe4YxqK/bIv8OWh7uegOWftU78srgdHgiKaANJp++a37p61j2vq48ulQaZlywbk3Lmo0NL1YWDbA/L0ll5nDMJKKhXf+RO3yIcWKSmtynuTPPDU/XKveWMsXq43XzztErxP9kV84+Jts0OrBf/8rdAAYPw2em6TJ164W9bFrtPbn/jtcmzYLPsf1m7NZRz/o2zPsMpzf2+PfMf3AU1vNi6Zm48/6T/aNGOH6D/eJfPk1Yhvzeq1Ps2qcW+cw+jA+3+Xw4Eb1w7ZbG5O7+rQAiUh3SLMTeovzA293sz+8mowsFhs7eCAzTxSn8lrZz6IqCpYUM/jUHnbpJinIydPLMjJok8nQosZFJaX4liE8uaxT6NEHr/y81+a/Ls8E1PBOvlxn++7WQunHzB/G3UN9cUH52TyE6dqZmHd3vq0u9I8WRS63ojtNR++f+EEykpdujAif8r1m30Omberp3CjEOGS2c5T5vw+7PsQ3W9uML5jbpxSf7A2ittHt/OZMjf8XH/udNf1fv0VXqtFSkpvYgvXZ9i5U/n1VypyGdpt1lc92b9PwW0x51e+EMcnsv94+SC2t84k14Mj9hr2r7Pw/hLV5uHrnjvvg8FzK0rxvGnbpYh3HLTya9ku0+XaNHxb0r7vZvF+Xcl1qzRDS4Mwocwx33+63LVQ/rhkoeLt9P7XFr0HBES+pvy15Er2XhGv/Loir9uYzxMBMe+DkSKuj/h5Y86Bsp9h9MtDDYIWzv0srgfl3avG34MCSIMMwjmpkEXYv+X2fMXhrHhZf6ps92IZkrdj35i9widzu5pxvmrnsH7Tph8ePnBS4lPdFKtrE/KbiA/0ql7rG7n2d/nlxKS857+fnJ6W9yYn5JdjpTfg+pbhDsofkaXy6aS8pvN0lC9WcuzCuJOVpC5duJToA2g9j4O2zU+vTpi2CTSOXPo0qm1StGeZ8cdGPjU3ac6juAIJ8RlDQXaecswyw8/NaTl8VffRbFdge7RdJmX/1fHY4IRKc9yD9MbVHPsz5mYx7hoa/cCpsvvauNeG1qT5wKrj+5kbj9B1m2P1Wy/DzZdxpB/m90d9SB77sOT1zs2Ndh02N7TegN4lrn0ifzLbF0cz4nTMvh/4umGNjH5Y9Ydrp9hEhRlVXH9+rXr9efyZJ6VVMVNffz66jF+adQTn/8RZpl/h+vpMTo37r4taZA0WuabVQTXDNrhN+h712rC5Nuzz7DXh++CcYc5dZ9+K3wNNG42bNjHva2H7l/Z9N4v360qv22ND5top/p/k7V/Z4GD9zJXtzE6y6zZr7vvRSOR4o8eGSq/1/HGIu971/e/4iOzX9+mIeYvP/SyuB70H3aaJLKPH5ADBQSBzZBAClXC+2ZMMvl1MqN7rmytoF8x5NsNA4jJetJuOZh/qTWFM9kw1bLZCRcvn+gOAOSGfRToek3XXBObKdqLx3B5sCXqdAUiFDEIAAOrNDhgeP9B/TPZhRtxxEIszrwAA1wMnW1wf9CyKrh7fBObKdqKxtGuxDm81cuhVgoNAjZBBCABAveXH7nHH6Hl17NNAoLC/q1u+tkQLL2gAT7vz1iBbz9sGMjYA4PrVe7M8MaBVY/2qH1+w7BiXAQn+j9VoO9PKfP9QlfwY+RmPMw8giAxCAADq7VqhmuZXBvrlUV9lYKc68PJFbnBQxw46k/VNx3xnoHB3UH9zU0NwEACuX2MfOmNlFo/f2XTmynaiYUYIDgI1RwYhAAAN4lYG7pabc/MCWRM6qLhWL/6foszCbLjVXW8evyS/HZqowfIBAAAAzDUECAEAAAAAAIAWRhdjAAAAAAAAoIURIAQAAAAAAABaWEMDhHQvBgAAAAAAABqLDEIAAAAAAACghREgBAAAAAAAAFoYAUIAAAAAAACghREgBAAAAAAAAFoYAUIAqMStd8izT22WO+1TAAAAAADmurZvfuvuWfu4pj6+/JF9hKa1/nFZ/NA6+6Rg8oXvy5W37ZMEcjv2yMJVfTJ1cq9c3vumnZqtzvv2yI339FW8banUvV0G5IZdu6V78VG5YuaZtFOvV/U4XzKzYbM8+/Cg9I8OyXP/dVjeOGuno8nNyuoV07IyJ3L1QoccHG2z0xuoa0a2Lp+RBfZp3mS7HDrdLmP2KQAAAADUQ9NlEGrgZ/Hex8Xcx8GnHu3S2ddvH/kdlX9WEoBbul26V/U5DzsX3yKdzqPsdfbpOkZlesR9Xkv1b5el0rHY/Lr4gUy5E65fdTpfMqGZgxoclCF57ufXR3Cwt3dGNq2YlgfXTNmfadnUNyu99u8BvYXXbQp9waxs8pYzWPy9kwbo3OWv7rKTKlC6nVOy1TwfTLqsrllZZt88FyyZkUH3YQuzx2PFTPixBgAAANBymixAOCC51X2tERipSH3aZeqlx+Xiju/bn50ycdFMrHSd59+Sf+p8MiqTJ96q0fYOSKcG0GREps47E2qq7u2y1AbKWuE6qMv5koWb5IEfrpV+GZOXnzwsb9ipc9ng4LRsGZiRpTl/MG9Wli4x0zX4ZqeEWdoTknjea5ZlH2apty9sO0UWmOcblk/J1sGIgKbftTY5Z1Nxr15olyH3YWNda5eDxzvlxfxPh9Th7QwAAAAAQjVZgLCFMqcq0oh2SbvOYfnHLg2kPS5XXhq20zK29A75nG7byb80oPtt7dulc93tToBw8liTd7fNRB3OlwwMbPuO3NsnMnLoVdl3PWQO9k3LBifI1ybnL3TIIS9IdaZDzutFpcG3uOyyntIsvMGwoGG1eqdlyxK7ncMdvmBapxwabne2dYHZllvLZhK2yYnT7nxN0b0YAAAAAJpMcwUI13/D6ULbGoGRCjSiXZr5WPS7GXZTow3It6lDu9Sz+zSSuE22bek1h+SY/L8D18NYqrOyygm6iRN0e320rTDe3bU2ef20zWTLzciqkAjh+XENsM3KssDfzPMe88v8Lcur0gs6atbf62PBwN7YmJlmtvXQmQ45cc1ORGILbZdrAAAAAFANLlKyURbuuk9yi90xyOJFFWwYkNyOHznjmHnjl02dPCgTf9gvk/1aXKJfJnY/Lv8oumt1i1xI4W9Lzbb8u29bLpr1/dqsr+RuN936VOf6x2Xh5nW2e6walclXXpKJl94sykbLol2qU9I+USIKeMjFg3J51/6YLDtbiOPiXrnoFKYw7Xrf96T7HtM+7gucohVXzN+KlxFfoMQr8GHmf2WnXM44K61u7WILlEyt3y7dm7eac8H965Q5LydCz0tXvc/riteXul0Kkl9HBZ1OO97uu6ZGzf694+5fSVsU2bBZ9j88KCOHfi+PJQ0Qds3K6iUzsqxnNl+E4upkm5y70C4nigJd7nhw07JS3OIUOu8qf5daM9/5kABZ6vl0LMEB85q4Yhjea8Y75MUhO7+dpsG6K2bflob8TdcnxX9z2G3NtcmpCgJ6g4NTsqGn0sIi3rrs0yLRywq255h5Pjg4I1/1H8PxdnlzKLqASK9ph41LzOtjgm9x69+0ZlqWVlKkJOI8e3e4Q4aK29hs29Yy25ZXcvxcOhbkKj2++WW02TbxBZnzqm9PAAAAAPXT2AxCHWstURDMCOvSuXS73Lh3t1MB1QtqqM5VW2Xhzj2ycK0GIsLHqXOztNy/aZBj8c4dwYCcBh+K54td3+Mx69OA3+/kxof8QQ3VJ7l7dsiNu7YHlld1u2TA3z5xwgt4iEyVHWfP7SbsZAF67eoLDqrOVTtk4X0D9llBdIadtrMbHJx8IfvgoKp5u3hdmE9+IJ3OOVMIDqrOxeucc/uGiMHesj+vs72O0reLqvA68qx/3Lajb7vMPPn9W196jvnd+XXtTDsm7/wlSXBwVlYPTsuDy6dlpS8QonTMvJUD0xEFPgzz91U6LqCZNzDennm81MxXWvjDqnC+XhvcuToeFtSxJtvkqv4O6UqsQaEr+o2E72/uMt3pC50p2RhyshVtYZEUxU1SMe3W0zXrFEXRbtiBY2j2eUtE12t3TMeEAbgMaDfxqPPMGZuxr/R8Sb9tGuybsmNB2kkOs+4es99xxWdSticAAACA+mpwBqGfufnfu0NyiTOJ7Ov1oZnnyq8LmUBOhpEGEfRJ6PJslpaYvx2+xQk4ONlqf3jTBkEGJLfe3CO/7Q8wFdaXz6xKtD5vPpvldNRbh7F0o9zw7ztsQCssG05V2i5ZsOs0beJm91XAZohF749lXzd1cVRkcZ90Oplm/23aVNtcs9k0YGUelmxDMMMunzmpQa6dW80xMO38wn+adddiPLs6tEt+P5S7LxNmX5zj7mTnmfVrcCx0G6o7r+tzHRVJ2i6pryPvfCk+LwbM/n3P7t9oTEboTfLAU/fLvX1D8txDCYqTeFl2ThZXuwxd87KwZmWwb0Y22PH0jhzv8BXKsJlWNvCiWVXvXtB59Zl/Pu0S3Cmv56N66ebzsvKCyypms9nMtuYz/vIZhB3ypsw4YwO6y/Blipnm3bh8RhZklEGovO11mHY9ZfaxNAuzPKfYidnmshmEtj31OJ0yx9Bbl2YHagBQlbSdbZvSeWZk44Bpj5JjHqaCDELf+jRr86Svm7iTxWj+puuMbuvKshW9tnPWZ/Yvn5WqGYwDXpvFn9cVtScAAACAumueMQgrrNya22GDGhoo2RXsJjj19h65/MJR90no8myWltwuCx/qFyfbTLuy5pcxXBLU8NanAZDLe6PXV5wJ5c53VK7s1iIM/nUY59+Uf/z6oPP6zr6ILKZGVLS160wzxp+bIVZ+/Dwvk8zJlHxlpzmG2g3Va3PT/n9w26VEWIESX3BQAz21CQ4a9WgXW6DECchp4Q6zL/l2MOfLFXu+yGJ7XgSkP6/rdR0VS9ouVV9HF99xAq0Fpl11/3bsdJYZ3V38i/IlTTwcHZNz7oR4YzomXqccPK1dPP1BqDYZGu2QI+Pus4UR2VZO8GrIC/Ipd75DF9xlhVYPNpLPN2vHnrNZgDGi/q5ZaGOj7U5iqLPcrllZZqZpoKoWMZ6hoU5nP5yMxpybhfngmmnZ1JegenFak26wyx+IHDPHNn/8zHb4eVmZOqZjcJ52OTisz4vHbKzGrKzOB36LxpA0dDvz64w4XyrSNeN0m3YCfGfM+nz7p2NWnjDn+innXJmVr4ZkLToqbE8AAAAA9dc8AUJbeCJR8Yel26Vbs8s0iFImkyt0eV7QbXGfTL2QIKDkW5+OiRdnatS/rI3yOZ1PtFvo72Tx3pCffLZYhEraJSv5IiBl2qXEgORW9znBGH+gKYzbNdXsV5muwCXBuKICJZrl5rZhXBZYRurWLmZffh2RLXo+JlBcxXldl+uoRNJ2qeY6Gpapi+bX4q2ycMdG6Szpmj1c9phUaswL0nXNymDvjGwanJatKzSo5WXCeUG6Ym1yznapLTZmpnsBstI4U9r5qqHrNL/McrWQiGarndMolXnu70KalbHRDjnoq1ysbbh0idu1dVNv1sElzXQLz/Ybnwxv5yQyC4LZgKyOIXkyKiI75gZwF5hjU/Vx947peHtENmKbnLCB6PD11aY9AQAAAGSraQKEOWecs2SVW70sq7hxy2Izk7xAzys7Jb5boyv1+mzF22pU0i5Zcdd5VP6ZoG2CbEZZ2WzHATuGnK4jPKiUb/OiYJyXeajTnQIZD+m2GgmCb9WqX7uUH+MwVL3Oa0+F6yuVsF2qvI4m95rtOznqjGl5oxNg3CML79vobHstaLfSTSumnPHhNuiYbRpAyyo4ZJbj9batSH4+L3MwKkhZUO7vzviAOduNeby9TPfZbLiVizvlxTMdcsoJirrjLEaO61gnYzbbUrclMFaijr1nu9FeySoY5gXsTNtvWWPOs9Af7R6ejfyYlREZpQ6zb14gOtX5CQAAAKDhmiRAWFlgxMuy+ufRqIwlm5kUsTwv6BY9f1Da9XnBLB0X7eKO+J/wLLoqA0ap2HWm6dJsAznlsx3LB4a8Ni8OTHnTOzf/zqlk7Ix594qOY7hVute7r6mNOraLv/t0MS9rL2Q76nVeeypdX4mE7VL9dTQsk3sfl4u7d5pz5ahpN1vUxAkUxhcoqZgzrpot5DCp48N1yJEz2u24Q1483pnvUtlIXtZWbEZb12y+2MiV0Kwxw2apqfMRGYw1o11bh3xdqJc0uNBFvrusWyAkH6jTwjE6ebwjOtsPAAAAAJpAkwQIEwRGKhIXgKpB0M0bFy8ieBQ5LlpZWbdLEuWDd1Fis838vIywyHVEHSOvq2mf83fNXNOusZMvveS0T25zRBXbTNShXRKMcZj7rtuVtjSoVotgcm2vo8TtYqW/jqzzw+Zc0XEHvy8Xd++VyYsaKPxRZEVo18fyt1Hzq69XlrkTYnjZYm6XyhdPu+PD6ViEY4HxCFPwssYm26SiGGPIfF62W1z3016n27ARmxnYJud0bMDJdrd7cQPku1A3BfcYB7fHDRIfGoqpGF0pL1tPC8Ec74z/KVeApIKMv9gKyGnPTwAAAABNozkChF5WVEX6pMNNLCoyUCi8EBrYSBvo6ZPPrQsJUDgVVO34Z0XLnBp1Ix+dq++I3L/O9QPR+56qXapkg3fpCnFEZ5v55TPCIjPHIo5Rvj10vEF/ttibMlHrLMJ6tIvt8hvFqSrsBEjDujmnP6/rex0VJG2X9NfRRnfcQfssQAu+HNYCLFH77/lIPrigv3vklludCeVNtslZfyGHvEJWXpTwbr2FohRXx8MDTRXN52X+5WZkVWiEcFZWeUUwymQGaiGUg6dr1714cLDMGINeYKrReqed8SVPaYGaQJCutIhIWeWCdtfa5JwGeXtmZHVEsZtKRBXM8eSDsJHrK39+AgAAAGh+zVOkRK26T24wN/qeTg2+7djuBil8pkY1pcfcRz30uOR82T+d67fLwl27bRAlIpgT00UzyuQxt5Jr5z275cb7Npp1Dtht2yM37twh3U4mVUjA622b+bd4q9y4y+yHf1u9+R/aXT6olbBdsqTBmPz2mv3N+dYfzssoWyfdvm6bneu1vewTy+vaGpk55gXjisfGy495958lxUim6pJFWI92Mb/teVbYDw3WFcZbnHxhT2lGaYrzut7XUVDydkl7HXXed5/kdNzBXXtkYXEA0cy3cLPbnuW88VcNf/XK7d+4yZ1QTm5GNgYq7JrHvW6hkpWxkR87np5/3q5ZWa3zORd7m7w7Gh54rGy+Njnpdc0NmW+Tmc9p4rgiGPXQNSNf7XH3Tdtu0Gybn9Omdny/WlVQTsodp29WFprtrYY3PqRWA/Yfk8C4hub4uUVBZmXlcnv8An83r+8zbbPGtJmdUsoWmdFlDMyUjJs46A/KXmuXd73X6vr8f4s9zwAAAADMJW3f/Nbd1d3RJPTx5Y/sozADcsMuc4NvA23FdOyxYBEEc3O/12Y3Fbt4VK6c6JeF90h4VVutevvQOrd7akz13GK5Hb/LB0z8pk4elInR28uuL4ozht7eNyOCLJW2SxYi2lYr3e6KqKxrOUVD7nGDXH7B7fT2yRynHSGBLsNbTvH+RU33eH+v9NgmU6d2kaOmTdZJLvSYj5p5/tPME7Jvqc7r+l9HfsnaxUp5HUWtI8/Mp93U44Oct8kTL9wt60aPyc9+/pbE7W1v37RssdlUJSbbnHHqtKjH+eFOeT0f0SoEWbQQRHhXzjY5daajqIps2vlcmp23ISqgpdt6uqjybO+0PKgBOe3aOhQRCIp8jT+QFMes97hvvV0zsskb0zHCVbOug1Hb4+Mdm6sXzOsjAq3uNka3WeQyzHZuXT4Tm8141bTpuQvtciI0u9QVef6EtHnsuabM+rSre3jlYSN2m4uOQ9njF3d+pmhPAAAAAHXXJBmEw/KPXTtl4qSb0eSZ0iDF7rBg0Jtm+t7g6y9q8GSnXN61x97sh3dd9Lq3FlfHLWdy7/fl8gsHZdKsc0rXdfKg2Qazvr1vSWdMIQd5e48d76xo35z5zTJjgxOVtksWtG3Nfl60Tw1d38Th6Eq3nqmX/tOpFltg2ukVc5wC21m+a2pUhmG5zEMvi7Dznu+FB72qUp92mTrx33LFHHN9fWG55rFzvjweHhw00p3X9b+O/JK1i5XyOpp6SYuTuPvo/7tzDet+lg0OqvflwKExkb618uNt8VmEY6MdcmhYx+WzE5QN1OiYhENhEfG8Njk33Fky/9XxdqfQSWSgJ+V8Q1rko3hbzbI04HaoODjYKNe0anHYdroBN92/JMHBmrvWJu+W6Y6tlaxXasZmIbW0hHP+6LiO9rlDz5+Qgf30tV415+LXO+MemnaLPmcM07YHzfznzev9tF1PDRd3G2+TE6f1HGs3r7eTHPZ8OV5mXQAAAACaXpNkEM5lNgsrQSYZgLnqJnngqfvl3r4xefnJfbLvrJ2cifKZVuHSzlcqn40WkqmGcuxxkHY5FFkUZNZmbArZcgAAAACaEgHCKtW2W2syZbtRBkR37b3e0C7I1K13yLP/sVb6ZUiee+iwvGEnV6/xAUJd1qY17tiDmhH25hDFJhKzXXWlTOCP7rQAAAAAmllzFSlpRku3y41798jCQNEIwyuO4ASgjspEg4KDyitugSDaBZk6+5Y89vyQjMigPPLUZrnTTr4+tMnr2o3XPFrQMy1b1kzJg87PdCaVclvBgiUzTgGP4h7EvVrIY9AbL5BCHgAAAACaExmE5WiAcOfWYHAwYDS8iAOA65NmEv6wV176r8PyRiZdjZshg9DSYNaSGVmZL16S4bKvY4ODU0734VjO2H60JQAAAIDmRIAwkQHJ7fiRdK/qKwQKtcjBiZdk4qUkRQ4AIEoTBQiRWm/vjKxaMisLc7OBysBe9eKzY3TbBgAAANC8CBACAAAAAAAALYwxCAEAAAAAAIAW1tAA4bJlA/YRAAAAAAAAgEYggxAAAAAAAABoYQQIAQAAAAAAgBZGgBAAAAAAAABoYQQIAQAAAAAAgBZGgBAAAAAAAABoYQQIASBDA9sekGd/cpt9BgAAAABA8yNACGAOmpXVK6bkwTVTsrVv1k7LTm/fdFXL7l9zt+wnSAgAAAAAmCPavvmtu7O/uw7x8eWP7KOCZcsG5Ny5Yfvs+qTZRE9v6bXPgkZGx2T0D6/KgSMfSXEr3PmTR+SRNfZJkbTzFYzJy0/uk31n9fFN8sBT98u9fSJHn39OnjnivCCE9zr/vEVuvUOe/Y+10m8ejhz6vTx2oPSYi9wmT7xwt6yzz5IIbNeGzbL/4UH7JFr0+tPp7Z2RVUtmZWnOu1za5PyFdjk52mZaM44GsqZlpbTLodPtZV4796Rvlyp1zcjW5TOywHnSJkeOd8iQ8zgbGiDcYvbr6oUOOWj2pVLedZ/1eQgAAAAAQC2QQdhA/X29su7h++Xpp+6QATstibTzhftI/nzMDeX09d/k/A5165fl9j7ze3RI/hwWHDQGvjHoBAdV/9ovZ7BtzWFwcFq2DMz4gmBqVpYuMdNXTEv5cGU6GnzbZJavmWzuz7RsHZyV8HBz/TWqXRzX2uTcpPvw6oX2TIODWRg+sE+eO26ugy3fkQdutRMBAAAAAGhSZBDWWHQm0U0ysOHL8uOHwzPuvEzA0qy++PmCEmT9KS/zb/SY/Oznb5VkJTq8zL3jf5Ttv3rfTvSz65Jj8vKxQbl3i8SvMyDhdipvO+K2NUNeJllJZlzXrGwamJalOfN4Mi47ME0GoZ1Hlx1msk2ODHfI0DX7vAGqb5fmVm0Goctmy9bpXAUAAAAAIC0yCBvmIxk+8pY89uQxGTHPkmfc2fmed3Om+vu/6Pyuytn/lXdGze++QfnXiGynO7/u5oMd/WtYcNCwGYYjx/5X9v1lyOxTr9z+jZiMxDlh1uk+q84Pd8jr/m6z19rk9dMdcl4f52ZkVUxa38KoQF8EzcxzgoOTbXLKrPfF4532p0OOXGgz6zN/iwsOdmnmYYrx+RLPl027XP/elwOHTMv0rZVtG+wkAAAAAACaEAHCRjv7sWhsTvp6ZZkzIaG/jTmBRVnyxQy7GUcF9W6T9c64hkPydtQYhV/qdTIaR0c+yu/TnO9m3DsjS/X3ZLucDE2Da5PXh93ssqU9voBa77RstYE27RbsLCM3I1vyXYV9P4NFgTgz74YefdAmR053yIkxf/ZamwyNasAwfry9wSXa7dd9vMA8Xt3lPi4n8Xxp20XHDdR9XjET0U3aKzwyXbTuQkGSsJ9kQdBZ6XWOSzZdtjWI6yyjzPzDTrBcZN3XKVgCAAAAAGheBAjnqPx4fxc+zqTrohfICA3qbfgXt6jI8f+TN5wJpdwMQy+A+L68fdz8islInAt6bbDs6nhMwY3JNrmqv3tmAmPuLbDzVmrQBtQ0M6/ZxtXzVNMuDaHdnlfoeImz5rj4g4nmeY+ZXhKQjKfdjzfocRrvkENDMW2gvOzcNf8id7pTAAAAAABoOgQIG80Lvo2OyTlnQjk3yZ3bNsuPbWXkyC6/lYrJZBzod1LaYtZlMwx9AcQ3/qrhrRp2M+5bK0+/8IjsD/l5IqPunD02mHRlMmYMumttcsU+XOgFmcaC3YKd7rY6Hl9+mu9nyL/sWVlmswfPadSpa1ZWe5lq+rNiWjb1lc94G7rQLud9BTxOJByrMOl8qdsltTY5cbq07Q5pd+uyZmXTcm9MxPAu21fNa5J2A8+PvajHs1xw0OFl5/bILRQrAQAAAAA0KQKEDaPFRjbLs1pww9Cx+8IyAdc9XBwAu18e2eJmD44c/2NRAZNq2Kw/GZT1gQDbTfKvazUkFdO92AY5AwHEI/8nR82vudvN2AsatckVGzSLUu7vFZtsk3Htjrt8Wlb6u+jmbIXg4m7Jxa61y+s2oFZRgY1E8zWwXVLo7St0hz4U0WX74JkOeb18pC8YHKy4+EqvfOlL9iEAAAAAAE2GAGGd9G+5vyTQ9/TDhUBfdCXiUiOjx+S5J38vj4VWE07PzforGi/NFh9J3r3YU+NuxloZ9qHnZHvIT3ZB0zrrmpWFzoNZ2bh8RhZMtsmRM162W6ccGva67U7LpjQD57WcWbnVCbBq5mBMQO9a+SBqITioY0NWFhwcHhm3jwAAAAAAaE4ECBtoZHRIXn4+PtB39PlC4OtnWhHV6L/wsbxxNnlAMTGb9ecfL80b67Bs92IZlEcCAdBH5BFn+lytZuxlyJXvflppleKycrOyQMe3O90hQ75uvmNjHXIwrPhHXTWwXVLwtuFKwm7WYbS4iRMcdLQJ4T4AAAAAwPWGAGGdjBz6fSDLTX8e+/lh2XckeaBv+MBRG8BbJw/UZDwzr5txYby0Zf2aqjYmf/ub+7yEN4ZijLnazXjcjrG3MFDYokg+66+6IJQjP25fmxyJGt/ObJOTRWi2qVFJhHVvl0bqmXGKm2i3Yh2v0KlGXa6LdxFvDE8AAAAAAJoVAcI55X054GQR9sq9P7yjJkG3YHERmx04OiR/Pqt/LeV2Lx6Tl58MBj/dn9/Ly1r5ZI5WMx6zY+gt6IkOxvWavy3QB+Pt8VWHc7OSJEzUDOP2lZNpu9RJ2kIpTtVjO+agjld4RNMHU3XxjgmyAwAAAADQYAQI55jhA6/aoNta2ZZRtd4Af3ERmx0YVUClfADRq+A6R7sZj7W7FYhzM7IqNCA0K6ts19Pz4+XHsSsfpGqTs85yZmVZRADKC7xdNa+LHAeva0Y2rXArH2/tqyDbLel8advFy5CMCJZqQZGVmXZLbpNzTn/gWVk5MBMZzNRsx8i/FRUkGRpyq1IvHZiW1YmCjl6Rn3H5ICLIDgAAAABAoxEgnHM+kn1/sMVEvluLLEKvuEivbPu6hnHG5J2/RHSDLhtAFBn+y5CMmN9zs5txm5zUbqWGBoQ29fkCSV2zsmnFdL5C7snIaF0wSDXoDyqZZQz2BgNxY6Nu8K1kfWb+Qa9QhrPM6IDk4JIZWWoDbQvM42SBrErmS98u3viFGwaD86we9I/zl52hC+22S/aMbDHbtTrQ3mYbeqedatFR3YZLA7Ft8rozDmSZoKMnQZEfAAAAAAAajQDhXHTknXwW4Y+3BTPz7vyJv1DI/XKvBiekV+79D//0B2LHMDw3oiGRQVm3pjdB92LzkpGYcRTPfiy6qZl3Mzb7/nR+f0J+fuKrxFyFMadbqRsQWrpkWrascTPsHlw+7QbTElS19QepNiy389tlbNCgofMqjxuAulq8vjXmtTY4eH64Q040eFy/dO3SJidsYFG76frnWdkzK1cv2C68WbrWLgfPeO2vQb1p2576Y7ZhQDMy2+SUt11JjHXIoYTjEZYv8gMAAAAAQOMRIJyTClmE/Vtuz1cczoqX9afKdi+WIXn7iDMhglf4ZK5WM3a7lR7SoF1gfEDz3Ks0bKdEcoJUHXLeFvfwXDXPTw2HjNGn1YrN60+N24Iklr7+iJn+elw00tCA5Hm7rVfN46TBxErnS9UuGlwrnsfZr045ONqWL4CSKW3/4x1OkZHQbTV/qzTgqpmep3RZzniEUUHC22TbFg2yH5MDsdcIAAAAAACN1fbNb90dnwKTkY8vl2aZLVs2IOfORXVOBZpPr9fNd7xDXhyqQTBrjqJdSmk27yNrtIDPPtnH+IMAAAAAgCZGBiFQAW+MQM0c2+ofR6/F0S5BA9sekEfWiIwcepXgIAAAAACg6ZFBCFRKC1s4Y9f5tcmpM40fG7ChaBeHBgef1q7Fx/8o23/F2IMAAAAAgOZHBiFQKd8YgfChXfJGCA4CAAAAAOYQMggBAAAAAACAFkYGIQAAAAAAANDCCBACAAAAAAAALYwAIQAAAAAAANDCGhogZPxBAAAAAAAAoLHIIAQAAAAAAABaGAFCAAAAAAAAoIURIAQAAAAAAABaGAFCAAAAAAAAoIURIAQAAAAAAABaGAFCAAAAAAAAoIURIAQAAAAAAABaGAFCAAAAAAAAoIURIAQAAAAAAABaGAFCAAAAAAAAoIURIAQAAAAAAABaGAFCAAAAAAAAoIURIAQAAAAAAABaGAFCAAAAAAAAoIURIAQAAAAAAABaGAFCAAAAAAAAoIURIAQAAAAAAABaGAFCAAAAAAAAoIURIAQAAAAAAABaGAFCAAAAAAAAoIURIAQAAAAAAABaGAFCAAAAAAAAoIURIAQAAAAAAABaGAFCAAAAAAAAoIURIAQAAAAAAABaGAFCAAAAAAAAoIURIAQAAAAAAABaGAFCAAAAAAAAoIURIAQAAAAAAABaGAFCAAAAAAAAoIURIAQAAAAAAABaGAFCAAAAAAAAoIURIAQAAAAAAABaGAFCAAAAAAAAoIURIAQAAAAAAABaGAFCAAAAAAAAoIURIAQAAAAAAABaGAFCAAAAAAAAoGWJ/P/wX8Ia3Woc7QAAAABJRU5ErkJggg==;" vertex="1" parent="1">
          <mxGeometry x="1380" y="750" width="1288" height="1186" as="geometry" />
        </mxCell>
      </root>
    </mxGraphModel>
  </diagram>
</mxfile>
